<?xml version="1.0" encoding="utf-8"?>
<!-- Generator: Adobe Illustrator 23.0.3, SVG Export Plug-In . SVG Version: 6.00 Build 0)  -->
<svg version="1.1" id="Layer_1" xmlns="http://www.w3.org/2000/svg" xmlns:xlink="http://www.w3.org/1999/xlink" x="0px" y="0px"
	 viewBox="0 0 170.1 170.1" style="enable-background:new 0 0 170.1 170.1;" xml:space="preserve">
<path d="M81.2,13H47.5c-2.1,0-3.9-1.7-3.9-3.9v0c0-2.1,1.7-3.9,3.9-3.9h33.7C83.3,5.3,85,7,85,9.2v0C85,11.3,83.3,13,81.2,13z"/>
<path d="M125.1,13H91.4c-2.1,0-3.9-1.7-3.9-3.9v0c0-2.1,1.7-3.9,3.9-3.9h33.7c2.1,0,3.9,1.7,3.9,3.9v0C129,11.3,127.2,13,125.1,13z"
	/>
<path d="M47.3,55.9c4.4,0,8.1-3.6,8.1-8.1s-3.6-8.1-8.1-8.1s-8.1,3.6-8.1,8.1S42.8,55.9,47.3,55.9z"/>
<path d="M74.1,55.9c4.4,0,8.1-3.6,8.1-8.1s-3.6-8.1-8.1-8.1s-8.1,3.6-8.1,8.1S69.7,55.9,74.1,55.9z"/>
<path d="M101,55.9c4.4,0,8.1-3.6,8.1-8.1s-3.6-8.1-8.1-8.1s-8.1,3.6-8.1,8.1S96.6,55.9,101,55.9z"/>
<path d="M127.9,55.9c4.4,0,8.1-3.6,8.1-8.1s-3.6-8.1-8.1-8.1s-8.1,3.6-8.1,8.1S123.4,55.9,127.9,55.9z"/>
<path d="M127.7,18.3H47.5c-16.4,0-29.8,13.3-29.8,29.8v107c0,4.6,3.7,8.3,8.3,8.3h123.1c4.6,0,8.3-3.7,8.3-8.3V48
	C157.4,31.6,144.1,18.3,127.7,18.3z M47.5,29h80.2c10.5,0,19,8.5,19,19v10.3c0,4.6-3.7,8.3-8.3,8.3H36.7c-4.6,0-8.3-3.7-8.3-8.3V48
	C28.5,37.5,37,29,47.5,29z M28.5,144.3V85.6c0-4.6,3.7-8.3,8.3-8.3h101.7c4.6,0,8.3,3.7,8.3,8.3v58.7c0,4.6-3.7,8.3-8.3,8.3H36.7
	C32.2,152.6,28.5,148.9,28.5,144.3z"/>
<path d="M43.8,141.8h87.6c2.5,0,4.6-2,4.6-4.6V92.7c0-2.5-2-4.6-4.6-4.6H43.8c-2.5,0-4.6,2-4.6,4.6v44.6
	C39.2,139.8,41.3,141.8,43.8,141.8z M54.5,98.8h66.1c2.5,0,4.6,2,4.6,4.6v23.1c0,2.5-2,4.6-4.6,4.6H54.5c-2.5,0-4.6-2-4.6-4.6v-23.1
	C50,100.9,52,98.8,54.5,98.8z"/>
</svg>
