<?xml version="1.0" encoding="utf-8"?>
<!-- Generator: Adobe Illustrator 23.0.3, SVG Export Plug-In . SVG Version: 6.00 Build 0)  -->
<svg version="1.1" id="Layer_1" xmlns="http://www.w3.org/2000/svg" xmlns:xlink="http://www.w3.org/1999/xlink" x="0px" y="0px"
	 viewBox="0 0 170.1 170.1" style="enable-background:new 0 0 170.1 170.1;" xml:space="preserve">
<path d="M146.5,146.9H15.2c-2.9,0-5.3-1.7-6.3-4.3c-1-2.6-0.4-5.6,1.6-7.6L142.4,8.3c2-1.9,5-2.5,7.6-1.4c2.6,1.1,4.2,3.4,4.2,6.2
	v126.1C154.2,143.5,150.8,146.9,146.5,146.9z M147.3,11.8c-0.3,0-0.7,0.1-1,0.4L14.4,139c-0.7,0.6-0.4,1.4-0.3,1.6
	c0.1,0.3,0.4,0.8,1.2,0.8h131.3c1.2,0,2.3-1,2.3-2.3v-126c0-0.8-0.5-1.1-0.9-1.2C147.8,11.9,147.6,11.8,147.3,11.8z"/>
<g>
	<path d="M91.4,106v0.4c0,0.9-0.3,1.6-0.9,2.1c-0.6,0.6-1.4,0.9-2.3,0.9c-1,0-1.8-0.3-2.5-1c-0.7-0.7-1-1.5-1-2.4c0-1,0.3-1.8,1-2.4
		c0.7-0.7,1.5-1,2.5-1c0.6,0,1.2,0.1,1.7,0.4c0.5,0.3,0.9,0.7,1.2,1.2l-0.8,0.4c-0.2-0.4-0.5-0.6-0.9-0.9c-0.4-0.2-0.8-0.3-1.3-0.3
		c-0.8,0-1.4,0.2-1.9,0.7c-0.5,0.5-0.7,1.1-0.7,1.8c0,0.7,0.2,1.3,0.7,1.8c0.5,0.5,1.1,0.7,1.9,0.7c0.7,0,1.2-0.2,1.6-0.5
		c0.4-0.3,0.7-0.7,0.7-1.3h-2.4V106H91.4z"/>
	<path d="M96.6,109.3l-0.5-1.5h-3l-0.5,1.5h-0.9l2.5-6.6h1l2.5,6.6H96.6z M93.4,107h2.4l-1.2-3.3L93.4,107z"/>
	<path d="M100.3,109.4c-0.6,0-1.1-0.1-1.6-0.4c-0.4-0.3-0.7-0.7-0.9-1.2l0.8-0.4c0.3,0.8,0.8,1.2,1.8,1.2c0.5,0,0.8-0.1,1-0.3
		c0.2-0.2,0.4-0.4,0.4-0.7c0-0.3-0.1-0.5-0.4-0.7c-0.2-0.2-0.6-0.3-1.2-0.5c-0.3-0.1-0.5-0.2-0.6-0.2c-0.1,0-0.3-0.1-0.5-0.2
		c-0.2-0.1-0.4-0.2-0.5-0.3s-0.2-0.3-0.3-0.5c-0.1-0.2-0.1-0.4-0.1-0.6c0-0.6,0.2-1,0.6-1.4s0.9-0.5,1.5-0.5c0.5,0,1,0.1,1.4,0.4
		s0.7,0.6,0.9,1l-0.7,0.4c-0.3-0.7-0.8-1-1.5-1c-0.4,0-0.6,0.1-0.9,0.3c-0.2,0.2-0.3,0.4-0.3,0.7c0,0.3,0.1,0.5,0.3,0.7
		c0.2,0.2,0.6,0.3,1.1,0.5c0.2,0.1,0.3,0.1,0.4,0.1c0.1,0,0.2,0.1,0.4,0.1c0.2,0.1,0.3,0.1,0.4,0.1c0.1,0,0.2,0.1,0.3,0.2
		c0.1,0.1,0.2,0.1,0.3,0.2c0.1,0.1,0.1,0.1,0.2,0.2c0.1,0.1,0.1,0.2,0.2,0.3c0,0.1,0.1,0.2,0.1,0.3c0,0.1,0,0.3,0,0.4
		c0,0.6-0.2,1-0.6,1.4C101.5,109.2,100.9,109.4,100.3,109.4z"/>
</g>
<g>
	<path d="M69.1,136.5c-2.7,0-5.1-0.6-7-1.9c-1.9-1.3-3.3-3-4.1-5.3l3.3-1.9c1.1,3.5,3.7,5.3,7.8,5.3c2,0,3.5-0.4,4.6-1.2
		c1.1-0.8,1.6-1.9,1.6-3.3c0-1.4-0.5-2.4-1.6-3.1c-1.1-0.7-2.8-1.4-5.3-2.2c-1.2-0.4-2.1-0.7-2.8-1c-0.6-0.2-1.5-0.6-2.4-1.1
		c-1-0.5-1.7-1-2.2-1.5c-0.5-0.5-0.9-1.2-1.3-2c-0.4-0.8-0.6-1.8-0.6-2.8c0-2.5,0.9-4.6,2.7-6c1.8-1.5,4-2.2,6.5-2.2
		c2.3,0,4.3,0.6,6,1.8c1.7,1.2,3,2.7,3.9,4.6l-3.3,1.9c-1.3-3-3.5-4.5-6.6-4.5c-1.6,0-2.9,0.4-3.8,1.2c-1,0.8-1.5,1.8-1.5,3.2
		c0,1.3,0.5,2.3,1.4,2.9c0.9,0.7,2.5,1.4,4.8,2.1c0.8,0.3,1.4,0.5,1.7,0.6c0.3,0.1,0.9,0.3,1.6,0.6c0.7,0.3,1.2,0.5,1.6,0.6
		c0.3,0.2,0.8,0.4,1.4,0.7c0.6,0.3,1,0.6,1.3,0.9c0.3,0.3,0.6,0.6,1,1c0.4,0.4,0.6,0.8,0.8,1.2c0.2,0.4,0.3,0.9,0.4,1.4
		c0.1,0.5,0.2,1.1,0.2,1.7c0,2.6-0.9,4.6-2.8,6.1C74.5,135.8,72.1,136.5,69.1,136.5z"/>
	<path d="M101.2,115.1h3.6V136h-3.6v-3.6c-1.8,2.8-4.4,4.1-7.9,4.1c-2.9,0-5.4-1.1-7.5-3.2c-2.1-2.1-3.1-4.7-3.1-7.8
		c0-3.1,1-5.7,3.1-7.8c2.1-2.1,4.6-3.2,7.5-3.2c3.5,0,6.1,1.4,7.9,4.1V115.1z M93.8,133c2.1,0,3.9-0.7,5.3-2.2
		c1.4-1.4,2.1-3.2,2.1-5.3c0-2.1-0.7-3.9-2.1-5.3c-1.4-1.4-3.2-2.2-5.3-2.2c-2.1,0-3.8,0.7-5.3,2.2c-1.4,1.4-2.1,3.2-2.1,5.3
		c0,2.1,0.7,3.9,2.1,5.3C89.9,132.3,91.7,133,93.8,133z"/>
	<path d="M121.1,109.7c-3.7-0.3-5.5,1.3-5.5,4.8v0.6h5.5v3.5h-5.5V136H112v-17.4h-3.3v-3.5h3.3v-0.6c0-2.8,0.8-4.9,2.4-6.4
		c1.6-1.4,3.8-2.1,6.8-1.9V109.7z"/>
	<path d="M125.3,127.2c0.4,1.9,1.2,3.3,2.6,4.3c1.4,1,3,1.5,5,1.5c2.8,0,4.8-1,6-3.1l3.1,1.8c-2,3.2-5.1,4.7-9.2,4.7
		c-3.3,0-6-1-8.1-3.1c-2.1-2.1-3.1-4.7-3.1-7.9c0-3.2,1-5.8,3.1-7.9c2-2.1,4.7-3.1,7.9-3.1c3.1,0,5.6,1.1,7.5,3.2
		c1.9,2.2,2.9,4.8,2.9,7.8c0,0.5,0,1.1-0.1,1.6H125.3z M132.5,118c-2,0-3.6,0.6-4.9,1.7c-1.3,1.1-2.1,2.6-2.4,4.4h14
		c-0.3-2-1.1-3.5-2.3-4.5C135.7,118.5,134.2,118,132.5,118z"/>
</g>
<g>
	<path d="M75,166.8l-2.5-4.3h-2.7v4.3h-1.5v-11.3h4.5c1,0,1.8,0.3,2.5,1c0.7,0.7,1,1.5,1,2.5c0,0.7-0.2,1.4-0.7,2
		c-0.4,0.6-1,1-1.7,1.3l2.7,4.5H75z M69.8,156.9v4.2h3c0.6,0,1-0.2,1.4-0.6c0.4-0.4,0.6-0.9,0.6-1.5c0-0.6-0.2-1.1-0.6-1.5
		c-0.4-0.4-0.9-0.6-1.4-0.6H69.8z"/>
	<path d="M79.7,165.4H85v1.4h-6.8v-11.3h6.7v1.4h-5.2v3.5h4.8v1.4h-4.8V165.4z"/>
	<path d="M97.6,161.2v0.7c0,1.5-0.5,2.7-1.5,3.7c-1,1-2.4,1.5-4,1.5c-1.7,0-3.2-0.6-4.3-1.7c-1.1-1.1-1.7-2.5-1.7-4.2s0.6-3,1.7-4.2
		c1.1-1.1,2.5-1.7,4.3-1.7c1,0,2,0.3,2.9,0.8c0.9,0.5,1.5,1.2,2,2l-1.3,0.8c-0.3-0.6-0.8-1.1-1.5-1.5c-0.7-0.4-1.4-0.6-2.2-0.6
		c-1.3,0-2.4,0.4-3.2,1.3c-0.8,0.8-1.2,1.9-1.2,3.2c0,1.3,0.4,2.3,1.3,3.1c0.8,0.8,1.9,1.3,3.2,1.3c1.1,0,2.1-0.3,2.8-0.8
		c0.7-0.6,1.1-1.3,1.3-2.2H92v-1.4H97.6z"/>
	<path d="M99.5,155.5h1.5v11.3h-1.5V155.5z"/>
	<path d="M106.9,167c-1.1,0-2-0.2-2.7-0.7c-0.8-0.5-1.3-1.2-1.6-2l1.3-0.7c0.4,1.4,1.5,2.1,3,2.1c0.8,0,1.4-0.2,1.8-0.5
		c0.4-0.3,0.6-0.7,0.6-1.3c0-0.5-0.2-0.9-0.6-1.2c-0.4-0.3-1.1-0.6-2.1-0.9c-0.5-0.2-0.8-0.3-1.1-0.4c-0.3-0.1-0.6-0.2-0.9-0.4
		c-0.4-0.2-0.7-0.4-0.8-0.6s-0.3-0.5-0.5-0.8c-0.1-0.3-0.2-0.7-0.2-1.1c0-1,0.3-1.8,1-2.3c0.7-0.6,1.5-0.9,2.5-0.9
		c0.9,0,1.7,0.2,2.3,0.7c0.7,0.5,1.2,1.1,1.5,1.8l-1.3,0.7c-0.5-1.2-1.3-1.8-2.6-1.8c-0.6,0-1.1,0.2-1.5,0.5
		c-0.4,0.3-0.6,0.7-0.6,1.2c0,0.5,0.2,0.9,0.5,1.1c0.4,0.3,1,0.5,1.8,0.8c0.3,0.1,0.5,0.2,0.7,0.2c0.1,0,0.3,0.1,0.6,0.2
		c0.3,0.1,0.5,0.2,0.6,0.2c0.1,0.1,0.3,0.2,0.5,0.3c0.2,0.1,0.4,0.2,0.5,0.3c0.1,0.1,0.2,0.2,0.4,0.4c0.1,0.2,0.2,0.3,0.3,0.5
		c0.1,0.2,0.1,0.3,0.2,0.6c0.1,0.2,0.1,0.4,0.1,0.7c0,1-0.4,1.8-1.1,2.4C109,166.7,108.1,167,106.9,167z"/>
	<path d="M119.4,155.5v1.4h-3.4v9.9h-1.5v-9.9h-3.3v-1.4H119.4z"/>
	<path d="M122.4,165.4h5.3v1.4h-6.8v-11.3h6.7v1.4h-5.2v3.5h4.8v1.4h-4.8V165.4z"/>
	<path d="M136.2,166.8l-2.5-4.3H131v4.3h-1.5v-11.3h4.5c1,0,1.8,0.3,2.5,1c0.7,0.7,1,1.5,1,2.5c0,0.7-0.2,1.4-0.7,2
		c-0.4,0.6-1,1-1.7,1.3l2.7,4.5H136.2z M131,156.9v4.2h3c0.6,0,1-0.2,1.4-0.6c0.4-0.4,0.6-0.9,0.6-1.5c0-0.6-0.2-1.1-0.6-1.5
		c-0.4-0.4-0.9-0.6-1.4-0.6H131z"/>
</g>
</svg>
