<svg xmlns="http://www.w3.org/2000/svg" width="24" height="36">
    <defs>
        <linearGradient id="a" x1="70.711%" x2="0%" y1="70.711%" y2="0%">
            <stop offset="0%" stop-color="#F15A2A"/>
            <stop offset="95%" stop-color="#FAA634"/>
        </linearGradient>
    </defs>
    <path fill="#444" fill-rule="evenodd" d="M23.477 32.834H18.78v1.583c0 .872-.702 1.581-1.565 1.581a1.576 1.576 0 0 1-1.566-1.581v-1.583H8.345v1.583c0 .872-.701 1.581-1.566 1.581a1.574 1.574 0 0 1-1.564-1.581v-1.583H.518a.525.525 0 0 1-.522-.527V.528c0-.018 0-.036.003-.053L.001.454c.002-.01.002-.02.006-.03L.011.399A.241.241 0 0 1 .019.374L.026.35l.01-.025C.038.318.043.311.046.303L.057.279C.06.272.066.265.068.258L.083.234.1.213a.121.121 0 0 1 .014-.02C.123.182.134.171.141.161.146.158.146.156.149.154.15.153.153.151.153.149L.186.12A.315.315 0 0 0 .205.105L.228.089.249.075.272.062.294.051.318.04.34.032C.348.029.356.025.366.023L.387.017.415.01.439.007A.236.236 0 0 1 .467.003L.505.001.518 0h22.959l.013.001a.51.51 0 0 1 .039.002l.027.004.022.003.031.007a.219.219 0 0 0 .019.006l.028.009.021.008a.256.256 0 0 0 .024.011l.022.011.023.013.02.014a.098.098 0 0 1 .022.017c.008.004.013.009.021.014l.031.029.006.006a.013.013 0 0 1 .005.006c.012.01.022.021.03.032l.015.02c.005.007.012.014.016.021.003.009.009.017.014.024l.012.021a.256.256 0 0 1 .011.024.077.077 0 0 1 .01.023l.009.024a.117.117 0 0 1 .009.024l.006.025c.001.008.004.016.007.025l.003.03a.078.078 0 0 1 .004.021c.001.017.003.035.003.053v31.779a.525.525 0 0 1-.523.527zm-6.784 1.583c0 .29.235.527.522.527a.525.525 0 0 0 .522-.527v-1.583h-1.044v1.583zm-10.436 0c0 .29.234.527.522.527a.525.525 0 0 0 .522-.527v-1.583H6.257v1.583zM1.707 1.055a14.912 14.912 0 0 1 3.508 9.657.525.525 0 0 1-.523.527.524.524 0 0 1-.521-.527c0-3.258-1.103-6.343-3.131-8.822v21.453h3.131V12.821c0-.291.233-.527.521-.527.289 0 .523.236.523.527v10.522H18.78V10.712c0-3.578 1.238-6.962 3.508-9.657H1.707zm21.249.835a13.857 13.857 0 0 0-3.131 8.822v12.631h3.131V1.89zm0 22.507H1.04v7.383h21.916v-7.383zm-16.177 2.11c.865 0 1.566.709 1.566 1.581 0 .873-.701 1.582-1.566 1.582a1.574 1.574 0 0 1-1.564-1.582c0-.872.701-1.581 1.564-1.581zm0 2.109a.526.526 0 0 0 .522-.528.525.525 0 0 0-.522-.527.525.525 0 0 0-.522.527c0 .291.234.528.522.528zm3.132-2.109h4.173c.289 0 .523.236.523.527v2.109a.524.524 0 0 1-.523.527H9.911a.524.524 0 0 1-.523-.527v-2.109c0-.291.233-.527.523-.527zm.521 2.109h3.131v-1.055h-3.131v1.055zm6.783-2.109c.863 0 1.565.709 1.565 1.581 0 .873-.702 1.582-1.565 1.582a1.576 1.576 0 0 1-1.566-1.582c0-.872.703-1.581 1.566-1.581zm0 2.109a.526.526 0 0 0 .522-.528.525.525 0 0 0-.522-.527.526.526 0 0 0-.522.527c0 .291.235.528.522.528z"/>
    <path fill="url(#a)" d="M23.477 32.834H18.78v1.583c0 .872-.702 1.581-1.565 1.581a1.576 1.576 0 0 1-1.566-1.581v-1.583H8.345v1.583c0 .872-.701 1.581-1.566 1.581a1.574 1.574 0 0 1-1.564-1.581v-1.583H.518a.525.525 0 0 1-.522-.527V.528c0-.018 0-.036.003-.053L.001.454c.002-.01.002-.02.006-.03L.011.399A.241.241 0 0 1 .019.374L.026.35l.01-.025C.038.318.043.311.046.303L.057.279C.06.272.066.265.068.258L.083.234.1.213a.121.121 0 0 1 .014-.02C.123.182.134.171.141.161.146.158.146.156.149.154.15.153.153.151.153.149L.186.12A.315.315 0 0 0 .205.105L.228.089.249.075.272.062.294.051.318.04.34.032C.348.029.356.025.366.023L.387.017.415.01.439.007A.236.236 0 0 1 .467.003L.505.001.518 0h22.959l.013.001a.51.51 0 0 1 .039.002l.027.004.022.003.031.007a.219.219 0 0 0 .019.006l.028.009.021.008a.256.256 0 0 0 .024.011l.022.011.023.013.02.014a.098.098 0 0 1 .022.017c.008.004.013.009.021.014l.031.029.006.006a.013.013 0 0 1 .005.006c.012.01.022.021.03.032l.015.02c.005.007.012.014.016.021.003.009.009.017.014.024l.012.021a.256.256 0 0 1 .011.024.077.077 0 0 1 .01.023l.009.024a.117.117 0 0 1 .009.024l.006.025c.001.008.004.016.007.025l.003.03a.078.078 0 0 1 .004.021c.001.017.003.035.003.053v31.779a.525.525 0 0 1-.523.527zm-6.784 1.583c0 .29.235.527.522.527a.525.525 0 0 0 .522-.527v-1.583h-1.044v1.583zm-10.436 0c0 .29.234.527.522.527a.525.525 0 0 0 .522-.527v-1.583H6.257v1.583zM1.707 1.055a14.912 14.912 0 0 1 3.508 9.657.525.525 0 0 1-.523.527.524.524 0 0 1-.521-.527c0-3.258-1.103-6.343-3.131-8.822v21.453h3.131V12.821c0-.291.233-.527.521-.527.289 0 .523.236.523.527v10.522H18.78V10.712c0-3.578 1.238-6.962 3.508-9.657H1.707zm21.249.835a13.857 13.857 0 0 0-3.131 8.822v12.631h3.131V1.89zm0 22.507H1.04v7.383h21.916v-7.383zm-16.177 2.11c.865 0 1.566.709 1.566 1.581 0 .873-.701 1.582-1.566 1.582a1.574 1.574 0 0 1-1.564-1.582c0-.872.701-1.581 1.564-1.581zm0 2.109a.526.526 0 0 0 .522-.528.525.525 0 0 0-.522-.527.525.525 0 0 0-.522.527c0 .291.234.528.522.528zm3.132-2.109h4.173c.289 0 .523.236.523.527v2.109a.524.524 0 0 1-.523.527H9.911a.524.524 0 0 1-.523-.527v-2.109c0-.291.233-.527.523-.527zm.521 2.109h3.131v-1.055h-3.131v1.055zm6.783-2.109c.863 0 1.565.709 1.565 1.581 0 .873-.702 1.582-1.565 1.582a1.576 1.576 0 0 1-1.566-1.582c0-.872.703-1.581 1.566-1.581zm0 2.109a.526.526 0 0 0 .522-.528.525.525 0 0 0-.522-.527.526.526 0 0 0-.522.527c0 .291.235.528.522.528z"/>
</svg>
