<?xml version="1.0" encoding="utf-8"?>
<!-- Generator: Adobe Illustrator 23.0.3, SVG Export Plug-In . SVG Version: 6.00 Build 0)  -->
<svg version="1.1" id="Layer_1" xmlns="http://www.w3.org/2000/svg" xmlns:xlink="http://www.w3.org/1999/xlink" x="0px" y="0px"
	 viewBox="0 0 170.1 170.1" style="enable-background:new 0 0 170.1 170.1;" xml:space="preserve">
<g>
	<g>
		<path d="M62.2,84.2c-18-17.9-23-21.8-24.4-22.6c-6.2,0.2-17.9,0.2-26.6-7.1C4.5,48.8,1.3,38.8,1.1,31.4C0.9,22.9,3.6,21,6.9,17.9
			c4.8,4.8,13.1,13.3,16.3,16.7C29.4,34.5,33.9,31,36.7,24c-6.4-6.9-9-7.2-17.4-19.9l5-0.9C36,1.2,48.5,7.2,55.7,12.9
			c11.4,9.1,7.6,22,7.5,27.1c2.9,2.9,11.1,11.1,21.6,21.5l-4.7,4.8c-3.9-3.8-19.3-19.2-23.1-23.1c-1.6-7.1,4.1-17.5-5.5-25.1
			c-5.1-4.1-12.5-7.8-19.8-8.5c5.4,5.7,8.4,7.6,12.5,13.1C40,35.2,33.6,42,20.3,41.2c-3.9-4-8.6-8.9-12.3-12.7
			c-0.7,6,1.9,16,7.6,20.9c7.1,6,17.2,5.7,22.7,5.5c1.9-0.1,3.8-0.1,28.7,24.6L62.2,84.2z M38.5,61.5C38.5,61.5,38.5,61.5,38.5,61.5
			C38.5,61.5,38.5,61.5,38.5,61.5z"/>
		<path d="M114.1,157.2c-11.9-9.5-7.4-23.2-7.5-27.6c-0.5-0.5-10.2-10.6-13.8-14.4l4.8-4.7c0.4,0.4,14.2,14.7,14.5,15.1
			c3.9,5.1-4.6,17.6,6.2,26.2c5.1,4.1,12.5,7.7,19.7,8.5c-5.3-5.7-8.4-7.6-12.5-13.1c4-11.9,10.3-19.3,24-18.4
			c3.2,3.4,5.9,6.1,12.3,12.7c0.7-5.9-1.8-16-7.6-20.8c-10.2-8.6-18.2-4.7-23-5.6c-1.4-0.3-1.7-0.3-31.6-29.6l4.7-4.8
			c20.9,20.5,27,26.3,28.7,27.8c0.6,0,1.4-0.1,2.1-0.1c33.1-2.3,38.2,33.9,30.1,41.5l-2.4,2.3c-9.1-9.4-12.8-13.1-16.3-16.7
			c-6.1,0.1-10.6,3.6-13.5,10.6c6,6.5,9,7.2,17.4,19.9C146.6,166.7,131.6,171.2,114.1,157.2z M106.6,129.3L106.6,129.3L106.6,129.3z
			"/>
		<path d="M82.4,104.6c-0.3-0.3-0.7-0.7-1-1.1l5.1-4.3c0.2,0.2,0.4,0.5,0.7,0.7L82.4,104.6z"/>
		<g>
			<path d="M141.9,73.6l-15.2-15.2l2.3-8.1l2.9-2.9c0.1-0.1,0.1-0.1,0.2-0.2l-24.1-24.1l14.5-14.5l3.3,1.5c5.4-2.9,18.2-7.1,31.4,6
				c19.4,19.4,5.6,36.5-13,55.2L141.9,73.6z M134.3,56.5l7.6,7.6c20.6-21.2,22.8-31.1,10.7-43.3c-10.9-10.9-20.9-6.5-24.7-4.1
				l-1.5,0.9l-2.3-1l-6.5,6.5l18.6,18.6c1-0.1,2-0.1,3,0.1l4.2,0.9l-2,3.9c-0.8,1.5-2.2,2.9-4.8,5.5l-1.7,1.6L134.3,56.5z"/>
			<path d="M19.7,163.1c-3.9,0-8-1.8-11.2-5c-3.4-3.3-5.3-7.6-5.3-11.7c0-8.4,0-8.4,44.2-52.3c11.1-11.1,25.2-25,42.8-42.6l6.3-16.7
				l10-10l26.6,26.6l-1.9,6.5l18.8,18.8l-19.2,19.2l-3.6-3.5l-9.9,9.9l-2-2c-0.6,0.6-1.2,1.2-1.9,1.9c-6.3,6.5-14.9,15.3-22.9,15.4
				c-2.8-0.1-5.2-1-7.1-2.9c-1.1-1.1-2.4-2.9-3-5.2c-7.6,7.6-14,14.1-19.5,19.6c-32.4,32.7-33.7,33.9-41.2,34
				C19.8,163.1,19.8,163.1,19.7,163.1z M102.3,38.4L96,55.1l-0.5,0.5c-17.9,17.9-32,31.9-43.3,43.1C11.2,139.5,10,140.9,10,146.3
				c0,2.3,1.2,4.9,3.3,7c2,2,4.3,3,6.5,3.1c4.6,0,5.9-1.2,36.5-32c7.7-7.8,17.3-17.4,29.2-29.4l5,4.5c-5.6,7-3,9.6-2.2,10.4
				c0.7,0.7,1.3,1,2.3,1c5.1,0,13.4-8.5,18-13.2L95.7,84.8l6.9-6.9l14.8,14.8l3.1-3.1l-14.9-14.8l6.9-6.9l11,11
				c5.1,5.1,6.1,6.1,7.3,7.3l9.7-9.7l-16.9-16.9l1.9-6.5l-19.1-19.1L102.3,38.4z"/>
		</g>
	</g>
</g>
</svg>
