<?xml version="1.0" standalone="no"?>
<!DOCTYPE svg PUBLIC "-//W3C//DTD SVG 20010904//EN"
 "http://www.w3.org/TR/2001/REC-SVG-20010904/DTD/svg10.dtd">
<svg version="1.0" xmlns="http://www.w3.org/2000/svg"
 width="700.000000pt" height="700.000000pt" viewBox="0 0 700.000000 700.000000"
 preserveAspectRatio="xMidYMid meet">
<metadata>
Created by potrace 1.11, written by Peter Selinger 2001-2013
</metadata>
<g transform="translate(0.000000,700.000000) scale(0.100000,-0.100000)"
fill="#000000" stroke="none">
<path d="M252 3455 c0 -2578 2 -3395 11 -3396 15 0 1224 0 1253 0 l21 1 1
2208 c0 1214 1 2224 1 2246 1 38 1 38 24 22 12 -9 38 -25 57 -36 19 -12 65
-40 102 -63 37 -23 107 -66 155 -96 49 -30 187 -116 308 -191 121 -75 313
-194 426 -264 l206 -127 -1 -615 c-1 -401 2 -615 9 -617 9 -3 1353 -1 1365 2
3 0 5 278 5 616 l-1 615 226 139 c124 76 347 214 495 306 149 92 284 176 301
185 17 10 78 48 136 84 57 36 108 66 114 66 5 0 9 -839 8 -2240 l0 -2240 40
-1 c48 0 1142 0 1203 0 l42 1 0 3395 c0 1867 -2 3395 -4 3395 -5 0 -190 -112
-375 -227 -80 -49 -293 -181 -475 -293 -181 -112 -352 -217 -380 -235 -27 -18
-83 -52 -123 -76 -40 -24 -94 -57 -121 -74 -156 -97 -326 -202 -349 -216 -47
-27 -715 -440 -752 -464 -19 -12 -154 -95 -300 -185 -146 -89 -289 -178 -318
-197 -29 -18 -56 -32 -60 -30 -24 14 -417 255 -702 432 -184 114 -348 215
-365 225 -16 9 -80 48 -141 86 -61 38 -119 74 -130 81 -54 32 -456 281 -499
308 -27 18 -192 119 -365 225 -173 107 -346 214 -385 238 -38 25 -83 53 -100
62 -16 10 -133 82 -260 160 -229 142 -292 180 -299 180 -3 0 -4 -1528 -4
-3395z"/>
<path d="M2819 1400 c-4 -135 0 -1332 4 -1336 4 -5 1132 -8 1335 -5 l32 1 0
680 c0 374 -3 680 -7 681 -5 0 -313 2 -686 2 l-677 2 -1 -25z"/>
</g>
</svg>
