<?xml version="1.0" encoding="utf-8"?>
<!-- Generator: Adobe Illustrator 23.0.3, SVG Export Plug-In . SVG Version: 6.00 Build 0)  -->
<svg version="1.1" id="Layer_1" xmlns="http://www.w3.org/2000/svg" xmlns:xlink="http://www.w3.org/1999/xlink" x="0px" y="0px"
	 viewBox="0 0 170.1 170.1" style="enable-background:new 0 0 170.1 170.1;" xml:space="preserve">
<g>
	<path d="M69.8,57.9H55c-1.6,0-2.9-1.3-2.9-2.9V10.7c0-1.6,1.3-2.9,2.9-2.9h29.5c1.6,0,2.9,1.3,2.9,2.9v29.5c0,0.8-0.3,1.5-0.9,2.1
		L71.8,57C71.3,57.6,70.5,57.9,69.8,57.9z M58,52h10.6l13-13V13.7H58V52z M84.5,40.2L84.5,40.2L84.5,40.2z"/>
	<path d="M122.8,31.4H84.5c-1.6,0-2.9-1.3-2.9-2.9c0-1.6,1.3-2.9,2.9-2.9h38.3c1.6,0,2.9,1.3,2.9,2.9
		C125.8,30,124.5,31.4,122.8,31.4z"/>
	<path d="M164.1,143.4H4.9c-1.6,0-2.9-1.3-2.9-2.9V69.7c0-0.1,0-0.1,0-0.2c0-0.7,0.3-1.4,0.8-1.9l0,0c0,0,0,0,0,0l0,0c0,0,0,0,0,0
		l0,0c0,0,0,0,0,0h0c0,0,0,0,0,0c0,0,0,0,0,0v0c0,0,0,0,0,0c0,0,0,0,0,0h0c0,0,0,0,0,0l0,0c0,0,0,0,0,0c0,0,0,0,0,0c0,0,0,0,0,0
		c0,0,0,0,0,0c0,0,0,0,0,0s0,0,0,0v0c0,0,0,0,0,0l0,0c0,0,0,0,0,0c0,0,0,0,0,0c0,0,0,0,0,0c0,0,0,0,0,0l0,0l41.3-41.3
		c0.6-0.6,1.3-0.9,2.1-0.9H55c1.6,0,2.9,1.3,2.9,2.9c0,1.6-1.3,2.9-2.9,2.9h-7.6L12,66.7h68.3l40.4-40.4c1.1-1.1,3.1-1.1,4.2,0
		l41.3,41.3c0.6,0.6,0.9,1.3,0.9,2.1v70.8C167.1,142.1,165.8,143.4,164.1,143.4z M7.8,137.5h153.3V70.9l-38.3-38.3L83.6,71.8
		c-0.6,0.6-1.3,0.9-2.1,0.9H7.8V137.5z"/>
	<path d="M69.8,57.9c-1.6,0-2.9-1.3-2.9-2.9V10.7c0-1.6,1.3-2.9,2.9-2.9s2.9,1.3,2.9,2.9v44.2C72.7,56.6,71.4,57.9,69.8,57.9z"/>
	<path d="M81.6,143.4c-1.6,0-2.9-1.3-2.9-2.9V69.7c0-1.6,1.3-2.9,2.9-2.9s2.9,1.3,2.9,2.9v70.8C84.5,142.1,83.2,143.4,81.6,143.4z"
		/>
	<path d="M69.8,125.7H16.7c-1.6,0-2.9-1.3-2.9-2.9V93.3c0-1.6,1.3-2.9,2.9-2.9h53.1c1.6,0,2.9,1.3,2.9,2.9v29.5
		C72.7,124.4,71.4,125.7,69.8,125.7z M19.6,119.8h47.2V96.2H19.6V119.8z"/>
	<path d="M69.8,111H16.7c-1.6,0-2.9-1.3-2.9-2.9s1.3-2.9,2.9-2.9h53.1c1.6,0,2.9,1.3,2.9,2.9S71.4,111,69.8,111z"/>
	<path d="M34.4,125.7c-1.6,0-2.9-1.3-2.9-2.9V93.3c0-1.6,1.3-2.9,2.9-2.9s2.9,1.3,2.9,2.9v29.5C37.3,124.4,36,125.7,34.4,125.7z"/>
	<path d="M52.1,125.7c-1.6,0-2.9-1.3-2.9-2.9V93.3c0-1.6,1.3-2.9,2.9-2.9s2.9,1.3,2.9,2.9v29.5C55,124.4,53.7,125.7,52.1,125.7z"/>
	<path d="M140.5,128.7h-35.4c-1.6,0-2.9-1.3-2.9-2.9V96.2c0-1.6,1.3-2.9,2.9-2.9h35.4c1.6,0,2.9,1.3,2.9,2.9s-1.3,2.9-2.9,2.9h-32.4
		v23.6h32.4c1.6,0,2.9,1.3,2.9,2.9S142.2,128.7,140.5,128.7z"/>
	<path d="M140.5,113.9h-35.4c-1.6,0-2.9-1.3-2.9-2.9s1.3-2.9,2.9-2.9h35.4c1.6,0,2.9,1.3,2.9,2.9S142.2,113.9,140.5,113.9z"/>
	<path d="M122.8,128.7c-1.6,0-2.9-1.3-2.9-2.9V96.2c0-1.6,1.3-2.9,2.9-2.9s2.9,1.3,2.9,2.9v29.5
		C125.8,127.4,124.5,128.7,122.8,128.7z"/>
	<path d="M140.5,128.7c-1.6,0-2.9-1.3-2.9-2.9V96.2c0-1.6,1.3-2.9,2.9-2.9s2.9,1.3,2.9,2.9v29.5
		C143.5,127.4,142.2,128.7,140.5,128.7z"/>
	<path d="M140.5,84.4h-35.4c-1.6,0-2.9-1.3-2.9-2.9v-5.9c0-11.4,9.3-20.6,20.6-20.6s20.6,9.3,20.6,20.6v5.9
		C143.5,83.1,142.2,84.4,140.5,84.4z M108.1,78.5h29.5v-2.9c0-8.1-6.6-14.7-14.7-14.7s-14.7,6.6-14.7,14.7V78.5z"/>
	<path d="M122.8,84.4c-1.6,0-2.9-1.3-2.9-2.9V57.9c0-1.6,1.3-2.9,2.9-2.9s2.9,1.3,2.9,2.9v23.6C125.8,83.1,124.5,84.4,122.8,84.4z"
		/>
</g>
</svg>
