<?xml version="1.0" encoding="utf-8"?>
<!-- Generator: Adobe Illustrator 23.0.3, SVG Export Plug-In . SVG Version: 6.00 Build 0)  -->
<svg version="1.1" id="Layer_1" xmlns="http://www.w3.org/2000/svg" xmlns:xlink="http://www.w3.org/1999/xlink" x="0px" y="0px"
	 viewBox="0 0 170.1 170.1" style="enable-background:new 0 0 170.1 170.1;" xml:space="preserve">
<g>
	<path d="M135.2,139.8H44.5v-122l1.5-1c29.1-18.7,58.6-18.7,87.6,0l1.5,1V139.8z M51.1,133.2h77.5V21.4c-26-16.1-51.4-16.1-77.5,0
		V133.2z"/>
	<rect x="47.8" y="16.3" width="84.1" height="6.6"/>
	<path d="M89.8,64.8c-9.6,0-17.4-7.8-17.4-17.4c0-9.6,7.8-17.4,17.4-17.4c9.6,0,17.4,7.8,17.4,17.4C107.2,57,99.4,64.8,89.8,64.8z
		 M89.8,36.6c-5.9,0-10.8,4.8-10.8,10.8s4.8,10.8,10.8,10.8c5.9,0,10.8-4.8,10.8-10.8S95.8,36.6,89.8,36.6z"/>
	<path d="M89.8,51.4c-2.2,0-4-1.8-4-4c0-2.2,1.8-4,4-4c2.2,0,4,1.8,4,4C93.8,49.6,92,51.4,89.8,51.4z M89.8,44.8
		c-1.4,0-2.6,1.2-2.6,2.6c0,1.4,1.2,2.6,2.6,2.6c1.4,0,2.6-1.2,2.6-2.6C92.5,46,91.3,44.8,89.8,44.8z"/>
	<path d="M89.8,157.8c-17.6,0-31.4-9.4-31.4-21.3H65c0,8,11.4,14.7,24.8,14.7c13.4,0,24.8-6.7,24.8-14.7h6.6
		C121.2,148.5,107.4,157.8,89.8,157.8z"/>
	<g>
		<rect x="75.2" y="140.6" width="20.8" height="6.6"/>
		<rect x="98.3" y="140.6" width="6.2" height="6.6"/>
	</g>
	<polygon points="86.8,168.1 72.9,168.1 72.9,152.3 79.5,152.3 79.5,161.5 80.1,161.5 80.1,154.1 86.8,154.1 	"/>
	<polygon points="106.8,168.1 92.9,168.1 92.9,154.1 99.5,154.1 99.5,161.5 100.2,161.5 100.2,152.3 106.8,152.3 	"/>
	<rect x="88" y="40.4" transform="matrix(0.5937 -0.8046 0.8046 0.5937 2.3969 92.2254)" width="9.1" height="6.6"/>
</g>
</svg>
