<?xml version="1.0" encoding="utf-8"?>
<!-- Generator: Adobe Illustrator 23.0.3, SVG Export Plug-In . SVG Version: 6.00 Build 0)  -->
<svg version="1.1" id="Layer_1" xmlns="http://www.w3.org/2000/svg" xmlns:xlink="http://www.w3.org/1999/xlink" x="0px" y="0px"
	 width="272px" height="110px" viewBox="0 0 272 110" style="enable-background:new 0 0 272 110;" xml:space="preserve">
<path style="fill:#EA4335;" d="M115.8,47.2c0,12.8-10,22.2-22.3,22.2S71.3,60,71.3,47.2c0-12.9,10-22.2,22.3-22.2
	S115.8,34.3,115.8,47.2z M106,47.2c0-8-5.8-13.4-12.5-13.4S81,39.2,81,47.2c0,7.9,5.8,13.4,12.5,13.4S106,55.1,106,47.2z"/>
<path style="fill:#FBBC05;" d="M163.8,47.2c0,12.8-10,22.2-22.3,22.2s-22.3-9.4-22.3-22.2c0-12.8,10-22.2,22.3-22.2
	S163.8,34.3,163.8,47.2z M154,47.2c0-8-5.8-13.4-12.5-13.4S129,39.2,129,47.2c0,7.9,5.8,13.4,12.5,13.4S154,55.1,154,47.2z"/>
<path style="fill:#4285F4;" d="M209.8,26.3v39.8c0,16.4-9.7,23.1-21.1,23.1c-10.8,0-17.2-7.2-19.7-13.1l8.5-3.5
	c1.5,3.6,5.2,7.9,11.2,7.9c7.3,0,11.8-4.5,11.8-13v-3.2h-0.3c-2.2,2.7-6.4,5-11.7,5c-11.1,0-21.3-9.7-21.3-22.1
	c0-12.5,10.2-22.3,21.3-22.3c5.3,0,9.5,2.4,11.7,5h0.3v-3.6L209.8,26.3L209.8,26.3z M201.2,47.3c0-7.8-5.2-13.5-11.8-13.5
	c-6.7,0-12.4,5.7-12.4,13.5c0,7.7,5.6,13.4,12.4,13.4C196,60.6,201.2,55,201.2,47.3z"/>
<path style="fill:#34A853;" d="M225,3v65h-9.5V3H225z"/>
<path style="fill:#EA4335;" d="M262,54.5l7.6,5c-2.4,3.6-8.3,9.8-18.5,9.8c-12.6,0-22-9.7-22-22.2C229.1,34,238.6,25,250,25
	c11.5,0,17.1,9.2,19,14.1l1,2.5l-29.6,12.3c2.3,4.5,5.8,6.7,10.8,6.7C256.1,60.6,259.5,58.2,262,54.5L262,54.5z M238.7,46.5
	l19.8-8.2c-1.1-2.8-4.4-4.7-8.2-4.7C245.4,33.6,238.5,37.9,238.7,46.5z"/>
<path style="fill:#4285F4;" d="M35.3,41.4V32H67c0.3,1.6,0.5,3.6,0.5,5.7c0,7.1-1.9,15.8-8.2,22c-6,6.3-13.8,9.7-24,9.7
	c-19,0-34.9-15.5-34.9-34.4s16-34.4,34.9-34.4c10.5,0,18,4.1,23.6,9.5l-6.6,6.6c-4-3.8-9.5-6.7-17-6.7c-13.9,0-24.7,11.2-24.7,25
	s10.8,25,24.7,25c9,0,14.1-3.6,17.4-6.9c2.7-2.7,4.4-6.5,5.1-11.7L35.3,41.4z"/>
<g>
	<path style="fill:#6F7073;" d="M33.1,108.3c-1.7,0-3.2,0.1-4.7,0c-0.4,0-1-0.4-1.2-0.8c-1.2-2-2.3-4-3.4-6c-0.5-0.9-3.1-1.6-3.9-1
		c-0.2,0.2-0.2,0.6-0.2,1c0,1.9-0.1,3.9,0,5.8c0,0.9-0.3,1.1-1.1,1c-1.2-0.1-2.9,0.4-3.5-0.3c-0.6-0.6-0.3-2.3-0.3-3.5
		c0-5.9,0-11.8,0-17.7c0-1,0.3-1.2,1.2-1.2c3.4,0.1,6.7,0,10.1,0.1c5.5,0.2,8.9,6,6.1,10.8c-0.7,1.2-1.9,2.1-3.1,2.8
		c-0.7,0.5-0.8,0.7-0.4,1.4c1.2,2,2.4,4,3.6,6C32.5,107.2,32.7,107.7,33.1,108.3z M22.7,96.1c1-0.1,2,0,3-0.2
		c1.6-0.3,2.5-1.6,2.4-3.2c-0.1-1.5-1.2-2.5-2.8-2.7c-0.9-0.1-1.8,0-2.7,0c-2.9,0-2.9,0-2.9,3C19.6,96.1,19.6,96.1,22.7,96.1z"/>
	<path style="fill:#6F7073;" d="M104.8,102.5c1-2.9,1.9-5.8,2.9-8.7c0.2-0.6,0.5-1.6,0.9-1.7c1.1-0.2,2.2-0.1,3.4,0
		c0.2,0,0.4,0.6,0.5,1c1,2.8,1.9,5.7,2.8,8.5c0.1,0.3,0.2,0.6,0.5,1.2c0.9-3.3,1.8-6.4,2.6-9.4c0.3-1,0.6-1.5,1.7-1.3
		c1,0.1,2,0,3.2,0c-0.3,1-0.6,1.9-0.8,2.7c-1.3,4.2-2.6,8.4-3.8,12.6c-0.2,0.8-0.6,1-1.4,1c-3.5,0-3.5,0-4.6-3.4
		c-0.7-2.3-1.5-4.7-2.2-7c0-0.1-0.1-0.1-0.3-0.4c-0.4,1.1-0.7,2.1-1,3.1c-0.7,2.2-1.4,4.3-2,6.5c-0.2,0.8-0.5,1.2-1.5,1.1
		c-3.5,0-3.5,0-4.6-3.3c-1.2-4-2.4-8-3.7-11.9c-0.3-0.9-0.1-1.1,0.8-1.1c3.4,0,3.4,0,4.3,3.3c0.7,2.4,1.3,4.8,2,7.2
		C104.6,102.4,104.7,102.4,104.8,102.5z"/>
	<path style="fill:#6F7073;" d="M45.2,101.5c-1.7,0-3.4,0-5.2,0c-0.8,0-0.9,0.2-0.7,1c0.8,2.2,3.1,3.4,5.6,2.8
		c0.7-0.1,1.3-0.4,1.9-0.7c0.5-0.2,1.3-0.7,1.4-0.6c0.7,0.7,1.2,1.6,1.7,2.4c0.1,0.1-0.2,0.5-0.4,0.6c-3.1,2.3-9.6,3.1-13-1.1
		c-3.1-3.8-2.5-9.9,1.3-12.8c2.6-1.9,5.5-2.3,8.5-1.1c3,1.2,4.4,3.7,4.8,6.7c0.3,2.6,0.3,2.6-2.3,2.6
		C47.6,101.5,46.4,101.5,45.2,101.5z M43,98.5c1.1,0,2.2,0,3.2,0c0.7,0,0.9-0.2,0.7-0.9C46.4,96,45,94.9,43,94.9
		c-1.9,0-3.3,1.1-3.8,2.7c-0.2,0.6-0.1,0.9,0.7,0.9C40.9,98.5,42,98.5,43,98.5z"/>
	<path style="fill:#6F7073;" d="M89.8,101.5c-1.7,0-3.4,0-5.2,0c-0.8,0-0.9,0.3-0.6,1c0.8,2.2,3.2,3.4,5.8,2.8
		c0.8-0.2,1.6-0.6,2.3-1c0.7-0.4,0.9-0.3,1.2,0.3c1.6,2.3,1.5,2.6-1.1,3.6c-4.4,1.7-9,0.7-11.4-2.6c-2.5-3.4-2.1-8.9,1-11.7
		c3.1-2.9,8-3.1,11.2-0.4c2.3,1.9,3,4.6,2.9,7.4c0,0.2-0.6,0.7-0.9,0.7C93.2,101.5,91.5,101.5,89.8,101.5z M87.7,98.5
		c1.1,0,2.2,0,3.2,0c0.7,0,0.7-0.2,0.6-0.8c-0.4-1.7-1.9-2.8-3.8-2.8c-1.9,0-3.5,1.1-3.8,2.8c0,0.2,0.4,0.8,0.6,0.8
		C85.5,98.6,86.6,98.5,87.7,98.5z"/>
	<path style="fill:#6F7073;" d="M131.7,108.9c-2.8-0.1-5-0.6-7-1.9c-0.6-0.4-0.8-0.8-0.3-1.4c0.1-0.1,0.1-0.1,0.1-0.2
		c1.1-1.9,1.1-1.8,3-0.9c1.6,0.8,3.3,1.5,5.1,0.9c0.6-0.2,1.1-1,1.7-1.5c-0.5-0.5-1-1.2-1.6-1.4c-1.5-0.5-3.1-0.7-4.6-1.2
		c-2.5-0.8-3.6-2.2-3.7-4.5c-0.1-2.1,1.3-4,3.5-4.8c3.2-1.1,6.2-0.6,9.1,1.1c0.7,0.4,0.8,0.9,0.3,1.5c0,0,0,0.1-0.1,0.1
		c-0.3,0.6-0.6,1.4-1.1,1.7c-0.4,0.2-1.1-0.5-1.7-0.8c-1.4-0.6-2.9-1.2-4.4-0.6c-0.6,0.2-1,0.9-1.5,1.4c0.5,0.4,0.9,1,1.4,1.2
		c1.3,0.4,2.7,0.6,4.1,1c2.7,0.7,4.1,2.3,4.3,4.5c0.2,2.7-1.4,4.8-4.3,5.5C133.2,108.8,132.2,108.8,131.7,108.9z"/>
	<path style="fill:#FBB005;" d="M161,108.3c-1.7-0.8-3.3-1.6-4.8-2.2c-0.5-0.2-1.2-0.2-1.7,0c-1.6,0.6-3.1,1.4-4.8,2.2
		c0.2-1.9,0.5-3.5,0.6-5.2c0-0.6-0.2-1.4-0.6-1.9c-0.8-1-1.7-1.9-2.6-2.8c-0.3-0.3-0.4-0.6-0.6-1c0.3-0.1,0.7-0.2,1-0.3
		c1.2-0.3,2.4-0.6,3.6-0.7c1.1-0.1,1.6-0.6,2-1.5c0.7-1.4,1.5-2.7,2.3-4.3c0.9,1.7,1.7,3.2,2.6,4.6c0.3,0.5,0.9,0.9,1.5,1.1
		c1.3,0.4,2.7,0.6,4.1,0.8c1,0.1,0.9,0.5,0.3,1.1c-1,1-2,2.1-3,3.2c-0.3,0.4-0.5,1-0.5,1.5C160.5,104.6,160.8,106.3,161,108.3z"/>
	<path style="fill:#FBB005;" d="M171.4,108.3c0.2-1.8,0.3-3.5,0.6-5.1c0.2-0.9-0.1-1.4-0.7-2c-1.1-1.2-2.2-2.4-3.5-3.7
		c1.9-0.4,3.6-0.7,5.2-1.1c0.5-0.1,1.1-0.6,1.4-1c0.9-1.4,1.7-3,2.6-4.7c0.9,1.7,1.7,3.2,2.6,4.7c0.3,0.5,0.9,0.9,1.4,1
		c1.6,0.4,3.3,0.7,5.2,1.1c-1.3,1.4-2.4,2.6-3.5,3.7c-0.6,0.6-0.8,1.1-0.7,2c0.3,1.6,0.4,3.3,0.6,5.1c-1.7-0.8-3.3-1.6-4.9-2.3
		c-0.5-0.2-1.1-0.2-1.6,0C174.7,106.7,173.1,107.5,171.4,108.3z"/>
	<path style="fill:#FBB005;" d="M189.6,97.4c1.9-0.4,3.6-0.7,5.3-1.1c0.5-0.1,1-0.5,1.3-0.9c0.9-1.5,1.7-3,2.6-4.7
		c0.9,1.6,1.7,3,2.5,4.5c0.4,0.7,0.8,1.2,1.7,1.3c1.6,0.2,3.2,0.6,5.1,1c-1.3,1.3-2.3,2.5-3.4,3.7c-0.6,0.6-0.9,1.2-0.7,2.1
		c0.3,1.6,0.4,3.3,0.6,5.1c-1.6-0.8-3.1-1.4-4.5-2.2c-0.8-0.4-1.4-0.5-2.3,0c-1.4,0.8-2.9,1.4-4.6,2.2c0.2-1.9,0.5-3.6,0.6-5.3
		c0-0.5-0.2-1.2-0.5-1.6C192.1,100,190.9,98.8,189.6,97.4z"/>
	<path style="fill:#FBB005;" d="M214.9,108.3c0.2-1.8,0.3-3.5,0.6-5.1c0.2-0.9-0.1-1.4-0.7-2c-1.1-1.2-2.2-2.4-3.5-3.7
		c1.9-0.4,3.6-0.7,5.2-1.1c0.5-0.1,1.1-0.6,1.4-1c0.9-1.4,1.7-3,2.6-4.7c0.9,1.7,1.7,3.2,2.6,4.7c0.3,0.5,0.9,0.9,1.4,1
		c1.6,0.4,3.3,0.7,5.2,1.1c-1.3,1.4-2.4,2.6-3.5,3.7c-0.6,0.6-0.8,1.2-0.7,2c0.3,1.6,0.4,3.3,0.6,5.1c-1.7-0.8-3.3-1.6-4.9-2.3
		c-0.5-0.2-1.1-0.2-1.6,0C218.2,106.7,216.6,107.5,214.9,108.3z"/>
	<path style="fill:#FBB005;" d="M242.3,90.7c1,1.8,1.8,3.3,2.6,4.7c0.3,0.4,0.8,0.8,1.3,0.9c1.4,0.4,2.7,0.6,4.1,0.8
		c0.3,0.1,0.6,0.2,0.9,0.3c-0.2,0.3-0.3,0.6-0.5,0.9c-0.9,1-2,2-2.8,3.1c-0.3,0.4-0.5,1-0.4,1.5c0.1,1.7,0.4,3.4,0.6,5.3
		c-1.7-0.8-3.2-1.6-4.8-2.2c-0.5-0.2-1.2-0.2-1.7,0c-1.6,0.6-3.1,1.4-4.8,2.2c0.2-1.9,0.5-3.6,0.6-5.4c0-0.5-0.1-1.2-0.5-1.5
		c-0.9-1.1-1.9-2.1-2.9-3.2c-0.6-0.6-0.7-0.9,0.3-1.1c0.6-0.1,1.2-0.3,1.7-0.3c2.6-0.1,4.3-1.3,5.1-3.7
		C241.3,92.4,241.8,91.6,242.3,90.7z"/>
	<path style="fill:#6F7073;" d="M61.1,102.9c1.2-3.2,2.5-6.5,3.7-9.7c0.3-0.8,0.7-1.3,1.6-1.2c1.1,0.1,2.2,0,3.5,0
		c-1.6,4.1-3.2,8-4.8,11.9c-0.2,0.4-0.3,0.8-0.4,1.1c-1.5,3.6-1.5,3.6-5.4,3.2c-0.3,0-0.8-0.4-0.9-0.7c-2-4.9-4-9.8-6-14.7
		C52,92.1,52.3,92,53,92c3.6-0.1,3.6-0.1,4.8,3.2c1,2.6,1.9,5.1,2.9,7.7C60.9,102.9,61,102.9,61.1,102.9z"/>
	<path style="fill:#6F7073;" d="M71.8,100.1c0-2.4,0-4.7,0-7.1c0-0.7,0.1-1,0.9-1c3.4-0.1,3.4-0.1,3.4,3.3c0,3.9,0,7.9,0,11.8
		c0,0.9-0.1,1.3-1.1,1.3c-3.2,0-3.2,0-3.2-3.2C71.8,103.4,71.8,101.8,71.8,100.1z"/>
	<path style="fill:#6F7073;" d="M73.8,90.1c-1.4,0-2.6-1.2-2.5-2.6c0-1.4,1.2-2.5,2.6-2.5c1.4,0,2.6,1.2,2.5,2.6
		C76.4,89,75.2,90.1,73.8,90.1z"/>
</g>
</svg>
