<svg xmlns="http://www.w3.org/2000/svg" width="32" height="32">
    <path fill="#f15a2a" fill-rule="evenodd" d="M25.587 12.795a6.234 6.234 0 0 1-1.248-.129l-2.795 2.794 1.222 1.222a.534.534 0 0 1 0 .754l-.267.267-.001.001a.597.597 0 1 0 .847.844l.266-.267a.534.534 0 0 1 .754 0l6.359 6.358.027.028a4.301 4.301 0 1 1-6.111 6.056l-6.359-6.358a.534.534 0 0 1 0-.754l.266-.266.001-.001a.597.597 0 0 0-.846-.845l-.267.267a.534.534 0 0 1-.754 0l-1.222-1.222-2.795 2.794c.085.411.129.83.13 1.249a6.396 6.396 0 0 1-6.397 6.396 6.396 6.396 0 1 1 0-12.792c.42.002.838.045 1.249.13L19.32 7.648a6.363 6.363 0 0 1 .066-2.833A6.376 6.376 0 0 1 27.133.199a.534.534 0 0 1 .25.894l-3.318 3.319.878 2.632 2.633.877 3.318-3.316a.533.533 0 0 1 .894.249 6.375 6.375 0 0 1-6.201 7.941zm2.095 18.122a3.231 3.231 0 0 0 3.029-4.369l-4.163 4.163c.363.136.747.206 1.134.206zm-10.621-9.276a1.663 1.663 0 0 1 2.346 2.342l5.986 5.987c.065.065.134.125.204.184l4.558-4.557a3.241 3.241 0 0 0-.185-.204l-5.982-5.986a1.664 1.664 0 0 1-2.345-2.342l-.853-.851-4.582 4.574.853.853zM30.908 6.097l-2.811 2.811a.533.533 0 0 1-.546.129l-3.198-1.066a.537.537 0 0 1-.338-.337l-1.066-3.198a.535.535 0 0 1 .129-.545l2.812-2.813a5.305 5.305 0 0 0-5.468 6.609.534.534 0 0 1-.14.507L8.192 20.282a.536.536 0 0 1-.506.141 5.366 5.366 0 1 0 0 10.4 5.366 5.366 0 0 0 3.876-6.524.533.533 0 0 1 .141-.506l12.092-12.089h-.002a.532.532 0 0 1 .506-.141 5.303 5.303 0 0 0 6.609-5.466zM9.752 21.479L21.479 9.753l.754.754-11.727 11.726-.754-.754zm.3 4.383l-1.599 2.665a.532.532 0 0 1-.457.258H4.798a.533.533 0 0 1-.457-.258l-1.599-2.665a.53.53 0 0 1 0-.549l1.599-2.665a.532.532 0 0 1 .457-.259h3.198a.53.53 0 0 1 .457.259l1.599 2.665a.53.53 0 0 1 0 .549zm-2.357-2.407H5.1l-1.28 2.132 1.28 2.132h2.595l1.279-2.132-1.279-2.132zm19.869 3.354l-.754.754-5.33-5.33.753-.754 5.331 5.33zM6.555 5.177a.53.53 0 0 1-.14-.248l-.48-1.911-3.18-1.817-1.557 1.556 1.816 3.179 1.911.479c.094.024.18.072.248.141l6.93 6.928-.754.754-6.823-6.822-1.99-.498a.53.53 0 0 1-.333-.252L.071 2.935a.532.532 0 0 1 .091-.641L2.294.162a.534.534 0 0 1 .64-.086l3.731 2.132a.53.53 0 0 1 .253.334l.497 1.988 6.824 6.822-.754.754-6.93-6.929z"/>
</svg>
