<?xml version="1.0" encoding="utf-8"?>
<!-- Generator: Adobe Illustrator 23.0.3, SVG Export Plug-In . SVG Version: 6.00 Build 0)  -->
<svg version="1.1" id="Layer_1" xmlns="http://www.w3.org/2000/svg" xmlns:xlink="http://www.w3.org/1999/xlink" x="0px" y="0px"
	 viewBox="0 0 170.1 170.1" style="enable-background:new 0 0 170.1 170.1;" xml:space="preserve">
<g>
	<path d="M94.9,108.4H77.6c-1.6,0-2.9-1.3-2.9-2.9V88.2c0-1.6,1.3-2.9,2.9-2.9h17.3c1.6,0,2.9,1.3,2.9,2.9v17.3
		C97.7,107.1,96.5,108.4,94.9,108.4z M80.5,102.6H92V91.1H80.5V102.6z"/>
	<path d="M126.6,108.4h-17.3c-1.6,0-2.9-1.3-2.9-2.9V88.2c0-1.6,1.3-2.9,2.9-2.9h17.3c1.6,0,2.9,1.3,2.9,2.9v17.3
		C129.5,107.1,128.2,108.4,126.6,108.4z M112.2,102.6h11.5V91.1h-11.5V102.6z"/>
	<path d="M63.2,108.4H45.9c-1.6,0-2.9-1.3-2.9-2.9V88.2c0-1.6,1.3-2.9,2.9-2.9h17.3c1.6,0,2.9,1.3,2.9,2.9v17.3
		C66,107.1,64.7,108.4,63.2,108.4z M48.7,102.6h11.5V91.1H48.7V102.6z"/>
	<path d="M94.9,154.5c-1.6,0-2.9-1.3-2.9-2.9v-28.8H80.5v28.8c0,1.6-1.3,2.9-2.9,2.9s-2.9-1.3-2.9-2.9v-31.7c0-1.6,1.3-2.9,2.9-2.9
		h17.3c1.6,0,2.9,1.3,2.9,2.9v31.7C97.7,153.2,96.5,154.5,94.9,154.5z"/>
	<path d="M126.6,140.1h-17.3c-1.6,0-2.9-1.3-2.9-2.9v-17.3c0-1.6,1.3-2.9,2.9-2.9h17.3c1.6,0,2.9,1.3,2.9,2.9v17.3
		C129.5,138.8,128.2,140.1,126.6,140.1z M112.2,134.3h11.5v-11.5h-11.5V134.3z"/>
	<path d="M63.2,140.1H45.9c-1.6,0-2.9-1.3-2.9-2.9v-17.3c0-1.6,1.3-2.9,2.9-2.9h17.3c1.6,0,2.9,1.3,2.9,2.9v17.3
		C66,138.8,64.7,140.1,63.2,140.1z M48.7,134.3h11.5v-11.5H48.7V134.3z"/>
	<path d="M94.9,76.7H77.6c-1.6,0-2.9-1.3-2.9-2.9V56.5c0-1.6,1.3-2.9,2.9-2.9h17.3c1.6,0,2.9,1.3,2.9,2.9v17.3
		C97.7,75.4,96.5,76.7,94.9,76.7z M80.5,70.9H92V59.4H80.5V70.9z"/>
	<path d="M126.6,76.7h-17.3c-1.6,0-2.9-1.3-2.9-2.9V56.5c0-1.6,1.3-2.9,2.9-2.9h17.3c1.6,0,2.9,1.3,2.9,2.9v17.3
		C129.5,75.4,128.2,76.7,126.6,76.7z M112.2,70.9h11.5V59.4h-11.5V70.9z"/>
	<path d="M63.2,76.7H45.9c-1.6,0-2.9-1.3-2.9-2.9V56.5c0-1.6,1.3-2.9,2.9-2.9h17.3c1.6,0,2.9,1.3,2.9,2.9v17.3
		C66,75.4,64.7,76.7,63.2,76.7z M48.7,70.9h11.5V59.4H48.7V70.9z"/>
	<path d="M94.9,45H77.6c-1.6,0-2.9-1.3-2.9-2.9V24.8c0-1.6,1.3-2.9,2.9-2.9h17.3c1.6,0,2.9,1.3,2.9,2.9v17.3
		C97.7,43.7,96.5,45,94.9,45z M80.5,39.2H92V27.7H80.5V39.2z"/>
	<path d="M126.6,45h-17.3c-1.6,0-2.9-1.3-2.9-2.9V24.8c0-1.6,1.3-2.9,2.9-2.9h17.3c1.6,0,2.9,1.3,2.9,2.9v17.3
		C129.5,43.7,128.2,45,126.6,45z M112.2,39.2h11.5V27.7h-11.5V39.2z"/>
	<path d="M63.2,45H45.9c-1.6,0-2.9-1.3-2.9-2.9V24.8c0-1.6,1.3-2.9,2.9-2.9h17.3c1.6,0,2.9,1.3,2.9,2.9v17.3
		C66,43.7,64.7,45,63.2,45z M48.7,39.2h11.5V27.7H48.7V39.2z"/>
	<path d="M164.1,154.5H8.4c-1.6,0-2.9-1.3-2.9-2.9s1.3-2.9,2.9-2.9h155.7c1.6,0,2.9,1.3,2.9,2.9S165.7,154.5,164.1,154.5z"/>
	<path d="M143.9,154.5c-1.6,0-2.9-1.3-2.9-2.9V10.4H31.4v141.3c0,1.6-1.3,2.9-2.9,2.9c-1.6,0-2.9-1.3-2.9-2.9V7.5
		c0-1.6,1.3-2.9,2.9-2.9h115.3c1.6,0,2.9,1.3,2.9,2.9v144.2C146.8,153.2,145.5,154.5,143.9,154.5z"/>
</g>
</svg>
