<?xml version="1.0" encoding="utf-8"?>
<!-- Generator: Adobe Illustrator 23.0.3, SVG Export Plug-In . SVG Version: 6.00 Build 0)  -->
<svg version="1.1" id="Layer_1" xmlns="http://www.w3.org/2000/svg" xmlns:xlink="http://www.w3.org/1999/xlink" x="0px" y="0px"
	 viewBox="0 0 170.1 170.1" style="enable-background:new 0 0 170.1 170.1;" xml:space="preserve">
<style type="text/css">
	.st0{fill:none;stroke:#000000;stroke-width:4;stroke-miterlimit:10;}
</style>
<g>
	<g>
		<line class="st0" x1="5.8" y1="33.9" x2="15.7" y2="33.9"/>
		<line class="st0" x1="5.8" y1="115.5" x2="15.7" y2="115.5"/>
	</g>
	<path class="st0" d="M142.6,133h-14.3V15.6h14.3c3.7,0,6.8,3,6.8,6.8v103.8C149.4,130,146.4,133,142.6,133z"/>
	<g>
		<path class="st0" d="M27.6,133h-2.7c-5.1,0-9.2-4.1-9.2-9.2V25.5c0-5.1,4.1-9.2,9.2-9.2h2.7c5.1,0,9.2,4.1,9.2,9.2v98.3
			C36.8,128.9,32.7,133,27.6,133z"/>
		<path class="st0" d="M56,133h-2.7c-5.1,0-9.2-4.1-9.2-9.2V25.5c0-5.1,4.1-9.2,9.2-9.2H56c5.1,0,9.2,4.1,9.2,9.2v98.3
			C65.2,128.9,61.1,133,56,133z"/>
		<path class="st0" d="M84.4,133h-2.7c-5.1,0-9.2-4.1-9.2-9.2V25.5c0-5.1,4.1-9.2,9.2-9.2h2.7c5.1,0,9.2,4.1,9.2,9.2v98.3
			C93.6,128.9,89.5,133,84.4,133z"/>
		<path class="st0" d="M112.9,133h-2.7c-5.1,0-9.2-4.1-9.2-9.2V25.5c0-5.1,4.1-9.2,9.2-9.2h2.7c5.1,0,9.2,4.1,9.2,9.2v98.3
			C122,128.9,117.9,133,112.9,133z"/>
		<line class="st0" x1="26.2" y1="27.6" x2="26.2" y2="89.9"/>
		<line class="st0" x1="54.6" y1="27.6" x2="54.6" y2="89.9"/>
		<line class="st0" x1="83.1" y1="27.6" x2="83.1" y2="89.9"/>
		<line class="st0" x1="111.5" y1="27.6" x2="111.5" y2="89.9"/>
	</g>
	<rect x="149.4" y="36.2" class="st0" width="10.5" height="32.1"/>
	<line class="st0" x1="159.9" y1="47.4" x2="165.1" y2="47.4"/>
	<g>
		<path class="st0" d="M34.8,149.3c0,4.7-3.8,8.6-8.6,8.6s-8.6-3.8-8.6-8.6s3.8-8.6,8.6-8.6S34.8,144.5,34.8,149.3z"/>
		<line class="st0" x1="26.2" y1="140.7" x2="26.2" y2="133"/>
	</g>
	<g>
		<path class="st0" d="M120,149.3c0,4.7-3.8,8.6-8.6,8.6c-4.7,0-8.6-3.8-8.6-8.6s3.8-8.6,8.6-8.6C116.2,140.7,120,144.5,120,149.3z"
			/>
		<line class="st0" x1="111.5" y1="140.7" x2="111.5" y2="133"/>
	</g>
</g>
</svg>
