<?xml version="1.0" encoding="utf-8"?>
<!-- Generator: Adobe Illustrator 23.0.3, SVG Export Plug-In . SVG Version: 6.00 Build 0)  -->
<svg version="1.1" id="Layer_1" xmlns="http://www.w3.org/2000/svg" xmlns:xlink="http://www.w3.org/1999/xlink" x="0px" y="0px"
	 viewBox="0 0 170.1 170.1" style="enable-background:new 0 0 170.1 170.1;" xml:space="preserve">
<style type="text/css">
	.st0{fill:none;stroke:#000000;stroke-miterlimit:10;}
</style>
<path d="M37.9,50.2c1.3,12,2.6,23.9,4,36.1l6.5,0.7c-1.2-12.1-4.4-23.8-3.5-36.1L37.9,50.2z"/>
<rect x="110.5" y="74.6" transform="matrix(0.1059 -0.9944 0.9944 0.1059 37.4719 197.0912)" width="35.6" height="6.3"/>
<rect x="12.6" y="64.1" transform="matrix(0.1059 -0.9944 0.9944 0.1059 -39.7495 90.2788)" width="35.5" height="6.2"/>
<rect x="37.4" y="67" transform="matrix(0.1059 -0.9944 0.9944 0.1059 -20.1399 117.3466)" width="35.5" height="5.8"/>
<rect x="134.9" y="77.5" transform="matrix(0.1059 -0.9944 0.9944 0.1059 56.6558 223.5825)" width="35.5" height="5.5"/>
<rect x="-2" y="62.6" transform="matrix(0.1059 -0.9944 0.9944 0.1059 -51.2038 74.5038)" width="35.6" height="6.2"/>
<rect x="76.3" y="71.1" transform="matrix(0.1059 -0.9944 0.9944 0.1059 10.4959 159.8022)" width="35.6" height="5.9"/>
<rect x="92.9" y="72.8" transform="matrix(0.1059 -0.9944 0.9944 0.1059 23.5653 177.8824)" width="35.6" height="6"/>
<path d="M120.3,85.4c-0.5-2.9-0.8-5.9-1.3-9.9c3.8-3.5,4.2-8.8,2.6-14.3c-0.3-1-1.2-1.7-2.2-2.4l-1.1-0.1l-3.2,29.6
	c0,1.2,0,2.5-0.1,3.7c0,0.7,0.5,1.7,1.2,2.4l2.8,0.3c0.4-0.2,0.8-0.5,1-0.8c0.8-1.2,1.2-2.9,1.2-4.4
	C121.2,88.2,120.5,86.8,120.3,85.4z"/>
<rect x="52" y="68.7" transform="matrix(0.1059 -0.9944 0.9944 0.1059 -8.626 133.2147)" width="35.4" height="5.4"/>
<path d="M140.5,61.1c-5.2,4.8-5.8,11.7-6.4,18.2c-0.5,6-1.8,12.5,2.9,17.4l1,0.1l3.8-35.5L140.5,61.1z"/>
<path d="M77.8,54.4l-1-0.1L73,89.8l0.1,0c5.8-3.4,7.5-9.3,7.8-15.3C81.2,67.8,83.1,60.4,77.8,54.4z"/>
<path d="M102.6,57.1l-2.4-0.3c0,0,0,0-0.1,0c0.6,6.8,0.9,13.5-2.2,19.8c-0.1,0.2,1.8,1.9,2.1,1.7c1.2-0.7,2.6-1.7,3.2-2.9
	c2.5-4.8,3.1-9.9,1.7-15C104.7,59.2,103.6,58.2,102.6,57.1z"/>
<path d="M144.6,61.6c0.9,4.3,1.7,8.5,2.8,13.9l1.4-13.4L144.6,61.6z"/>
<path d="M159.7,99c-1.6-0.2-2.9-0.3-4.8-0.5c2-3.4,3.8-6.4,5.9-9.8C160.4,92.2,160.1,95.4,159.7,99z"/>
<path d="M61.2,52.7c1.2,3.5,2.3,6.7,3.5,10.4l1.1-9.9L61.2,52.7z"/>
<path d="M160.2,74.1c-0.5,4.2-0.9,8.5-1.4,13.1C156,82.4,157.7,78.2,160.2,74.1z"/>
<path d="M38.1,86c-1.1-0.1-2.5-0.3-4.2-0.5c1.7-3.5,3.4-6.7,5.4-10.7C38.9,78.8,38.5,82.1,38.1,86z"/>
<path d="M62.9,80.6c-0.3,2.6-0.6,5.2-0.9,8c-1.4-0.1-2.7-0.3-4.7-0.5c1.8-2.8,3.3-5.2,4.8-7.6C62.4,80.6,62.6,80.6,62.9,80.6z"/>
<path d="M47.2,51.2c-0.2,3.5-0.3,6.6-0.5,10.1c1.6-3.3,3.2-6.4,4.8-9.7L47.2,51.2z"/>
<path d="M158.7,63.1c1.3,3.6,2.4,6.6,3.6,10l1-9.5L158.7,63.1z"/>
<path d="M23.1,59.1c-0.5,4.8-0.9,8.8-1.4,13.4C19.4,67.6,19.8,63.6,23.1,59.1z"/>
<path d="M21.8,48.5c1.2,3.4,2.2,6.4,3.4,10l1-9.5L21.8,48.5z"/>
<path d="M62.5,63.9c-0.4,4-0.9,8-1.3,12.1c-0.4,0-0.8-0.1-1.2-0.1c0.4-4,0.8-8,1.3-12C61.7,63.9,62.1,63.9,62.5,63.9z"/>
<path d="M142.5,97.2c1.4-2.8,2.9-5.7,4.3-8.5c-0.4-0.1-0.7-0.2-1.1-0.3c-1.7,2.9-3.3,5.8-5,8.7L142.5,97.2z"/>
<rect x="4.6" y="52.1" transform="matrix(0.9944 0.1059 -0.1059 0.9944 8.1972 -8.6971)" class="st0" width="162.9" height="41.5"/>
</svg>
