<?xml version="1.0" encoding="utf-8"?>
<!-- Generator: Adobe Illustrator 23.0.3, SVG Export Plug-In . SVG Version: 6.00 Build 0)  -->
<svg version="1.1" id="Layer_1" xmlns="http://www.w3.org/2000/svg" xmlns:xlink="http://www.w3.org/1999/xlink" x="0px" y="0px"
	 viewBox="0 0 170.1 170.1" style="enable-background:new 0 0 170.1 170.1;" xml:space="preserve">
<style type="text/css">
	.st0{fill:#FFFFFF;}
	.st1{fill:#272626;}
	.st2{fill:#272626;stroke:#272626;stroke-width:0.75;stroke-miterlimit:10;}
</style>
<g>
	<path d="M119.5,142.1H23.8V27.6c0-10,8.1-18.1,18.1-18.1h59.7c10,0,18.1,8.1,18.1,18.1V142.1z M30,135.8h83.2V27.6
		c0-6.5-5.3-11.8-11.8-11.8H41.8c-6.5,0-11.8,5.3-11.8,11.8V135.8z"/>
	<path d="M74.8,117.4H33.5v-13.7h41.3V117.4z M39.8,111.1h28.7v-1.2H39.8V111.1z"/>
	<path d="M74.8,131.4H33.5v-13.7h41.3V131.4z M39.8,125.2h28.7V124H39.8V125.2z"/>
	<path d="M94,131.5c-7.8,0-14.2-6.4-14.2-14.2c0-7.8,6.4-14.2,14.2-14.2s14.2,6.4,14.2,14.2C108.2,125.1,101.8,131.5,94,131.5z
		 M94,109.4c-4.3,0-7.9,3.5-7.9,7.9s3.5,7.9,7.9,7.9s7.9-3.5,7.9-7.9S98.4,109.4,94,109.4z"/>
	<path d="M58.9,166.3H42.2v-30.6h16.8V166.3z M48.4,160.1h4.2v-18h-4.2V160.1z"/>
	<path d="M101.1,166.3H84.4v-30.6h16.8V166.3z M90.6,160.1h4.2v-18h-4.2V160.1z"/>
	<path d="M70.6,91.4c-14,0-20-13.5-20-20.4c0-9.2,4.8-17.4,5-17.7l5.6-9.6l0.2,10.9c0,0.1,0.1,0.4,0.4,0.8c0.8-3.6,1.6-8.3,0.9-13.7
		L61,28.9l7.3,10.6c2.4,3.5,3.9,7.2,4.9,10.5c0-0.1,0-0.1,0-0.2l0.9-13.1l5.1,12c0.9,2.2,1.7,4.2,2.3,5.8l2.6-3.7l2.5,4
		c0.2,0.3,5,8.3,5,18C91.7,82.1,85.2,91.4,70.6,91.4z M58.6,61.7c-0.9,2.6-1.7,5.8-1.7,9.2c0,3.6,3.4,14.2,13.7,14.2
		c11,0,14.9-6.3,14.9-12.1c0-3.9-1-7.5-2-10.2L79,68.9l-1.6-6.6c0,0-0.1-0.2-0.2-0.7c-0.3,0.8-0.7,1.5-1.2,2.3l-3.6,6.8L70,64.3
		c-0.5-1.3-0.8-3-1.2-5.1c-0.2-1.2-0.4-2.4-0.7-3.8c-0.2,1.2-0.5,2.2-0.7,3.2c-0.4,1.6-0.7,3-0.7,3.8L66.5,69l-5-4.4
		C60.3,63.6,59.4,62.6,58.6,61.7z"/>
</g>
<g>
	<circle class="st0" cx="130.5" cy="43" r="29.6"/>
	<path class="st1" d="M130.5,75.8c-18.1,0-32.8-14.7-32.8-32.8s14.7-32.8,32.8-32.8s32.8,14.7,32.8,32.8S148.6,75.8,130.5,75.8z
		 M130.5,16.5C115.9,16.5,104,28.4,104,43c0,14.6,11.9,26.5,26.5,26.5S157,57.6,157,43C157,28.4,145.1,16.5,130.5,16.5z"/>
</g>
<g>
	<g>
		<path class="st2" d="M122.6,41.6c-2.1,0-4.2-0.8-5.8-2.4c0,0-0.1-0.1-0.1-0.1c-1.8-1.8-2.6-4.4-2.3-6.9c0.1-0.8,0.6-1.4,1.3-1.6
			c0.7-0.2,1.5-0.1,2.1,0.5l1.8,1.8c0.7,0.7,1.8,0.7,2.5,0c0.7-0.7,0.7-1.8,0-2.5l-1.8-1.8c-0.5-0.5-0.7-1.3-0.5-2.1
			c0.2-0.7,0.9-1.2,1.6-1.3c2.6-0.4,5.2,0.5,7,2.3c3.2,3.2,3.2,8.5,0,11.7C126.9,40.8,124.7,41.6,122.6,41.6z M118.3,38.6
			c2.7,2.2,6.6,2,9.1-0.4c2.5-2.5,2.6-6.5,0.4-9.1c0,0,0,0,0,0l-0.4-0.5c-1.5-1.5-3.6-2.2-5.7-1.9c-0.3,0-0.4,0.3-0.4,0.3
			c0,0.1-0.1,0.3,0.1,0.5l1.8,1.8l0,0c1.3,1.3,1.3,3.3,0,4.6c-0.6,0.6-1.4,1-2.3,1c-0.9,0-1.7-0.3-2.3-1l-1.8-1.8
			c-0.2-0.2-0.4-0.2-0.5-0.1c-0.1,0-0.3,0.1-0.3,0.4c-0.3,2.2,0.4,4.3,2,5.8L118.3,38.6C118.3,38.5,118.3,38.5,118.3,38.6z"/>
		<path class="st2" d="M145.4,57.2c-0.3,0-0.6-0.1-0.8-0.3c-0.4-0.4-0.4-1.2,0-1.6c0.4-0.4,1.2-0.4,1.6,0c0.4,0.4,0.4,1.2,0,1.6
			C145.9,57.1,145.6,57.2,145.4,57.2z M145.4,55.7c-0.1,0-0.2,0-0.3,0.1c-0.1,0.1-0.1,0.4,0,0.5c0.1,0.1,0.4,0.1,0.5,0
			c0.1-0.1,0.1-0.4,0-0.5C145.5,55.7,145.4,55.7,145.4,55.7z"/>
		<g>
			<path class="st2" d="M145.4,60.6c-1.2,0-2.3-0.4-3.2-1.3l-11.3-11.3c-0.1-0.1-0.2-0.3-0.2-0.5s0.1-0.4,0.2-0.5l5.3-5.3
				c0.3-0.3,0.8-0.3,1.1,0l11.3,11.3l0,0c1.8,1.8,1.8,4.6,0,6.4C147.7,60.1,146.5,60.6,145.4,60.6z M132.4,47.4l10.8,10.8
				c1.2,1.2,3.1,1.2,4.3,0c1.2-1.2,1.2-3.1,0-4.3l-10.8-10.8L132.4,47.4z"/>
			<path class="st2" d="M129.2,46L129.2,46c-0.2,0-0.4-0.1-0.5-0.2l-4.5-4.5c-0.1-0.1-0.2-0.3-0.2-0.5c0-0.2,0.1-0.4,0.2-0.5
				l0.2-0.2c0.1-0.1,0.2-0.1,0.3-0.2c1.1-0.3,2-0.9,2.8-1.7c0.8-0.8,1.3-1.7,1.7-2.8c0-0.1,0.1-0.2,0.2-0.3l0.2-0.2
				c0.1-0.1,0.3-0.2,0.5-0.2l0,0c0.2,0,0.4,0.1,0.5,0.2l4.5,4.5c0.3,0.3,0.3,0.8,0,1.1l-5.3,5.3C129.6,45.9,129.4,46,129.2,46z
				 M125.9,40.9l3.3,3.3l4.3-4.3l-3.3-3.3c-0.4,0.9-1,1.8-1.7,2.6C127.7,39.9,126.9,40.5,125.9,40.9z"/>
		</g>
	</g>
	<g>
		<path class="st2" d="M120.9,61c-1.4,0-2.8-0.6-3.8-1.6s-1.6-2.3-1.6-3.8c0-1.4,0.6-2.8,1.6-3.8L124,45c1.5-1.5,3.9-1.5,5.4,0
			l2.2,2.2c1.5,1.5,1.5,3.9,0,5.4l-6.8,6.8C123.7,60.4,122.4,61,120.9,61z M126.7,45.4c-0.6,0-1.2,0.2-1.6,0.7l-6.8,6.8
			c-1.5,1.5-1.5,3.9,0,5.4c1.5,1.5,3.9,1.5,5.4,0l6.8-6.8c0.9-0.9,0.9-2.4,0-3.3l-2.2-2.2C127.9,45.6,127.3,45.4,126.7,45.4z"/>
		<path class="st2" d="M131,48.5c-0.2,0-0.4-0.1-0.5-0.2l-2.2-2.2c-0.3-0.3-0.3-0.8,0-1.1l15.8-15.8c0.1-0.1,0.2-0.1,0.3-0.2
			l3.2-1.1c0.3-0.1,0.6,0,0.8,0.2c0.2,0.2,0.3,0.5,0.2,0.8l-1.1,3.2c0,0.1-0.1,0.2-0.2,0.3l-15.8,15.8
			C131.4,48.4,131.2,48.5,131,48.5z M129.9,45.6l1.1,1.1l15.1-15.1l0.5-1.6l-1.6,0.5L129.9,45.6z"/>
		<path class="st2" d="M119.9,55.3c-0.2,0-0.4-0.1-0.5-0.2c-0.1-0.1-0.2-0.4-0.2-0.6c0-0.2,0.1-0.4,0.2-0.6l5.8-5.8
			c0.3-0.3,0.8-0.3,1.1,0c0.1,0.1,0.2,0.4,0.2,0.6c0,0.2-0.1,0.4-0.2,0.6l-5.8,5.8C120.3,55.3,120.1,55.3,119.9,55.3z"/>
		<path class="st2" d="M122,57.5c-0.2,0-0.4-0.1-0.5-0.2c-0.1-0.1-0.2-0.4-0.2-0.6c0-0.2,0.1-0.4,0.2-0.6l5.8-5.8
			c0.3-0.3,0.8-0.3,1.1,0c0.3,0.3,0.3,0.8,0,1.1l-5.8,5.8C122.4,57.4,122.2,57.5,122,57.5z"/>
	</g>
</g>
</svg>
