<?xml version="1.0" encoding="utf-8"?>
<!-- Generator: Adobe Illustrator 23.0.3, SVG Export Plug-In . SVG Version: 6.00 Build 0)  -->
<svg version="1.1" id="Layer_1" xmlns="http://www.w3.org/2000/svg" xmlns:xlink="http://www.w3.org/1999/xlink" x="0px" y="0px"
	 viewBox="0 0 170.1 170.1" style="enable-background:new 0 0 170.1 170.1;" xml:space="preserve">
<style type="text/css">
	.st0{stroke:#000000;stroke-width:0.75;stroke-miterlimit:10;}
</style>
<g>
	<path class="st0" d="M42.2,145.8C42.2,145.8,42.2,145.8,42.2,145.8c-11.5,0-20.9-9.4-20.9-20.9c0-11.5,9.4-20.9,20.9-20.9l0,0
		c0,0,0,0,0,0c5.6,0,10.8,2.2,14.8,6.1c3.9,3.9,6.1,9.2,6.1,14.8c0,5.6-2.2,10.8-6.1,14.8C53,143.6,47.8,145.8,42.2,145.8z
		 M42.2,106.7c-10.1,0-18.2,8.2-18.2,18.2c0,10.1,8.2,18.2,18.2,18.2c0,0,0,0,0,0c4.9,0,9.4-1.9,12.9-5.3c3.4-3.4,5.3-8,5.3-12.9
		c0-4.9-1.9-9.5-5.3-12.9C51.6,108.6,47.1,106.7,42.2,106.7C42.2,106.7,42.2,106.7,42.2,106.7L42.2,106.7z M42.2,135
		c-2.7,0-5.2-1.1-7.1-3c-1.9-1.9-3-4.4-3-7.1c0-5.6,4.5-10.1,10.1-10.1c5.6,0,10.1,4.5,10.1,10.1C52.3,130.5,47.8,135,42.2,135z
		 M42.2,117.4c-4.1,0-7.5,3.4-7.5,7.5c0,2,0.8,3.9,2.2,5.3c1.4,1.4,3.3,2.2,5.3,2.2c4.1,0,7.5-3.3,7.5-7.5
		C49.7,120.8,46.3,117.4,42.2,117.4z"/>
	<path class="st0" d="M42.2,131.8c-1.8,0-3.6-0.7-4.9-2c-1.3-1.3-2-3-2-4.9c0-3.8,3.1-6.9,6.9-6.9c3.8,0,6.9,3.1,6.9,6.9
		C49.1,128.7,46,131.8,42.2,131.8z M42.2,120.6c-2.3,0-4.3,1.9-4.3,4.3c0,1.1,0.4,2.2,1.2,3c0.8,0.8,1.9,1.2,3,1.2
		c2.3,0,4.3-1.9,4.3-4.3C46.5,122.6,44.5,120.6,42.2,120.6z"/>
	<path class="st0" d="M131.2,145.8C131.1,145.8,131.1,145.8,131.2,145.8c-11.5,0-20.9-9.4-20.9-20.9c0-11.5,9.4-20.9,20.9-20.9l0,0
		c0,0,0,0,0,0c5.6,0,10.8,2.2,14.8,6.1c3.9,3.9,6.1,9.2,6.1,14.8c0,5.6-2.2,10.8-6.1,14.8C142,143.6,136.7,145.8,131.2,145.8z
		 M131.1,106.7c-10.1,0-18.2,8.2-18.2,18.2c0,10.1,8.2,18.2,18.2,18.2c0,0,0,0,0,0c4.9,0,9.4-1.9,12.9-5.3c3.4-3.4,5.3-8,5.3-12.9
		c0-4.9-1.9-9.5-5.3-12.9C140.6,108.6,136,106.7,131.1,106.7C131.1,106.7,131.1,106.7,131.1,106.7L131.1,106.7z M131.1,135
		L131.1,135c-2.7,0-5.2-1.1-7.2-3c-1.9-1.9-3-4.4-3-7.1c0-5.6,4.5-10.1,10.1-10.1c5.6,0,10.1,4.5,10.1,10.1
		C141.3,130.5,136.7,135,131.1,135z M131.1,117.4c-4.1,0-7.5,3.4-7.5,7.5c0,2,0.8,3.9,2.2,5.3c1.4,1.4,3.3,2.2,5.3,2.2h0
		c4.1,0,7.5-3.3,7.5-7.5C138.6,120.8,135.3,117.4,131.1,117.4z"/>
	<path class="st0" d="M131.1,131.8c-1.8,0-3.6-0.7-4.9-2c-1.3-1.3-2-3-2-4.9c0-3.8,3.1-6.9,6.9-6.9c3.8,0,6.9,3.1,6.9,6.9
		C138,128.7,134.9,131.8,131.1,131.8z M131.1,120.6c-2.3,0-4.3,1.9-4.3,4.3c0,1.1,0.4,2.2,1.2,3c0.8,0.8,1.9,1.2,3,1.2
		c2.3,0,4.3-1.9,4.3-4.3C135.4,122.6,133.5,120.6,131.1,120.6z"/>
	<path class="st0" d="M108.4,130.4l-43.4,0l0.2-1.5c0.2-1.4,0.3-2.6,0.3-3.7c0-12.9-10.5-23.3-23.3-23.3
		c-12.9,0-23.3,10.5-23.3,23.3c0,1.2,0.1,2.4,0.3,3.8l0.2,1.5h-6.3c-3.6,0-6.1-3-6.1-7.1c0-2.4,0-6.3,0-9.1c0-3.3,2-5.7,4.9-6.2
		c0.1-1,0.1-2.3,0.2-3.8C13.7,76.4,15.7,44,17,39.5c1.9-6.7,6.3-7.2,12.6-7.2h68.1c14,0,21.1,0,25.4,10.9c2.1,5.3,5.8,14.3,7.2,17.1
		c0.2,0.3,0.3,0.7,0.5,1c1.7,3.8,3.6,8.1,8.3,8.9c2.6,0.4,4.3,0.7,6.1,1c1.5,0.2,2.9,0.4,4.7,0.7c5.8,1,7.7,3.7,8.3,5.8
		c2,6.9,3.8,17,5.4,30c1.6,0.2,3.9,1.1,3.9,4.9v8.2c0,3-1.4,4.8-3.9,5.1c-0.7,2.4-2.1,4.3-5.7,4.3h-3.9l0.3-1.5
		c0.2-1.4,0.3-2.6,0.3-3.7c0-12.9-10.5-23.3-23.3-23.3c-12.9,0-23.3,10.5-23.3,23.3c0,1.2,0.1,2.4,0.3,3.7L108.4,130.4z M29.6,34.9
		c-6.2,0-8.7,0.5-10.1,5.3c-1.4,4.8-4,49.4-4.8,64c-0.1,2.3-0.2,4-0.3,5l-0.1,1.2h-1.2c-1.7,0-3.5,1-3.5,3.7c0,2.8,0,6.8,0,9.1
		c0,2.2,1.1,4.4,3.5,4.4h3.3c-0.1-0.9-0.2-1.8-0.2-2.6c0-14.3,11.7-26,26-26c14.3,0,26,11.7,26,26c0,0.8,0,1.7-0.2,2.6l37.3,0
		c-0.1-0.9-0.2-1.8-0.2-2.6c0-14.3,11.7-26,26-26c14.3,0,26,11.7,26,26c0,0.9,0,1.7-0.2,2.6h0.9c2,0,2.7-0.7,3.4-3.3l0.2-1h1
		c1.5,0,2.3-0.4,2.3-2.6v-8.2c0-2-0.6-2.4-2.5-2.4h-1.2l-0.1-1.2c-0.8-6.8-1.6-12.8-2.6-18c-0.1,0.2-0.2,0.4-0.4,0.6
		c-0.5,0.6-1.1,0.9-1.9,0.9h-5.4c-2.5,0-4.5-2.4-4.5-5.4c0-3.5,2.3-8.3,5.9-8.3c1.9,0,3.2,1,4.2,2.5c-0.3-1-0.5-2-0.8-2.9
		c-0.7-2.5-3.8-3.5-6.3-4c-1.8-0.3-3.2-0.5-4.6-0.7c-1.7-0.3-3.5-0.5-6.1-1c-6.1-1.1-8.4-6.3-10.3-10.4c-0.2-0.3-0.3-0.7-0.5-1
		c-1.3-2.9-5.1-11.9-7.2-17.3c-3.5-8.8-8.3-9.2-22.9-9.2H29.6z M152.2,81.6c-1.7,0-3.3,3.2-3.3,5.7c0,1.5,0.9,2.7,1.9,2.7h5.3
		c0.1-0.2,0.2-0.6,0-1.3C154.7,81.6,152.8,81.6,152.2,81.6z M74.5,103c-2.7,0-8.4-0.9-10.7-7.8c-0.9-2.6-0.7-4.7-0.5-6.3
		c0.2-2.1,0.4-3.3-1.4-5.2L50.7,72.4c-2.4-2.4-4.9-2.5-8.1-2.6c-4-0.1-8.5-0.3-13.5-5.3c-3.1-3.1-4.4-7.8-3.4-12.3
		c0.9-4.1,3.5-7.3,6.7-8.5l1.4-0.5l0.4,1.4c0.3,0.9,1.4,6.1,2,8.7c1.4,1.3,3.4,1.8,5.4,1.4c1.2-0.2,3.2-1,4.2-3.5
		c-0.5-2.5-1.7-7.9-1.9-8.6l-0.3-1.4l1.4-0.2c3.9-0.5,9.7,3.4,11.6,9.7c0.8,2.5,0.6,4.5,0.5,6c-0.1,2.2-0.2,3.5,1.9,5.7l12.1,12.1
		c1.1,1.1,3,1.2,5.1,1.3c4.4,0.2,10.4,0.5,13.9,9.7c1.3,3.5,1.4,7,0.1,9.8c-1,2.2-2.7,3.8-4.8,4.6l-1.2,0.5L83.8,99
		c-0.3-0.9-1.4-4.2-2.5-7.5L81.2,91c-1.4-1.3-3.1-1.1-4-0.8c-1.7,0.5-3.1,1.8-3.6,3.2c0.6,1.9,1.8,5.7,2.5,7.9l0.5,1.7l-1.7,0.1
		C74.8,103,74.6,103,74.5,103z M32,46.8c-1.8,1.2-3.2,3.4-3.7,5.9c-0.8,3.7,0.2,7.4,2.7,9.9c4.3,4.3,8,4.4,11.7,4.5
		c3.3,0.1,6.7,0.2,9.9,3.4l11.2,11.2c2.7,2.7,2.4,5.1,2.2,7.3c-0.2,1.5-0.4,3.1,0.3,5.2c1.5,4.3,4.4,5.6,6.8,5.9
		c-0.7-2.3-1.6-5.1-2.1-6.4l-0.1-0.4l0.1-0.4c0.6-2.5,2.8-4.7,5.6-5.5c2.6-0.7,5-0.1,6.8,1.7l0.2,0.2l0.4,1.1c0.5,1.6,1.4,4.3,1.9,6
		c0.9-0.6,1.6-1.5,2.1-2.6c1-2.2,0.9-4.9-0.1-7.8c-2.9-7.6-7.3-7.8-11.6-8c-2.6-0.1-5.1-0.3-6.9-2.1L57.2,64.2
		c-2.9-3-2.8-5.2-2.7-7.7c0.1-1.5,0.2-3.1-0.4-5.1c-1.3-4.3-4.7-7.1-7.2-7.7c0.5,2.2,1.2,5.7,1.6,7.2l0.1,0.4l-0.1,0.4
		c-1,2.9-3.3,4.9-6.3,5.5c-3,0.6-6.1-0.3-8.1-2.4l-0.3-0.3l-0.1-0.4C33.2,52.2,32.5,48.8,32,46.8z M121.2,73.2h-16.5
		c-3.8,0-5.9-2.6-5.9-5.2V43.8c0-2.2,0.6-5.2,5.4-5.2h4.8c0.1,0,0.3,0,0.4,0c1.9,0,6.8-0.2,8.7,5c0.7,2,1.6,4.4,2.6,6.9
		c2,5.3,4,10.9,5.1,13.6c1,2.6,2,5.3,0.6,7.2C125.5,72.6,123.8,73.2,121.2,73.2z M104.2,41.2c-2.7,0-2.8,0.9-2.8,2.6v24.3
		c0,0.9,0.7,2.5,3.2,2.5h16.5c1.6,0,2.7-0.3,3-0.8c0.6-0.9-0.4-3.6-0.9-4.7c-1.1-2.7-3.1-8.3-5.1-13.6c-0.9-2.5-1.8-4.9-2.6-6.9
		c-1.2-3.2-3.8-3.4-6.2-3.3c-0.2,0-0.3,0-0.5,0H104.2z"/>
</g>
</svg>
