<svg xmlns="http://www.w3.org/2000/svg" width="38" height="23">
    <defs>
        <linearGradient id="a" x1="70.711%" x2="0%" y1="70.711%" y2="0%">
            <stop offset="0%" stop-color="#F15A2A"/>
            <stop offset="95%" stop-color="#FAA634"/>
        </linearGradient>
    </defs>
    <path fill="#FFF" fill-rule="evenodd" d="M33.436 3.409a.557.557 0 1 1 0 1.113h-1.65a.557.557 0 1 1 0-1.113h1.65zm-4.195 0a.557.557 0 1 1 0 1.113H18.682a.557.557 0 1 1 0-1.113h10.559zm6.089 13.773H10.708a.557.557 0 1 1 0-1.114h22.17v-.978h-3.355a.558.558 0 0 1 0-1.114h3.355v-.979H5.122v.979h22.169a.557.557 0 1 1 0 1.114H5.122v.978h3.355a.558.558 0 0 1 0 1.114H2.67a2.671 2.671 0 0 1-2.671-2.666V2.661A2.671 2.671 0 0 1 2.67-.005h4.133a.558.558 0 0 1 0 1.114H2.67c-.857 0-1.555.696-1.555 1.552v11.855c0 .856.698 1.552 1.555 1.552h1.336v-3.627c0-.308.25-.557.558-.557h28.872c.308 0 .558.249.558.557v3.627h1.336c.857 0 1.555-.696 1.555-1.552V2.661c0-.856-.698-1.552-1.555-1.552H9.035a.557.557 0 1 1 0-1.114H35.33a2.671 2.671 0 0 1 2.671 2.666v11.855a2.671 2.671 0 0 1-2.671 2.666zM9.935 19.228a.557.557 0 0 1 1.116 0c0 .091-.023 2.246-2.035 3.673a.56.56 0 0 1-.778-.131.557.557 0 0 1 .132-.777c1.547-1.097 1.565-2.748 1.565-2.765zm4.552-.556c.308 0 .558.249.558.556v3.219a.557.557 0 0 1-1.116 0v-3.219c0-.307.25-.556.558-.556zm4.67 0c.308 0 .558.249.558.556v3.219a.557.557 0 0 1-1.116 0v-3.219c0-.307.25-.556.558-.556zm4.356 0c.308 0 .557.249.557.556v3.219a.557.557 0 1 1-1.115 0v-3.219c0-.307.25-.556.558-.556zm3.994 0c.307 0 .557.247.558.554.001.074.039 1.684 1.565 2.767a.557.557 0 1 1-.646.908c-2.012-1.427-2.035-3.582-2.035-3.673 0-.307.25-.556.558-.556z"/>
    <path fill="url(#a)" d="M33.436 3.409a.557.557 0 1 1 0 1.113h-1.65a.557.557 0 1 1 0-1.113h1.65zm-4.195 0a.557.557 0 1 1 0 1.113H18.682a.557.557 0 1 1 0-1.113h10.559zm6.089 13.773H10.708a.557.557 0 1 1 0-1.114h22.17v-.978h-3.355a.558.558 0 0 1 0-1.114h3.355v-.979H5.122v.979h22.169a.557.557 0 1 1 0 1.114H5.122v.978h3.355a.558.558 0 0 1 0 1.114H2.67a2.671 2.671 0 0 1-2.671-2.666V2.661A2.671 2.671 0 0 1 2.67-.005h4.133a.558.558 0 0 1 0 1.114H2.67c-.857 0-1.555.696-1.555 1.552v11.855c0 .856.698 1.552 1.555 1.552h1.336v-3.627c0-.308.25-.557.558-.557h28.872c.308 0 .558.249.558.557v3.627h1.336c.857 0 1.555-.696 1.555-1.552V2.661c0-.856-.698-1.552-1.555-1.552H9.035a.557.557 0 1 1 0-1.114H35.33a2.671 2.671 0 0 1 2.671 2.666v11.855a2.671 2.671 0 0 1-2.671 2.666zM9.935 19.228a.557.557 0 0 1 1.116 0c0 .091-.023 2.246-2.035 3.673a.56.56 0 0 1-.778-.131.557.557 0 0 1 .132-.777c1.547-1.097 1.565-2.748 1.565-2.765zm4.552-.556c.308 0 .558.249.558.556v3.219a.557.557 0 0 1-1.116 0v-3.219c0-.307.25-.556.558-.556zm4.67 0c.308 0 .558.249.558.556v3.219a.557.557 0 0 1-1.116 0v-3.219c0-.307.25-.556.558-.556zm4.356 0c.308 0 .557.249.557.556v3.219a.557.557 0 1 1-1.115 0v-3.219c0-.307.25-.556.558-.556zm3.994 0c.307 0 .557.247.558.554.001.074.039 1.684 1.565 2.767a.557.557 0 1 1-.646.908c-2.012-1.427-2.035-3.582-2.035-3.673 0-.307.25-.556.558-.556z"/>
</svg>
