<?xml version="1.0" encoding="utf-8"?>
<!-- Generator: Adobe Illustrator 23.0.3, SVG Export Plug-In . SVG Version: 6.00 Build 0)  -->
<svg version="1.1" id="Layer_1" xmlns="http://www.w3.org/2000/svg" xmlns:xlink="http://www.w3.org/1999/xlink" x="0px" y="0px"
	 viewBox="0 0 170.1 170.1" style="enable-background:new 0 0 170.1 170.1;" xml:space="preserve">
<style type="text/css">
	.st0{fill:none;stroke:#000000;stroke-width:6;stroke-miterlimit:10;}
</style>
<path d="M68.9,106.4c0,0.9,0.3,1.6,0.5,2.4c0.1,0.2,0.2,0.5,0.1,0.6c-0.2,0.1-0.4-0.1-0.5-0.2c-1.3-0.8-2.2-2-3-3.3
	c-1-1.7-1.6-3.5-2.1-5.4c-0.8-2.8-1.6-5.6-2.3-8.5c-0.2-0.9-0.7-1.8-0.7-2.8c0,0,0-0.1,0-0.1c0.6-0.7,0-1.3,0-2
	c0-0.2-0.2-0.4-0.4-0.5c-0.4-0.1-0.5-0.4-0.6-0.8c-0.1-0.7-0.6-1.3-0.1-2c0.1-0.1,0-0.2-0.1-0.2c-0.3,0-0.3-0.3-0.4-0.5
	c-0.3-1.7-0.7-3.5-0.7-5.3c0.1-4,2.8-6.9,6.8-7.3c0.4,0,0.8,0,1.2,0.1c0.3,0.1,0.8,0,1.2,0.1c2.5,0.5,4.1,2,5.4,4.1
	c1,1.7,1.5,3.5,2,5.3c1.5,5.6,3,11.3,4.5,16.9c0.5,1.7,0.9,3.5,0.8,5.3c-0.1,1.5-0.4,2.9-1.1,4.2c-0.9,1.5-2.3,2.5-3.9,3
	c-1.3,0.4-2.7,0.6-4.1,0.4c-0.3,0-0.6-0.1-0.8-0.2c-0.1,0-0.3-0.1-0.2-0.2c0.2-0.4-0.2-0.9,0.2-1.4c-0.6,0-0.6,0-0.7-0.5
	C69.5,107.2,69.4,106.7,68.9,106.4z M64.4,76.7c0,0.1,0,0.2,0,0.2c0,0.1,0,0.1,0.1,0.2c0.6,0.4,0.6,1.1,0.7,1.7
	c0.6,2.7,1.3,5.3,2,7.9c1.3,4.8,2.5,9.5,3.8,14.3c0.2,0.8,0.4,1.6,0.9,2.3c0.3,0.4,0.6,0.5,1.1,0.4c0.4-0.1,0.6-0.4,0.6-0.9
	c0-0.7-0.1-1.3-0.2-1.9c-0.9-3.5-1.8-7-2.8-10.4c-0.9-3.3-1.8-6.6-2.7-10c-0.3-1.1-0.6-2.2-1-3.3c-0.3-0.7-0.9-1-1.4-0.6
	C65.4,76.8,64.5,76.8,64.4,76.7z"/>
<path d="M99.1,96.7c0,1.7-0.3,3.2-1,4.6c-1,2-2.8,3-4.9,3.5c-0.4,0.1-0.8,0.1-1.2,0.2c-0.4,0.1-0.7,0.1-0.9-0.3
	c-0.3,0.3-0.5,0.4-0.9,0.3c-1.6-0.2-2.8-0.9-3.9-2c-1.9-2-2.9-4.5-3.6-7.1c-1.5-5.5-3-10.9-4.4-16.4c-0.5-2.1-1-4.2-1-6.5
	c0-1.5,0.4-2.8,1.2-4c0.7-1.1,1.7-2.1,3-2.6c1.5-0.6,3-0.9,4.6-0.7c0.4,0.1,0.4,0.5,0.6,0.5c0.2,0,0.4-0.3,0.7-0.2
	c2.3,0.8,3.7,2.4,4.7,4.5c0.8,1.7,1.3,3.5,1.9,5.4c0.5,1.8,1,3.6,1.5,5.4c0.7,2.6,1.4,5.2,2.1,7.8c0.6,2.2,1.2,4.4,1.5,6.7
	C99.1,96.1,99.1,96.4,99.1,96.7z M92.5,97.5c0-0.1,0-0.4-0.1-0.6c-0.3-1.5-0.7-2.9-1.1-4.4c-1.6-5.9-3.2-11.9-4.8-17.8
	c-0.2-0.8-0.4-1.7-0.8-2.5c-0.3-0.6-0.7-0.7-1.2-0.6c-0.4,0.1-0.7,0.6-0.7,1.1c0,0.3,0.1,0.6,0.1,0.9c0.8,3.5,1.8,7,2.7,10.4
	c0.5,2,1.1,4,1.6,6c0.3,1.4,0.5,2.9,1,4.3c0.3,0.9,0.5,1.7,1,2.5c0.2,0.3,0.3,0.7,0.3,1c0,0.5,0,0.9,0.7,0.8
	C92.2,98.8,92.5,98.6,92.5,97.5z M86.7,67.4c0,0.2,0,0.4-0.1,0.5c-0.6,0.2-0.2,0.5-0.1,0.8c0.1,0.3,0.2,0.5,0.2,0.8
	c0.2,1.9,0.2,3.8,0.5,5.7c0,0.3,0,0.6,0.3,1C87.3,73,87.4,70.2,86.7,67.4z M90.7,104.5c0.1-1.7-0.5-4-1.3-4.5
	C89.4,101.7,89.5,103.2,90.7,104.5z M90.6,78.6c-0.1,0.9-0.2,1.8,0.4,2.6C91,80.3,91,79.4,90.6,78.6z"/>
<path d="M61.9,110.7c-0.3,0.3-0.4,0.6-0.6,0.8c0.3,0.2,0.5,0.3,0.8,0.5c0.1,0,0.2,0.1,0.2,0.2c0,0.1-0.1,0.1-0.2,0.2
	c-1.6,0.4-3.1,0.8-4.7,1.2c-0.9,0.2-0.9,0.2-1.2-0.7c-1.9-7-3.8-14.1-5.7-21.1c-0.3-1.1-0.6-2.1-1-3.2c-0.4-0.8-1-1.2-1.9-1.1
	c-0.5,0-1,0.1-1.5,0.2c-0.3,0-0.5,0.2-0.8,0c-0.1,0-0.1,0-0.2,0c-0.4,0.5-0.5,0.2-0.6-0.2c-0.4-1.2-0.6-2.4-1-3.6
	c-0.1-0.3,0-0.4,0.2-0.6c2.6-1.7,4.3-4.1,5.2-7.2c0.1-0.4,0.3-0.6,0.7-0.7c1-0.2,2-0.5,3-0.8c0.3-0.1,0.5-0.1,0.6,0.3
	c0.5,2.3,1.2,4.6,1.9,6.9c1,3.6,1.9,7.2,2.9,10.8c0.5,1.8,0.9,3.5,1.4,5.2c0.1,0.5,0,0.9,0,1.3c0,0.2-0.1,0.4,0.3,0.4
	c0.2,0,0.2,0.2,0.2,0.4c1,3.7,2,7.4,3,11.1c0.1,0.3,0,0.4-0.3,0.3C62.3,111.4,62,111.2,61.9,110.7z M56.7,113.4
	c0.1-1.2,0.7-2.2,1-3.5C56.9,110.7,56.4,112.5,56.7,113.4z"/>
<path d="M116.6,76.2c2.1,0,3.8,1.1,4.6,3c1,2.4,1.5,5,2.2,7.5c0.1,0.2,0,0.3-0.1,0.5c-0.3,0.4-0.2,0.8,0.3,1
	c0.2,0.1,0.3,0.2,0.3,0.3c0.3,1.4,0.7,2.7,0.7,4.2c0,1.9-1.3,3.6-3.2,4.1c-0.9,0.3-1.9,0.5-2.9,0.3c-1.8-0.3-2.9-1.5-3.5-3.1
	c-0.6-1.5-1-3.1-1.4-4.7c-0.2-0.7-0.5-1.5-0.3-2.3c0-0.2,0-0.4-0.3-0.5c-0.1,0-0.2-0.2-0.2-0.3c-0.5-1.9-1.1-3.8-1-5.8
	c0.1-1.4,0.7-2.5,1.9-3.2C114.6,76.6,115.6,76.2,116.6,76.2z M115.9,80.5c0,0,0,0.2,0.1,0.3c0.5,2.2,1.1,4.4,1.7,6.6
	c0.5,1.8,1,3.6,1.5,5.4c0.1,0.4,0.3,0.7,0.8,0.6c0.5-0.1,0.5-0.5,0.4-0.9c-0.3-1.3-0.5-2.5-0.9-3.8c-0.5-1.4-0.8-2.9-1.2-4.4
	c-0.4-1.4-0.7-2.8-1.2-4.2c-0.1-0.3-0.3-0.5-0.7-0.4C116,79.9,115.9,80.1,115.9,80.5z M116.7,85.4c-1.3-0.7-2.2-1.8-3.2-2.8
	C113.9,83.7,115.6,85.6,116.7,85.4z"/>
<path d="M97.3,62.7c0-0.9,0.6-0.9,1.2-1.1c2.5-0.6,4.6,0.5,5.6,2.9c0.8,1.9,1.2,4,1.8,6c0,0.1,0.1,0.3-0.1,0.3
	c-0.2,0-0.1,0.1-0.1,0.2c1.1,2.1,1.5,4.3,1.8,6.6c0.1,1-0.2,1.9-0.7,2.7c-0.2,0.3-0.3,0.3-0.5,0c-0.1-0.1-0.2-0.4-0.4-0.3
	c-0.2,0.1,0,0.3,0.1,0.4c0.3,0.4,0.2,0.6-0.2,0.9c-1.4,0.9-2.9,1.3-4.5,1c-1.4-0.3-2.4-1.2-3.1-2.5c-0.6-1.3-1-2.7-1.4-4.1
	c-0.7-2.5-1.4-5-1.9-7.5c-0.1-0.5-0.2-1-0.2-1.6c-0.2-1.7,0.4-3.2,1.8-4.2C96.9,62.1,97,62.1,97.3,62.7z M98,63.7
	c0.2,0.5,0.4,0.9,0.4,1.4c0,0.1,0,0.2,0.1,0.3c0.3,0.1,0.3,0.3,0.3,0.5c0,0.3,0.1,0.5,0.2,0.8c0.6,2.4,1.2,4.7,1.9,7.1
	c0.4,1.5,0.8,3.1,1.3,4.6c0.1,0.3,0.3,0.6,0.7,0.5c0.5-0.1,0.5-0.4,0.4-0.8c-0.3-1.6-0.8-3.2-1.2-4.8c-0.2-0.9-0.5-1.8-0.7-2.8
	c0-0.1-0.1-0.4,0.1-0.4c0.9,0.2,0.3-0.4,0.2-0.5c-0.6-1.3-1.4-2.6-1.6-4c0-0.2-0.2-0.4-0.4-0.4c-0.5,0-0.7-0.3-0.9-0.6
	C98.5,64.2,98.4,63.9,98,63.7z"/>
<path d="M69.9,22.5c-0.4-0.7-0.8-1.4-1.3-2.1c-0.3-0.4-0.3-0.5,0.2-0.6c0.7-0.1,1.4-0.2,2.1-0.4c0.4-0.1,0.5,0.1,0.6,0.4
	c0.5,1.6,1,3.2,1.5,4.8c0.1,0.2,0.1,0.3,0.2,0.6c0-1,0-1.9,0-2.7c0-1-0.1-2.1-0.1-3.1c0-0.3,0.1-0.4,0.4-0.5
	c1.4-0.2,2.9-0.5,4.3-0.7c0.4-0.1,0.5,0,0.6,0.4c0.6,3.4,1.1,6.8,1.7,10.2c0.2,1.1,0.3,2.2,0.6,3.3c0.1,0.5-0.1,0.7-0.5,0.7
	c-0.7,0-1.4,0.4-2.2,0.2c0,0-0.1,0-0.1,0.1c-0.5,0.2-0.6,0.2-0.7-0.4c-0.3-2-0.7-4.1-1-6.1c-0.1-0.7-0.2-1.4-0.4-2.1
	c-0.1,0.4,0,0.7,0,1c0,0.2,0.1,0.5-0.3,0.4c-0.1,0-0.1,0-0.2,0.1c0,0.1,0,0.2,0.1,0.2c0.4,0,0.3,0.3,0.3,0.5c0,2,0.1,4,0.1,6
	c0,1,0,1-0.9,1.1c-0.4,0.1-0.7,0.1-1.1,0.2c-0.4,0.1-0.6,0-0.7-0.4c-0.7-2.1-1.4-4.3-2-6.4c-0.2-0.5-0.3-0.9-0.5-1.4
	c0.2,1.3,0.4,2.6,0.6,4c0.2,1.3,0.4,2.7,0.7,4c0.1,0.3,0,0.5-0.4,0.6c-0.8,0.1-1.7,0.3-2.5,0.4c-0.5,0.1-0.7,0-0.7-0.5
	c-0.7-4.5-1.5-8.9-2.2-13.4c0-0.3-0.3-0.8,0.4-0.4c0.1,0.1,0.2,0,0.2-0.1c0.1-0.3,0.3-0.3,0.5-0.3c0.3,0,0.2,0.3,0.3,0.5
	c0.1,0.3,0.1,0.5,0.5,0.5c0.1,0,0.2,0.1,0.2,0.1c-0.1,0.6,0.3,0.3,0.5,0.3c0.2,0,0.3,0.2,0.4,0.4C69.5,22,69.6,22.3,69.9,22.5z"/>
<path d="M124,37.1c0.1,0.2-0.2,0.6,0.1,0.8c0-0.1,0.1-0.1,0.1-0.1c-0.2-0.8,0.3-1.5,0.8-2c0.5-0.5,0.9-1.1,1.3-1.7
	c0.2-0.3,0.4-0.3,0.7-0.1c0.8,0.7,1.6,1.3,2.5,2c0.3,0.2,0.3,0.4,0.1,0.6c-0.9,1.1-1.7,2.2-2.6,3.2c-1.8,2.2-3.5,4.4-5.3,6.6
	c-0.1,0.2-0.3,0.5-0.6,0.2c0,0-0.1,0-0.2,0.1c0,0.1,0,0.1,0,0.2c0.4,0.4-0.1,0.5-0.3,0.7c-0.1,0.3-0.3,0.1-0.5-0.1
	c-0.8-0.7-1.6-1.3-2.4-2c-0.3-0.2-0.3-0.4-0.1-0.8c1.1-1.3,2.1-2.6,3.1-3.8c0.4-0.5,0.3-0.8-0.2-1c-0.2-0.1-0.3,0-0.4,0.2
	c-1,1.3-2.1,2.6-3.1,3.9c-0.1,0.1-0.2,0.2-0.3,0.4c-0.1,0.2-0.3,0.2-0.5,0.1c-0.9-0.7-1.8-1.4-2.7-2.2c-0.3-0.2-0.1-0.4,0-0.6
	c0.9-1.1,1.8-2.3,2.8-3.4c2-2.4,3.9-4.9,5.9-7.3c0.3-0.4,0.5-0.4,0.8-0.1c0.8,0.7,1.6,1.3,2.4,1.9c0.3,0.3,0.3,0.4,0,0.7
	c-0.9,1.1-1.7,2.2-2.6,3.3c-0.2,0.3-0.3,0.5,0,0.7c0.3,0.2,0.5,0.4,0.8,0C123.7,37.3,123.8,37.1,124,37.1z"/>
<path d="M114.1,136.9c-0.2-0.6-0.6-1.2-0.9-1.7c-0.5-0.9-1-1.8-1.6-2.7c-0.2-0.3-0.2-0.5,0.2-0.7c0.8-0.4,1.5-0.9,2.2-1.3
	c0.3-0.2,0.5-0.1,0.7,0.2c2.3,4,4.6,7.9,7,11.9c0.1,0.2,0.3,0.4,0,0.6c-0.3,0.2-0.5,0.3-0.8-0.1c0,0.5-0.2,0.8-0.5,0.9
	c-0.4,0.2-0.8,0.5-1.2,0.7c-0.3,0.2-0.5,0.2-0.7-0.1c-1.2-1.1-2.5-2.2-3.7-3.3c-0.1-0.1-0.2-0.3-0.4-0.2c-0.1,0.1,0,0.3,0.1,0.4
	c0.8,1.3,1.5,2.6,2.3,3.9c0.2,0.4,0.2,0.6-0.2,0.8c-0.7,0.4-1.5,0.9-2.2,1.3c-0.3,0.2-0.5,0.2-0.7-0.2c-1.1-1.8-2.2-3.7-3.2-5.5
	c-0.2-0.3-0.3-0.7-0.3-1.1c0-0.3,0-0.6-0.5-0.5c-0.2,0-0.2-0.1-0.3-0.3c-0.9-1.5-1.7-3-2.6-4.5c-0.2-0.4-0.2-0.6,0.2-0.8
	c0.5-0.2,0.8-0.6,1.4-0.7c0.3-0.1,0.5-0.5,0.8-0.6c0.3-0.2,0.6-0.1,0.9,0.1c1.2,1.1,2.5,2.1,3.7,3.1
	C113.7,136.7,113.8,136.9,114.1,136.9z M111.8,142.3c-0.3-1.2-0.4-2.4-0.9-3.5c-0.1-0.1-0.1-0.3-0.4-0.3
	C111.2,139.6,110.9,141.1,111.8,142.3z"/>
<path d="M60.5,148.7c-0.7-1.1,0.2-1.8,0.5-2.6c0.6-1.8,1.3-3.5,2-5.3c0.1-0.3,0.2-0.6,0.8-0.5c-0.6-0.5-0.3-0.8-0.2-1.2
	c0.3-0.7,0.6-1.4,0.9-2.1c0.1-0.1,0.1-0.3,0.3-0.3c0.2,0.1,0.1,0.3,0.1,0.4c-0.1,0.6-0.1,1.3,0,1.9c0,0.2,0,0.4,0.2,0.6
	c0.2-0.7,0.2-1.4,0.3-2c0.1-0.6,0.1-0.6,0.6-0.4c0.7,0.3,1.5,0.6,2.2,0.8c0.3,0.1,0.4,0.3,0.2,0.6c-0.6,1.5-1.2,3.1-1.8,4.6
	c-0.3,0.8-0.7,1.5-0.9,2.2c-0.3,0.9-0.6,1.9-1,2.8c-0.3,0.8-0.7,1.7-1.5,2.2c-1.3,0.8-2.7,0.7-4.1,0.2c-1.1-0.4-2-0.9-2.8-1.8
	c-0.7-0.7-1-1.6-0.9-2.6c0-0.2,0.1-0.5,0.3-0.2c0.1,0.1,0.2,0.1,0.3,0.1c0.1-0.1,0-0.2,0-0.3c-0.5-0.7-0.1-1.4,0.1-2
	c1-2.6,2-5.1,3-7.7c0.1-0.3,0.3-0.7,0.4-1.1c0.1-0.3,0.2-0.4,0.5-0.2c1.1,0.4,2.2,0.8,3.2,1.2c0.2,0.1,0.3,0.2,0.2,0.5
	c-0.3,0.8-0.6,1.6-0.9,2.4c0,0.1-0.1,0.2-0.2,0.2c-0.6,0-0.4,0.4-0.4,0.7c0,0.3-0.1,0.5-0.2,0.8c-0.8,2.1-1.7,4.2-2.4,6.4
	C59.3,147.8,59.6,148.4,60.5,148.7z"/>
<path d="M55.3,135.4c-0.1-0.2-0.1-0.3-0.1-0.4c0.2-0.7-0.5-1-0.8-1.5c0-0.1-0.1-0.1-0.2-0.1c-0.1,0.1-0.1,0.2-0.1,0.3
	c0.1,0.3,0.3,0.5,0.5,0.7c0.3,0.2,0.3,0.4,0.1,0.7c-0.5,0.6-0.8,1.4-0.7,2.2c0,0.4-0.1,0.4-0.4,0.2c-0.9-0.6-1.8-1.3-2.7-1.9
	c-0.3-0.2-0.3-0.4-0.1-0.7c0.4-0.6,0.9-1.2,1.2-1.8c0.1-0.2,0.3-0.6,0-0.7c-0.3-0.2-0.6-0.2-0.9,0.2c-0.6,0.7-1.1,1.5-1.6,2.2
	c-1.1,1.6-2.2,3.2-3.4,4.8c-0.2,0.2-0.2,0.5-0.2,0.7c0,0.4,0.5,0.7,0.9,0.4c0.3-0.2,0.7-0.3,0.8-0.8c0.1-0.4,0.5-0.7,0.7-1.1
	c0.2-0.3,0.2-0.5-0.1-0.7c-0.3-0.2-0.2-0.3-0.1-0.6c0.3-0.4,0.6-0.8,0.9-1.3c0.2-0.3,0.3-0.3,0.6-0.1c1.1,0.8,2.3,1.6,3.4,2.4
	c0.2,0.2,0.2,0.3,0.1,0.5c-0.7,1-1.4,2-2.1,3c-0.1,0.1-0.1,0.4-0.3,0.1c0,0,0,0-0.1-0.1c0,0,0,0.1,0,0.1c0.1,0.4-0.2,0.6-0.4,0.9
	c-0.4,0.6-0.8,1.2-1.2,1.8c-0.2,0.3-0.4,0.3-0.7,0.1c-0.5-0.3-0.9-0.7-1.4-1c-0.3-0.2-0.4-0.4-0.3-0.8c0.1-0.3,0-0.4-0.3-0.4
	c-0.5,0.1-1,0.1-1.5-0.1c-0.3-0.1-0.6-0.3-0.8-0.6c-0.1-0.1-0.2-0.3-0.3-0.4c-0.7-0.1-0.9-0.7-1.1-1.2c-0.6-1.2-0.6-2.4,0.1-3.5
	c1.3-2.2,2.8-4.2,4.3-6.2c0.1-0.1,0.2-0.4,0.5-0.2c0.2,0.1,0.2-0.1,0.2-0.2c-0.2-0.3,0-0.4,0.1-0.5c0.9-1.1,2.2-1.2,3.5-0.9
	c1.7,0.4,3,1.4,3.9,2.8c0.5,0.7,0.7,1.6,0.6,2.5C55.7,134.8,55.6,135.1,55.3,135.4z"/>
<path d="M26,50.5c-0.3,0-0.4,0.3-0.7,0.3c-0.1-0.2,0-0.3,0.1-0.4c0.4-0.5,0.8-1.1,1.2-1.6c0.8-0.9,1.8-1.2,2.9-0.9
	c0.9,0.3,1.8,0.7,2.5,1.4c0.1,0.1,0.3,0.3,0.3,0.5c0,0.1,0.1,0.2,0.2,0.3c0.5,0.3,0.6,0.6,0.4,1.2c-0.1,0.2-0.2,0.3,0,0.5
	c1-0.9,2.1-0.7,3.1,0c1.3,0.8,2.6,1.6,3.9,2.4c0.3,0.2,0.3,0.4,0.1,0.6c-0.5,0.8-1,1.6-1.5,2.3c-0.2,0.4-0.4,0.5-0.8,0.2
	c-1.4-0.9-2.8-1.7-4.2-2.6c-0.2-0.1-0.4-0.3-0.7-0.3c-0.3,0-0.5,0.2-0.6,0.4c-0.1,0.3,0.2,0.3,0.3,0.4c1.6,1,3.1,2,4.7,2.9
	c0.4,0.2,0.4,0.4,0.2,0.7c-0.6,0.8-1.1,1.7-1.6,2.6c-0.2,0.3-0.4,0.4-0.7,0.2c-2.4-1.5-4.7-3-7.1-4.4c-0.7-0.4-1.5-0.8-2.2-1.3
	c-0.8-0.5-1.7-1-2.5-1.6c-0.2-0.2-0.3-0.3-0.1-0.6c0.5-0.8,1-1.5,1.5-2.3c0.1-0.2,0.3-0.3,0.6-0.3C25.8,51.2,26,50.9,26,50.5z
	 M27.4,53.1c0.1-0.1,0.1-0.1,0.1-0.1c0.1-0.2,0-0.4,0-0.5c0-0.1,0-0.2,0.1-0.2c0.1,0,0.1,0,0.2,0.1c0.9,0.7,1.8,1.2,2.9,1.7
	c-0.1-0.2-0.2-0.4-0.2-0.6c-0.1-0.3-0.2-0.6,0-0.9c0.1-0.2,0.2-0.4-0.1-0.5c-0.3-0.1-0.1,0.3-0.2,0.4c0,0-0.1,0-0.1,0.1
	c-0.5-0.3-0.9-0.6-1.5-0.9c-0.3-0.2-1.3,0.2-1.4,0.5c0,0.1,0,0.1,0,0.2C27.3,52.6,27.4,52.8,27.4,53.1z"/>
<path d="M84.7,148.4C84.7,148.3,84.7,148.3,84.7,148.4c-1-0.4-1.1-1.1-1.1-2c0-1.1-0.2-2.2-0.2-3.3c0-0.2-0.3-0.6,0.2-0.6
	c0.1,0,0.1-0.1,0-0.2c-0.2-0.5-0.1-1.1-0.4-1.6c-0.2-0.4-0.1-0.6,0.4-0.7c1.4-0.1,2.9-0.2,4.3-0.3c0.3,0,0.5,0.1,0.5,0.4
	c0,0.7,0.1,1.4,0.1,2c0,0.3,0,0.3-0.3,0.3c-0.7-0.2-0.7-0.1-0.7,0.6c0.1,0.6,0.1,1.2,0.1,1.8c0,0.2-0.1,0.5,0.2,0.6
	c0.4,0,0.7-0.1,0.8-0.6c0-0.3,0-0.5,0.1-0.8c0.2,0.1,0.1,0.3,0.4,0.4c0.2-0.8,0.1-1.7,0.1-2.5c0-0.6-0.1-1.3-0.3-1.9
	c-0.1-0.3,0-0.4,0.3-0.4c0.4,0,0.7,0.1,1.1,0.1c0.5,0,0.6,0.7,0.9,0.7c0.6,0,0.7,0.4,0.9,0.7c0.5,1.1,0.6,2.2,0.5,3.3
	c0,1-0.5,1.7-1.6,1.9c0.5,0.3,1,0.4,1.4,0.7c0.3,0.4,0.5,0.7,0.6,1.2c0.2,1.6,0.3,3.2,0.4,4.7c0,0.4,0,0.7-0.5,0.4
	c-0.1,0-0.1,0-0.2,0c-0.2,0.2,0.3,0.3,0,0.5c-0.2,0.1-0.4,0.1-0.5,0.1c-0.7,0-1.3,0.1-2,0.2c-0.5,0.1-0.7-0.1-0.7-0.6
	c-0.1-1.4-0.2-2.8-0.3-4.2c0-0.3-0.1-0.6-0.1-1c0-0.3-0.2-0.5-0.4-0.6c-0.4-0.2-0.7,0-0.7,0.5c0.1,1.5,0.2,3.1,0.3,4.6
	c0.1,1.6,0.3,1.4-1.2,1.6c-0.8,0.1-1.7,0.1-2.5,0.2c-0.3,0-0.4-0.1-0.4-0.3c0-1.8-0.3-3.7-0.4-5.5c0-0.7,0-0.7,0.6-0.6
	C84.5,148.4,84.6,148.5,84.7,148.4z M91,148.7c0.3-0.4,0.1-0.8,0-1.2c0-0.8-0.3-1.6-0.8-2.3c-0.1-0.2-0.3-0.5-0.5-0.1
	c-0.3,0.5-0.6,1-0.5,1.7c0,0.2,0.1,0.4,0.3,0.4c0.4,0.1,0.6,0.3,0.9,0.7C90.7,148.2,90.8,148.4,91,148.7z"/>
<path d="M78,154.2c-0.2,0.3-0.4,0.4-0.7,0.3c-0.8-0.1-1.6-0.2-2.4-0.3c-0.2,0-0.3-0.1-0.3-0.3c0.2-0.7-0.1-1.4,0.1-2
	c0.1-0.2-0.1-0.3-0.3-0.4c-1-0.2-1.1-0.1-1.2,0.8c-0.3,1.5-0.3,1.6-1.7,1.4c-0.8-0.1-1.6-0.2-2.4-0.3c-0.5-0.1-0.5-0.3-0.4-0.7
	c0.9-3.1,1.8-6.1,2.7-9.2c0.4-1.3,0.7-2.5,1.1-3.8c0.2-0.7,0.2-0.7,0.9-0.6c0.6,0.1,1.3,0.2,1.9,0.3c0.3,0,0.7,0,0.9,0.3
	c0.1,0.1,0.2,0.1,0.3,0.1c0.7-0.3,1.3,0.1,1.9,0.1c0.3,0,0.2,0.2,0.2,0.4c0.1,1.3,0.1,2.6,0.1,3.9c0,1.3,0.1,2.5,0.1,3.8
	c0,2.1,0.1,4.2,0.1,6.3c0,0.2,0.1,0.5-0.3,0.5C78.3,154.7,78,154.7,78,154.2z M75.2,143.6c-0.4,1.5-0.8,2.9-1.2,4.3
	c-0.2,0.8-0.2,0.8,0.7,0.9c0.4,0,0.5-0.1,0.5-0.4c0-0.8,0-1.6,0-2.5c0-0.2,0-0.4,0.1-0.5c0.5-0.3,0.2-0.7,0.2-1
	C75.4,144.1,75.3,143.9,75.2,143.6z M77.4,148.6c0.2-0.3,0.2-0.6,0.1-0.8c-0.1-0.4-0.4-0.7-0.4-1.1c0-0.4-0.1-0.7-0.5-0.9
	c-0.2-0.1-0.4-0.5-0.7-0.4c-0.3,0.2-0.1,0.6,0,0.8c0,0.3,0.1,0.4,0.4,0.2c0.3-0.2,0.4,0,0.5,0.2c0.2,0.4,0.3,0.8,0.4,1.2
	C77.2,148.1,77.2,148.4,77.4,148.6z M71.6,151.4c-0.2,0-0.3,0.1-0.2,0.3c0.2,0.3,0.4,0.7,0.6,1c0.1,0.2,0.4,0.2,0.5-0.1
	C72.6,152,72.1,151.4,71.6,151.4z"/>
<path d="M109.9,30.9c-0.1-0.4,0.1-0.9-0.3-1.3c-0.1,0.5-0.2,1,0,1.4c0.1,0.3,0.1,0.6-0.1,0.9c-0.6,1.1-1.1,2.2-1.6,3.4
	c-0.3,0.7-0.3,1,0.1,1.2c0.4,0.2,0.7,0,1-0.6c0.3-0.5,0.4-1.2,0.9-1.5c0,0,0-0.1,0.1-0.1c0.2-0.7,0.2-0.7,0.9-0.4
	c0.9,0.4,1.7,0.9,2.6,1.3c0.3,0.2,0.4,0.3,0.2,0.6c-0.3,0.7-0.7,1.3-1.1,2c-1,1.7-2.6,2-4.3,1.7c-0.8-0.1-1.5-0.6-2.3-1
	c-0.4-0.2-0.1-0.6-0.3-0.9c-0.3,0.5-0.6,0.3-0.9-0.1c-1-1.1-1.2-2.3-0.7-3.6c0.4-1,0.8-2,1.4-2.9c0.5-0.9,0.9-1.8,1.3-2.8
	c0.3-0.7,0.7-1.4,1.1-2.1c0.4-0.6,0.8-1,1.5-1.3c0.2-0.1,0.4-0.3,0.6,0c0.1,0.1,0.1,0,0.2,0c0.7-0.5,2-0.4,2.6,0.2
	c0,0,0.1,0.1,0.2,0.1c1-0.2,1.6,0.5,2.1,1c1.7,1.6,1.7,2.8,0.9,4.5c-0.3,0.8-0.5,1.6-1,2.3c-0.2,0.3-0.3,0.4-0.6,0.2
	c-1-0.5-2-1-2.9-1.4c-0.3-0.1-0.3-0.3-0.2-0.6c0.4-0.8,0.8-1.6,1.2-2.4c0.1-0.2,0.2-0.4,0.2-0.6c0.1-0.3,0-0.5-0.3-0.6
	c-0.3-0.1-0.5-0.1-0.7,0.1c-0.4,0.4-0.5,0.9-0.8,1.4c-0.3,0.6-0.6,1.1-0.8,1.7C110.2,30.7,110.2,30.9,109.9,30.9z"/>
<path d="M109.1,91.9c-0.1-0.5-0.3-0.8-0.5-1.2c-0.1-0.3-0.3-0.5,0.2-0.7c-0.4-0.2-0.4-0.4-0.4-0.8c0-1.3,0-2.7,0-4
	c0-3.4,0-6.8,0-10.2c0-0.3,0-0.5,0.2-0.8c0,0,0.1-0.2,0.1-0.2c-0.5-0.5-0.2-1-0.2-1.5c0-4.4,0-8.7,0-13.1c0-0.4,0.1-0.5,0.5-0.6
	c0.5-0.1,1-0.3,1.5-0.4c0.6-0.1,0.6-0.1,0.6,0.5c0,2.5,0,5.1,0,7.6c0,1.5,0,2.9,0,4.4c0,6.6,0,13.3,0,19.9c0,0.1,0.1,0.3-0.1,0.4
	c-0.1,0-0.3-0.1-0.3,0.1c0,0.2,0.2,0.1,0.3,0.2c0.1,0.1,0.1,0.2,0.1,0.4c0,2.5,0,5,0.1,7.6c0,0.4-0.1,0.6-0.5,0.7
	c-0.5,0.1-1,0.2-1.5,0.4c-0.6,0.2-0.6,0.2-0.6-0.5c0-2.4,0-4.8,0-7.3c0-0.3,0-0.5,0-0.8c0-0.1-0.1-0.3,0.1-0.4
	c0.1,0,0.2,0.2,0.3,0.2C108.9,91.8,108.9,91.9,109.1,91.9z"/>
<path d="M99,150.6c-1-0.6-0.8-1.6-0.9-2.4c-0.5-3-1-6-1.5-9.1c0-0.3-0.3-0.8,0.2-0.8c0.5-0.1,0.3,0.5,0.4,0.7
	c0.2,1.1,0.3,2.3,0.9,3.3c0,0,0.1,0.1,0.1,0.2c0.1-1-0.1-2-0.3-2.9c-0.1-0.4-0.2-0.8-0.4-1.1c-0.1-0.3-0.1-0.5,0.2-0.6
	c1.3-0.4,2.7-0.8,4-1.3c0.3-0.1,0.4,0,0.6,0.2c1.6,3.2,3.2,6.3,4.8,9.5c0.2,0.4,0.1,0.6-0.3,0.7c1.2,0.1,1.2,1.2,1.6,1.9
	c0.5,0.9,0.5,0.9-0.5,1.2c-0.9,0.3-1.8,0.6-2.7,0.9c-0.3,0.1-0.5,0-0.6-0.3c-0.2-0.5-0.4-1-0.6-1.6c-0.1-0.3-0.3-0.5-0.7-0.3
	c-0.1,0.1-0.3,0.1-0.4,0.1c-0.3,0.1-0.4,0.2-0.3,0.5c0.1,0.6,0.2,1.1,0.4,1.7c0.1,0.3,0,0.5-0.4,0.6c-1.1,0.3-2.1,0.7-3.2,1
	c-0.3,0.1-0.5,0-0.6-0.3c-0.1-0.6-0.2-1.1-0.3-1.7C98.5,150.7,98.5,150.7,99,150.6z M100.7,141.4c0.2,1.6,0.5,3.2,0.8,4.9
	c0.1,0.3,0.2,0.4,0.5,0.3c0.2-0.1,0.3-0.1,0.5-0.1c0.2-0.1,0.3-0.2,0.2-0.4C102.1,144.4,101.4,142.9,100.7,141.4z M98.3,143.2
	c0.1,1.9,0.3,3.7,1,5.4C99.3,146.8,99.2,144.9,98.3,143.2z M101.9,150c-0.2-0.5-0.3-1-0.7-1.4c-0.1-0.1-0.3-0.2-0.5-0.1
	c-0.2,0.1,0,0.3,0,0.4c0.2,0.4,0.5,0.8,0.2,1.4C101.5,149.9,101.5,149.9,101.9,150z M100,152.4c0.3-0.8,0.1-2.1-0.5-2.5
	C99.7,150.7,99.5,151.5,100,152.4z"/>
<path d="M42,40.1c-0.2,0-0.2-0.1-0.3,0c-0.9,0.3-1.5-0.2-2-0.9c-0.8-1.1-1.3-2.3-0.9-3.7c0.2-0.6,0.5-1.2,0.9-1.7
	c0.7-0.9,1.7-1.5,2.7-2c1.8-0.8,3.3-0.3,4.7,1.4c0.5,0.6,0.9,1.1,1.4,1.6c0.2,0.2,0.1,0.4-0.1,0.5c-0.9,0.7-1.8,1.4-2.7,2.1
	c-0.3,0.2-0.4,0-0.5-0.2c-0.4-0.6-0.9-1.1-1.3-1.6c-0.2-0.3-0.5-0.5-0.7-0.8c-0.3-0.3-0.5-0.3-0.8-0.1c-0.3,0.3-0.3,0.6-0.1,0.9
	c0.5,0.7,1.1,1.4,1.6,2.1c0.7,0.8,1.3,1.7,2,2.5c0.2,0.3,0.4,0.5,0,0.8c-0.1,0.1-0.2,0.3,0,0.4c0.2,0.1,0.3-0.1,0.3-0.2
	c0.2-0.2,0.3-0.2,0.5,0c0.3,0.4,0.7,0.8,1,1.2c0.3,0.3,0.6,0.4,0.9,0.1c0.3-0.3,0.3-0.5,0-0.8c-0.5-0.7-1-1.4-1.5-2
	c-0.3-0.3-0.2-0.5,0.1-0.7c0.8-0.7,1.7-1.3,2.5-2c0.2-0.2,0.4-0.2,0.5,0c0.6,0.8,1.3,1.6,1.8,2.6c0.6,1.1,0.3,2.7-0.6,3.7
	c-0.3,0.3-0.5,0.8-0.8,1.1c-0.1,0.1-0.4,0.4-0.4-0.1c0-0.1-0.1-0.1-0.1-0.1c-0.1,0-0.2,0.1-0.2,0.2c-0.4,1.5-1.6,1.4-2.7,1.6
	c-1.4,0.2-2.4-0.7-3.2-1.7c-0.9-1.1-1.8-2.3-2.7-3.4c-0.3-0.4-0.2-0.6,0.2-0.7C41.7,40.3,41.8,40.3,42,40.1z M50.1,42.8
	c0.6-0.1,1.2-0.3,1.7-0.6c0.1-0.1,0.2-0.2,0.2-0.3c0-0.1-0.1-0.1-0.2-0.1c-0.6,0.3-1.2,0.3-1.8,0.3c-0.3,0-0.3,0.2-0.2,0.4
	C49.8,42.8,49.9,42.9,50.1,42.8z"/>
<path d="M89.6,32.5c0.2,0.9,0.2,0.9-0.7,0.8c-0.4,0-0.5-0.2-0.5-0.5c0-0.5,0-1.1,0-1.6c0-0.4-0.2-0.5-0.5-0.5
	c-0.4,0-0.8-0.1-0.9,0.5c0,0.6-0.2,1.1-0.3,1.7c0,0.3-0.2,0.4-0.5,0.4c-0.8-0.1-0.9-0.1-1-0.9c-0.4-2.4-0.7-4.7-1.1-7.1
	c-0.1-0.4,0.1-0.8,0.2-1.2c0.4-1.8,0.8-3.6,1.1-5.4c0.1-0.3,0.3-0.4,0.5-0.4c1.7,0.1,3.3,0.3,5,0.4c0.3,0,0.4,0.2,0.4,0.4
	c0.1,0.9,0.2,1.8,0.2,2.6c0,1.3,0.2,2.5,0.3,3.7c0.1,1.6,0.2,3.2,0.4,4.8c0.1,0.9,0.1,1.9,0.2,2.8c0,0.4-0.1,0.5-0.5,0.5
	c-0.5-0.1-0.9-0.1-1.4-0.1c-0.4,0-0.7-0.1-0.8-0.6C89.8,32.8,89.7,32.7,89.6,32.5z M88.3,22.7c-0.3,1.5-0.6,3.1-0.9,4.6
	c-0.1,0.5,0.2,0.5,0.6,0.6c0.4,0.1,0.6,0,0.6-0.5C88.4,25.8,88.4,24.3,88.3,22.7z"/>
<path d="M19.7,62.2c0.1,0.1-0.1,0.4,0.2,0.3c0.2,0,0.3-0.3,0.3-0.4c-0.3-1.1,0.5-1.5,1.2-2c0.7-0.4,1.4-0.3,2.1-0.1
	c0.6,0.1,1.1,0.3,1.7,0.5c0.2,0.1,0.3,0.2,0.4,0.4c0,0.3,0.2,0.4,0.4,0.1c0.1-0.1,0.2-0.1,0.3-0.1c1,0.4,2,1,2,2.3
	c0,0.8-0.2,1.6-0.5,2.4c-0.2,0.6-0.2,0.6,0.3,0.9c0,0,0,0.1-0.1,0.1c-0.2,0.1-0.6,0.1-0.7,0.4c0,0.5,0.1,1,0.2,1.5
	c0.1,0.2,0.3,0.1,0.4,0c0.1-0.1,0.3-0.2,0.2-0.4c-0.1-0.1-0.2-0.2-0.2-0.3c-0.2-0.3-0.5-0.4,0.1-0.8c0.6-0.4,0.9-0.2,1.4-0.1
	c1.1,0.4,2.2,0.8,3.3,1.2c0.3,0.1,0.3,0.3,0.2,0.5c0,0,0,0,0,0c0,0.6-0.6,0.8-0.6,1.5c0,0.6-0.4,1.1-0.5,1.6
	c-0.1,0.3-0.3,0.3-0.5,0.2c-1.3-0.5-2.7-1-4-1.5c-0.2-0.1-0.4-0.1-0.4-0.4c0-0.3-0.3-0.1-0.4-0.1c-0.9,0-1.6-0.1-2.1-0.9
	c-0.1-0.2-0.3-0.3-0.5-0.4c0,0.1,0,0.1,0,0.2c0,0.1,0.2,0.3,0,0.4c-0.1,0.1-0.3,0-0.4,0c-1.4-0.5-2.9-1-4.3-1.5
	c-0.3-0.1-0.7-0.3-1-0.4c-0.4-0.1-0.4-0.3-0.3-0.6c0.2-0.5,0.3-1,0.5-1.4c0.5-0.8,0.6-1.8,1-2.7C19.5,62.5,19.5,62.3,19.7,62.2z
	 M22.6,63.3c-0.4,0-0.8,0.4-0.8,0.7c0,0.2,0.5,0.6,0.7,0.5c0.2,0,0.3,0,0.4,0.1c0.5,0.2,1.1,0.4,1.6,0.6c0.4,0.2,0.6,0,0.6-0.4
	c0-0.3-0.2-0.6-0.4-0.7c-0.4-0.2-0.7-0.7-1.2-0.5c-0.1,0-0.3-0.1-0.5-0.1C22.9,63.4,22.7,63.4,22.6,63.3z"/>
<path d="M135.2,111.6c0-0.1,0-0.1,0-0.2c-0.2-0.3-0.4-0.7-0.2-0.9c0.2-0.2,0.5,0.2,0.8,0.3c0.3,0.2,0.7,0.3,1,0.3
	c0.2,0.1,0.3-0.2,0.3-0.3c0.2-0.5,0.5-1,0.7-1.5c0.1-0.3,0.3-0.3,0.6-0.2c0.6,0.3,1.3,0.6,1.9,0.9c0.3,0.1,0.3,0.3,0.2,0.6
	c-0.2,0.5-0.5,1-0.7,1.5c-0.2,0.3-0.1,0.5,0.2,0.7c0.6,0.3,1.3,0.6,1.9,0.9c0.4,0.2,0.6,0.1,0.7-0.3c0.3-0.6,0.5-1.1,0.8-1.7
	c0.1-0.3,0.2-0.4,0.6-0.2c0.6,0.3,1.4,0.4,2,0.8c0.4,0.3,0.5,0.8,0.1,1c-0.1,0.1-0.1,0-0.2,0c-0.1-0.1-0.1-0.3-0.3-0.1
	c-0.1,0.1-0.1,0.2,0,0.3c0.3,0.3,0.2,0.6,0,0.9c-0.4,0.8-0.7,1.6-1.1,2.4c-0.1,0.3-0.2,0.6-0.4,0.8c-0.3-0.2,0-0.6-0.3-0.9
	c0,0.4-0.1,0.6-0.5,0.8c-0.3,0.1,0,0.3,0.2,0.4c0.2,0.1,0.5,0,0.4,0.3c-0.1,0.3-0.2,0.7-0.5,0.9c-0.1,0.1-0.3,0-0.2-0.2
	c0-0.1,0.1-0.2,0-0.3c-0.1-0.1-0.2,0-0.3,0.1c-0.1,0.2-0.2,0.1-0.4,0c-0.8-0.4-1.7-0.7-2.4-1.2c-0.2-0.1-0.4-0.1-0.6-0.2
	c-0.8-0.2-1.2-0.9-1.8-1.3c-0.2-0.1-0.3-0.3-0.5,0c-0.1,0.2-0.3,0-0.5,0c-1.2-0.5-2.3-1.1-3.5-1.7c-0.9-0.4-1.7-0.9-2.6-1.2
	c-0.4-0.2-0.5-0.3-0.3-0.7c0.4-0.6,0.8-1.3,1-2c0.3-0.8,0.7-1.5,1-2.3c0.2-0.4,0.4-0.8,0.6-1.2c0.1-0.2,0.2-0.3,0.4-0.2
	c0.7,0.3,1.4,0.7,2.1,1c0.3,0.1,0.3,0.4,0.2,0.6c-0.3,0.6-0.6,1.2-0.9,1.8C134.4,110.5,134.6,111.1,135.2,111.6z"/>
<path d="M55.7,30.5c0.2-0.1,0.3-0.2,0.5-0.3c0.5-0.2,1-0.7,1.4-0.6c0.5,0.1,0.6,0.8,0.8,1.3c0.6,1.1,0.6,1.1-0.5,1.7
	c-1,0.5-1,0.5-0.5,1.6c0.2,0.5,0.5,0.9,0.7,1.4c0.2,0.3,0.3,0.3,0.6,0.2c0.6-0.3,1.1-0.5,1.7-0.9c0.4-0.2,0.6-0.1,0.8,0.3
	c0.3,0.6,0.6,1.2,0.9,1.8c0.2,0.3,0.1,0.5-0.2,0.6c-1.4,0.7-2.9,1.5-4.3,2.2c-0.4,0.2-0.8,0.3-1.1,0.6c-0.3,0.2-0.4,0.1-0.5-0.2
	c-1.3-2.6-2.6-5.1-4-7.7c-0.8-1.5-1.6-3.1-2.4-4.6c-0.2-0.4-0.2-0.6,0.2-0.8c1.7-0.9,3.4-1.7,5.1-2.6c0.3-0.1,0.5-0.1,0.6,0.2
	c0.3,0.7,0.7,1.3,1,2c0.2,0.3,0.1,0.5-0.2,0.6c-0.5,0.2-1,0.5-1.5,0.8c-0.3,0.2-0.4,0.3-0.2,0.7c0.3,0.5,0.6,1.1,0.8,1.6
	C55.4,30.4,55.5,30.5,55.7,30.5z"/>
<path d="M125.5,135.2c-0.5-0.6-1.1-1.1-1.6-1.7c-1.1-1.2-2.3-2.5-3.4-3.7c-0.3-0.3-0.4-0.4-0.7,0c-0.4,0.4-0.8,0.7-1.2,1.1
	c-0.2,0.2-0.3,0.2-0.5,0c-0.5-0.6-1-1.1-1.6-1.7c-0.2-0.2-0.2-0.4,0-0.6c0.3-0.2,0.5-0.6,0.8-0.7c0.4-0.1,0.5-0.5,0.7-0.7
	c0.3-0.3,0.7-0.6,1-0.9c0.3-0.3,0.6-0.6,1-0.9c0.1-0.1,0.2-0.2,0.3-0.2c0.2-0.2,0.4-0.2,0.5,0.1c0.1,0.2,0.2,0.4,0.4,0.6
	c0.1-0.3-0.1-0.6-0.2-0.9c-0.1-0.2-0.1-0.4,0.1-0.6c0.5-0.5,1-0.9,1.5-1.4c0.2-0.1,0.3-0.2,0.5,0c0.4,0.5,1,0.8,1,1.6
	c0,0.2,0.2,0.2,0.3,0.2c0.2-0.1,0.3,0.1,0.4,0.2c0.1,0.1,0,0.3-0.1,0.4c0,0-0.1,0-0.1,0.1c-0.2,0.3-0.6,0.2-0.8,0.3
	c0.1,0.3,0,0.6-0.3,0.8c-0.3,0.2-0.3,0.4,0,0.6c1.3,1.4,2.7,2.9,4,4.3c0.2,0.2,0.4,0.4,0.2,0.7c0,0.1,0,0.2,0.1,0.3
	c0.1,0.1,0.2,0,0.3-0.1c0.2-0.2,0.3,0,0.4,0.1c0.8,0.9,1.6,1.7,2.4,2.6c0.2,0.2,0.2,0.3,0,0.5c-0.8,0.8-1.7,1.5-2.5,2.3
	c-0.2,0.2-0.4,0.3-0.6,0c-0.5-0.6-0.9-1.2-1.6-1.7c-0.2-0.1-0.4-0.3-0.2-0.6c0,0,0-0.1,0-0.1c0-0.2,0.1-0.5-0.2-0.5
	C125.5,134.6,125.8,135,125.5,135.2z"/>
<path d="M96.6,22c-0.1,0.3-0.1,0.8-0.6,0.5c-0.2-0.1-0.5-0.1-0.5-0.4c0-0.3-0.1-0.7,0.4-0.8c0.2,0,0.2-0.2,0.1-0.3
	c-0.3-0.5,0-1,0.1-1.5c0-0.2,0.3-0.2,0.4-0.1c0.5,0.1,1,0.3,1.5,0.4c0.2,0.1,0.4,0.2,0.5,0.4c0.1,0.2,0.2,0.3,0.3,0.4
	c0.1,0.1,0.2,0.3,0.4,0.2c0.2-0.1,0.1-0.3,0-0.4c-0.1-0.3,0-0.4,0.3-0.3c0.5,0.2,1.2,0.1,1.5,0.7c0.1,0.1,0.3,0.3,0.4,0
	c0.1-0.2,0.3-0.1,0.4-0.1c0.8,0.2,1.6,0.4,2.5,0.6c0.4,0.1,0.5,0.3,0.3,0.6c-0.2,0.3,0.1,0.8-0.5,0.9c-0.1,0,0,0.1,0,0.1
	c0.4,0.4,0,0.8-0.1,1.2c0,0.2-0.2,0.2-0.4,0.1c-0.5-0.1-0.9-0.2-1.4-0.4c-0.4-0.1-0.6,0-0.7,0.4c-0.7,2.9-1.5,5.9-2.2,8.8
	c-0.1,0.5-0.3,1.1-0.4,1.6c-0.1,0.3-0.2,0.4-0.6,0.3c-1-0.3-2.1-0.5-3.1-0.8c-0.4-0.1-0.4-0.3-0.3-0.6c0.9-3.4,1.8-6.8,2.7-10.2
	c0.1-0.4,0.1-0.7-0.4-0.8c-0.2,0-0.3-0.2-0.4-0.4C96.8,22.3,96.8,22.1,96.6,22z"/>
<path d="M133.9,120.4c0.1,0.4,0.2,0.8,0.3,1.2c0,0.1,0.1,0.3,0,0.4c-0.3,0.3-0.1,0.5,0.2,0.7c0.6,0.4,1.1,0.8,1.7,1.2
	c0.3,0.2,0.4,0.2,0.6-0.1c0.4-0.6,0.8-1.2,1.2-1.7c0.2-0.3,0.3-0.3,0.6-0.1c0.3,0.3,0.7,0.5,1,0.8c0.2,0.2,0.4,0.3,0.3,0.6
	c0,0.1,0,0.2,0.1,0.2c0.4,0.2,0.3,0.4,0.1,0.7c-1.1,1.6-2.3,3.1-3.4,4.7c-0.3,0.4-0.4,0.4-0.8,0.1c-1.8-1.3-3.5-2.6-5.3-3.9
	c-0.2-0.1-0.3-0.3-0.4-0.4c-0.4-0.8-1-1.4-1.7-2c-0.2-0.2-0.3-0.3-0.2-0.6c0.1-0.3,0-0.6-0.2-0.8c-0.5-0.8-1.2-1.5-1.7-2.4
	c-0.3-0.4-0.4-0.8,0-1.2c0.6-0.7,1.1-1.5,1.6-2.2c0.3-0.4,0.5-0.5,0.9-0.2c0.5,0.4,1.1,0.8,1.6,1.2c0.2,0.1,0.4,0.3,0.1,0.5
	c-0.2,0.2-0.3,0.3-0.5,0.1c-0.1-0.1-0.2-0.2-0.4-0.1c-0.1,0.1-0.1,0.2,0,0.3c0.3,0.5,0.1,0.8-0.2,1.2c-0.2,0.3-0.3,0.5,0.1,0.7
	c0.3,0.2,0.6,0.5,0.9,0.7c0.4,0.3,0.8,0.7,1.3,0.2c0.1-0.1,0.3-0.1,0.4-0.1c0.2,0,0.3,0,0.4,0.1c0.1,0.2,0,0.3-0.2,0.4
	c-0.2,0.2-0.4,0.3-0.6,0.5c-0.2,0.2-0.4,0.4-0.4,0.7c0,0.1,0,0.2,0.1,0.3c0.1,0.1,0.2,0,0.3-0.1c0.2-0.1,0.3-0.3,0.3-0.4
	C132.7,121.1,133.2,120.6,133.9,120.4L133.9,120.4z"/>
<path d="M33.5,41.5c-0.2-0.2-0.3-0.2-0.5-0.3c-0.5-0.2-0.5-0.2-0.1-0.6c0.2-0.2,0.4-0.4,0.6-0.6c0.2-0.2,0.3-0.2,0.4,0.1
	c0,0,0,0,0,0c0,0.7,0.3,0.9,1,0.7c0.2-0.1,0.3,0,0.5,0.2c2,1.8,4,3.6,6,5.4c1,0.9,2,1.8,3,2.7c0.3,0.3,0.3,0.4,0,0.7
	c-0.7,0.8-1.4,1.5-2.1,2.3c-0.2,0.3-0.4,0.2-0.6,0c-2.1-1.9-4.1-3.7-6.2-5.6c-1.3-1.1-2.6-2.3-3.8-3.4c-0.2-0.2-0.6-0.3-0.5-0.6
	c0.2-0.4,0.4-0.8,0.9-0.9C32.5,41.7,33,41.6,33.5,41.5z"/>
<circle class="st0" cx="84.1" cy="86.4" r="76.1"/>
<polygon points="20.8,96.6 23.5,100.7 28.3,99.4 25.2,103.2 27.9,107.3 23.3,105.6 20.2,109.4 20.5,104.5 15.9,102.8 20.6,101.5 "/>
<polygon points="141.7,64.7 144.4,68.8 149.2,67.5 146.1,71.3 148.8,75.4 144.2,73.7 141.2,77.5 141.4,72.6 136.8,70.9 141.5,69.6 
	"/>
<polygon points="28.2,112.1 30.3,115.2 33.8,114.2 31.5,117.1 33.6,120.2 30.1,118.9 27.8,121.8 27.9,118.1 24.5,116.8 28,115.8 "/>
<polygon points="20.4,83.1 22.5,86.3 26.1,85.3 23.7,88.2 25.8,91.3 22.3,90 20,92.9 20.2,89.2 16.7,87.8 20.3,86.9 "/>
<polygon points="135.9,52.1 138,55.2 141.6,54.2 139.3,57.1 141.3,60.2 137.8,58.9 135.5,61.8 135.7,58.1 132.2,56.8 135.8,55.8 "/>
<polygon points="143.8,81 145.9,84.1 149.5,83.1 147.1,86.1 149.2,89.2 145.7,87.8 143.4,90.8 143.6,87 140.1,85.7 143.7,84.7 "/>
</svg>
