<?xml version="1.0" encoding="utf-8"?>
<!-- Generator: Adobe Illustrator 23.0.3, SVG Export Plug-In . SVG Version: 6.00 Build 0)  -->
<svg version="1.1" id="Layer_1" xmlns="http://www.w3.org/2000/svg" xmlns:xlink="http://www.w3.org/1999/xlink" x="0px" y="0px"
	 viewBox="0 0 240.1 265" style="enable-background:new 0 0 240.1 265;" xml:space="preserve">
<path style="fill:#f8ef22;" d="M236.2,225.9L236.2,225.9c0-0.1,0-0.2,0-0.2V16.2l-0.1,0c0,0,0-0.1,0-0.1c0-6.1-4.9-11-11-11
	c-2.8,0-5.4,1-7.4,2.9c0,0-211.1,209.3-212.9,211.1c0,0,0,0,0,0L4.3,220c-1.1,1.8-1.7,3.8-1.7,5.9c0,5.9,4.6,10.7,10.6,11l1.2,0
	c0,0,0,0.1,0,0.1h210.2c0,0,0-0.1,0-0.1l1.2-0.1C231.6,236.6,236.2,231.8,236.2,225.9z"/>
<path d="M238.8,16.2l0-0.1c0-7.5-6.1-13.6-13.6-13.6c-3.4,0-6.7,1.3-9.2,3.6l-0.2,0.2L1.2,219.1c0,0,0.2,0.2,0.5,0.5
	c-1.1,2-1.6,4.2-1.6,6.4c0,6.9,5.1,12.5,11.8,13.4c0,0.1,0,0.3,0,0.3h215.3c0,0,0-0.2,0-0.3c6.6-0.9,11.7-6.6,11.7-13.4l0-0.2
	L238.8,16.2z M224.5,237C224.5,237,224.5,237,224.5,237l-210.2,0.1c0,0,0-0.1,0-0.1l-1.2,0c-5.9-0.2-10.6-5.1-10.6-11
	c0-2.1,0.6-4.1,1.7-5.9l0.6-0.9c0,0,0,0,0,0C6.7,217.3,217.7,8,217.7,8c2-1.9,4.7-2.9,7.4-2.9c6.1,0,11,4.9,11,11c0,0,0,0.1,0,0.1
	l0.1,0v209.5c0,0,0,0.1,0,0.2v0c0,5.9-4.6,10.7-10.4,11L224.5,237z"/>
<path d="M53,212.2h12.9c0.1,2.5,1,4.4,2.7,5.6c1.7,1.2,4.2,1.9,7.5,1.9c2.5,0,4.5-0.4,5.8-1.3c1.4-0.9,2.1-2.1,2.1-3.7
	c0-2.3-2.6-3.9-7.7-5.1c-2.1-0.5-3.8-0.9-5-1.2c-6.3-1.6-10.7-3.6-13.1-5.8c-2.4-2.2-3.7-5.3-3.7-9.1c0-5.1,1.8-9.1,5.4-12
	c3.6-3,8.4-4.4,14.5-4.4c6.5,0,11.6,1.5,15.3,4.4c3.7,2.9,5.7,7.1,5.9,12.4H82.8c-0.1-2.1-0.9-3.7-2.3-4.9c-1.5-1.2-3.5-1.7-6.1-1.7
	c-2.5,0-4.3,0.4-5.5,1.1c-1.2,0.8-1.8,1.9-1.8,3.4c0,2,3.2,3.7,9.7,5.3c1.5,0.3,2.7,0.6,3.5,0.8c6.4,1.5,10.8,3.4,13.2,5.6
	c2.4,2.2,3.5,5.3,3.5,9.2c0,5.6-1.9,9.9-5.8,12.9c-3.9,2.9-9.5,4.4-16.9,4.4c-6.7,0-11.9-1.5-15.7-4.6c-3.8-3.1-5.7-7.3-5.7-12.7
	V212.2z"/>
<path d="M133.2,222.2c-1.6,2.6-3.8,4.5-6.4,5.9c-2.6,1.4-5.7,2-9.2,2c-4.7,0-8.3-1.4-10.8-4.1c-2.5-2.7-3.8-6.6-3.8-11.7
	c0-4.7,1.3-8.2,3.8-10.7c2.5-2.5,6.7-4.1,12.6-5.1c1.3-0.2,3.1-0.5,5.2-0.7c5.5-0.7,8.2-2.4,8.2-4.9c0-2-0.6-3.4-1.8-4.3
	c-1.2-0.9-3.2-1.3-6.1-1.3c-2.6,0-4.6,0.5-6,1.6c-1.4,1.1-2.1,2.6-2.1,4.5v0.7h-12.1v-0.9c0-5.1,1.7-9.1,5.3-11.9
	c3.5-2.9,8.3-4.3,14.5-4.3c6.8,0,11.9,1.2,15.6,3.6c3.6,2.4,5.4,5.9,5.4,10.4v28.1c0,2.1,0.2,3.6,0.6,4.6c0.4,1,1.1,1.8,2.1,2.3v2.2
	h-13.5c-0.4-0.9-0.8-1.8-1-2.8C133.3,224.5,133.2,223.3,133.2,222.2z M132.9,203.9c-2.1,1-4.5,1.8-7.3,2.4c-2.7,0.6-4.2,0.9-4.2,1
	c-2.3,0.7-3.9,1.5-4.8,2.5c-0.9,1-1.4,2.4-1.4,4.1c0,1.8,0.6,3.3,1.7,4.3c1.2,1.1,2.7,1.6,4.7,1.6c3.5,0,6.2-1,8.3-3
	c2-2,3-4.8,3-8.3V203.9z"/>
<path d="M159,228.3v-40.2H152v-9.3h6.9v-4.6c0-4.6,1.2-8,3.5-10.2c2.3-2.2,6-3.3,11-3.3c0.9,0,1.9,0,2.9,0.1c1,0,2.1,0.1,3.3,0.3
	v10.5h-3.4c-1.9,0-3.2,0.3-3.8,0.8c-0.6,0.5-0.9,1.5-0.9,2.9v3.4h8.1v9.3h-8v40.2H159z"/>
<path d="M216.1,213.3H229c-1.3,5.2-3.9,9.3-7.9,12.3c-4,3-8.8,4.5-14.5,4.5c-7,0-12.6-2.4-16.7-7.2c-4.1-4.8-6.1-11.3-6.1-19.6
	c0-8.1,2-14.5,6.1-19.2c4-4.7,9.6-7,16.6-7c7.4,0,13.2,2.3,17.2,6.9c4,4.6,6.1,11.1,6.1,19.6c0,0.9,0,1.6,0,2.1
	c0,0.5-0.1,0.9-0.1,1.3h-32.3c0.2,3.9,1.1,6.9,2.8,8.8c1.7,2,4.1,3,7.2,3c2.2,0,4.1-0.5,5.5-1.4
	C214.1,216.6,215.3,215.2,216.1,213.3z M197.2,198.3h19.1c-0.1-3.3-1-5.9-2.6-7.6c-1.6-1.7-3.9-2.6-7-2.6c-2.8,0-5,0.9-6.7,2.6
	C198.4,192.5,197.4,195,197.2,198.3z"/>
<path d="M111.7,170.8c-0.6,0.8-1.2,1.4-1.9,1.8c-0.7,0.4-1.5,0.6-2.5,0.6c-2.1,0-3.8-0.8-5.1-2.3c-1.3-1.5-1.9-3.6-1.9-6.1
	c0-2.5,0.6-4.5,1.9-6.1c1.3-1.5,3-2.3,5.1-2.3c1.9,0,3.4,0.5,4.6,1.4c1.2,0.9,1.9,2.3,2.1,3.9H111c-0.2-0.8-0.6-1.4-1.2-1.9
	c-0.6-0.4-1.3-0.6-2.3-0.6c-1.2,0-2.2,0.5-2.9,1.5c-0.7,1-1.1,2.3-1.1,4c0,1.7,0.4,3.1,1.1,4c0.7,1,1.8,1.5,3.1,1.5
	c1,0,1.8-0.3,2.4-0.9c0.7-0.6,1.1-1.4,1.2-2.5H108v-2.7h6.2v8.6h-2L111.7,170.8z"/>
<path d="M120.8,156.8h3.5l5.4,15.9h-3.2l-1-3.3h-5.8l-1,3.3h-3.2L120.8,156.8z M122.6,160l-2.1,6.7h4.1L122.6,160z"/>
<path d="M130.6,167.7h3c0.1,0.9,0.4,1.5,1,1.9c0.6,0.4,1.3,0.6,2.4,0.6c0.9,0,1.6-0.2,2-0.5c0.5-0.3,0.7-0.8,0.7-1.5
	c0-1-1.3-1.8-3.9-2.4c0,0-0.1,0-0.1,0c-0.1,0-0.2,0-0.3-0.1c-1.4-0.3-2.4-0.7-3-1.1c-0.5-0.4-0.9-0.8-1.2-1.4
	c-0.3-0.6-0.4-1.3-0.4-2.1c0-1.5,0.5-2.7,1.5-3.5c1-0.8,2.4-1.2,4.3-1.2c1.7,0,3.1,0.4,4.1,1.3c1,0.9,1.5,2.1,1.5,3.7h-2.9
	c-0.1-0.8-0.3-1.4-0.8-1.8c-0.5-0.4-1.2-0.6-2.1-0.6c-0.8,0-1.4,0.2-1.9,0.5c-0.4,0.3-0.7,0.8-0.7,1.4c0,0.8,0.8,1.5,2.5,1.9
	c0.5,0.1,0.8,0.2,1.1,0.3c1.1,0.3,1.9,0.5,2.3,0.7c0.5,0.2,0.8,0.3,1.2,0.5c0.6,0.4,1.1,0.8,1.4,1.4c0.3,0.6,0.5,1.3,0.5,2.1
	c0,1.7-0.5,2.9-1.6,3.8c-1,0.9-2.5,1.4-4.4,1.4c-1.9,0-3.3-0.5-4.4-1.4C131.2,170.8,130.7,169.4,130.6,167.7z"/>
<path d="M214.9,164.9v6.8h-2v-6.8h-2.7v-1.7h7.5v1.7H214.9z"/>
<path d="M218.5,171.8v-8.6h2.6l2.6,6.1l2.7-6.1h2.6v8.6H227v-5.7l-2.5,5.7h-1.7l-2.4-5.8v5.8H218.5z"/>
<path d="M107.7,263.9v-17.4h7.9c1.8,0,3.1,0.4,4,1.2c0.9,0.8,1.3,2.1,1.3,3.7c0,1.1-0.2,2-0.6,2.7c-0.4,0.7-1,1.2-1.8,1.5
	c0.7,0.3,1.2,0.7,1.5,1.2c0.3,0.6,0.5,1.4,0.5,2.6l0.1,2.1c0,0,0,0,0,0.1c0,1,0.2,1.7,0.6,1.9v0.5h-3.7c-0.1-0.2-0.2-0.5-0.3-0.9
	c-0.1-0.4-0.1-0.8-0.1-1.3l0-1.8c0-1.1-0.2-1.8-0.6-2.2c-0.3-0.4-1-0.6-1.9-0.6h-3.6v6.8H107.7z M111.1,254.1h3.9
	c0.9,0,1.5-0.2,1.9-0.6c0.4-0.4,0.6-1,0.6-1.7c0-0.8-0.2-1.3-0.6-1.7c-0.4-0.4-1-0.6-1.8-0.6h-4.1V254.1z"/>
<path d="M123.9,263.9v-17.4h11.9v3h-8.5v3.7h7.8v3h-7.8v4.5h8.9v3.2H123.9z"/>
<path d="M150.5,261.9c-0.6,0.9-1.3,1.5-2.1,1.9c-0.8,0.4-1.7,0.6-2.7,0.6c-2.3,0-4.1-0.8-5.6-2.5c-1.4-1.7-2.1-3.9-2.1-6.7
	c0-2.8,0.7-5,2.1-6.7c1.4-1.7,3.3-2.5,5.6-2.5c2,0,3.7,0.5,5,1.6c1.3,1,2.1,2.5,2.3,4.3h-3.4c-0.2-0.9-0.6-1.6-1.3-2.1
	c-0.6-0.5-1.5-0.7-2.5-0.7c-1.4,0-2.4,0.5-3.2,1.6c-0.8,1.1-1.2,2.5-1.2,4.4c0,1.9,0.4,3.4,1.2,4.5c0.8,1.1,1.9,1.6,3.4,1.6
	c1.1,0,2-0.3,2.7-1c0.7-0.7,1.2-1.6,1.3-2.8h-3.7v-3h6.8v9.4h-2.3L150.5,261.9z"/>
<path d="M156.5,263.9v-17.4h3.4v17.4H156.5z"/>
<path d="M162.7,258.5h3.3c0.1,1,0.5,1.7,1.1,2.1c0.6,0.5,1.5,0.7,2.6,0.7c1,0,1.7-0.2,2.2-0.6c0.5-0.4,0.7-0.9,0.7-1.6
	c0-1.1-1.4-1.9-4.3-2.6c0,0-0.1,0-0.1,0c-0.1,0-0.2,0-0.3-0.1c-1.5-0.4-2.6-0.8-3.3-1.2c-0.6-0.4-1-0.9-1.3-1.6
	c-0.3-0.7-0.5-1.5-0.5-2.4c0-1.7,0.5-3,1.6-3.9c1.1-0.9,2.6-1.4,4.7-1.4c1.9,0,3.4,0.5,4.5,1.4c1.1,1,1.6,2.3,1.7,4.1h-3.2
	c-0.1-0.8-0.4-1.5-0.9-1.9c-0.5-0.4-1.3-0.7-2.3-0.7c-0.9,0-1.6,0.2-2,0.5c-0.5,0.4-0.7,0.9-0.7,1.6c0,0.9,0.9,1.6,2.8,2.1
	c0.5,0.1,0.9,0.2,1.2,0.3c1.2,0.3,2,0.6,2.5,0.8c0.5,0.2,0.9,0.4,1.3,0.6c0.7,0.4,1.2,0.9,1.5,1.6c0.3,0.7,0.5,1.4,0.5,2.3
	c0,1.8-0.6,3.2-1.7,4.2c-1.1,1-2.8,1.5-4.8,1.5c-2.1,0-3.7-0.5-4.8-1.5C163.4,261.9,162.7,260.4,162.7,258.5z"/>
<path d="M181.9,263.9v-14.3h-4.8v-3.1h13v3.1h-4.8v14.3H181.9z"/>
<path d="M192.1,263.9v-17.4h11.9v3h-8.5v3.7h7.8v3h-7.8v4.5h8.9v3.2H192.1z"/>
<path d="M206.9,263.9v-17.4h7.9c1.8,0,3.1,0.4,4,1.2c0.9,0.8,1.3,2.1,1.3,3.7c0,1.1-0.2,2-0.6,2.7c-0.4,0.7-1,1.2-1.8,1.5
	c0.7,0.3,1.2,0.7,1.5,1.2c0.3,0.6,0.5,1.4,0.5,2.6l0.1,2.1c0,0,0,0,0,0.1c0,1,0.2,1.7,0.6,1.9v0.5h-3.7c-0.1-0.2-0.2-0.5-0.3-0.9
	c-0.1-0.4-0.1-0.8-0.1-1.3l0-1.8c0-1.1-0.2-1.8-0.6-2.2c-0.3-0.4-1-0.6-1.9-0.6h-3.6v6.8H206.9z M210.3,254.1h3.9
	c0.9,0,1.5-0.2,1.9-0.6c0.4-0.4,0.6-1,0.6-1.7c0-0.8-0.2-1.3-0.6-1.7c-0.4-0.4-1-0.6-1.8-0.6h-4.1V254.1z"/>
</svg>
