<?xml version="1.0" encoding="utf-8"?>
<!-- Generator: Adobe Illustrator 23.0.3, SVG Export Plug-In . SVG Version: 6.00 Build 0)  -->
<svg version="1.1" id="Layer_1" xmlns="http://www.w3.org/2000/svg" xmlns:xlink="http://www.w3.org/1999/xlink" x="0px" y="0px"
	 viewBox="0 0 170.1 170.1" style="enable-background:new 0 0 170.1 170.1;" xml:space="preserve">
<g>
	<g>
		<path d="M156.2,133.6h-0.5V97.1v-7.4V68c0-10.5-8.6-19.1-19.1-19.1h-9.7c-7.7,0-14.3,4.5-17.3,11.1L79.1,36.5
			c-1.6-1.2-3.5-1.9-5.5-1.9c-2.8,0-5.4,1.3-7.2,3.5l-3.5,4.5l44.8,34.6v12.6v7.4v4.4l-51.9-40l-0.1-0.1c-2.1-1.4-4.5-2.1-6.9-2.1
			H7.6v18.2v6.6V90c0,3.1,2.6,5.7,5.7,5.7h19c3.1,0,5.7-2.6,5.7-5.7v-5.9H45l62.8,48.7v0.8h-0.5c-5,0-9,4.1-9,9v6.9h67v-6.9
			C165.2,137.7,161.2,133.6,156.2,133.6z M103,142.7c0-2.4,2-4.4,4.4-4.4h0.5h2.3h43.2h2.3h0.5c2.4,0,4.4,2,4.4,4.4v2.2H103V142.7z
			 M33.4,90c0,0.6-0.5,1-1,1h-19c-0.6,0-1-0.5-1-1v-5.9h21V90z M12.3,79.4v-1.9V64h36.5c1.5,0,3,0.4,4.3,1.3l54.7,42.2v19.4
			L46.6,79.4h-8.5H12.3z M112.5,105.2v-8v-2.3v-0.3H151v0.3v2.3v36.5h-34.1h-2.8h-1.4h-0.2v-0.1v-3v-19.4v-3V105.2z M70.1,41
			c0.8-1.1,2.1-1.7,3.5-1.7c1,0,1.9,0.3,2.7,0.9l31.8,24.5c-0.2,1.1-0.3,2.2-0.3,3.3v3.3L69.5,41.8L70.1,41z M112.5,80.8v-3v-3v-6.8
			V68c0-0.9,0.1-1.8,0.2-2.6c0.2-0.8,0.4-1.7,0.7-2.4c2.1-5.4,7.3-9.3,13.5-9.3h9.7c7.9,0,14.4,6.5,14.4,14.4v21.8h-38.5V80.8z"/>
		<path d="M166.2,150.5h-69v-7.9c0-5.1,3.8-9.3,8.7-10L44.6,85.1h-5.6V90c0,3.7-3,6.7-6.7,6.7h-19c-3.7,0-6.7-3-6.7-6.7V58.3h42.2
			c2.7,0,5.3,0.8,7.5,2.3l50.4,38.9V77.7L61.5,42.8l4.1-5.3c1.9-2.5,4.8-3.9,8-3.9c2.2,0,4.4,0.7,6.1,2.1l29.5,22.7
			c3.5-6.4,10.3-10.5,17.7-10.5h9.7c11.1,0,20.1,9,20.1,20.1v64.6c5.3,0.3,9.5,4.7,9.5,10V150.5z M99.3,148.5h64.9v-5.8
			c0-4.4-3.6-8-8-8h-1.5V68c0-10-8.1-18.1-18.1-18.1h-9.7c-7,0-13.4,4.1-16.4,10.5l-0.5,1.1L78.5,37.3c-1.4-1.1-3.1-1.7-4.9-1.7
			c-2.5,0-4.8,1.1-6.4,3.1l-2.9,3.7l44.4,34.3v26.9L55.3,62.3c-2-1.3-4.2-2-6.4-2H8.7V90c0,2.6,2.1,4.7,4.7,4.7h19
			c2.6,0,4.7-2.1,4.7-4.7v-6.9h8.3l63.5,49.2v2.3h-1.5c-4.4,0-8,3.6-8,8V148.5z M161.5,145.8H102v-3.2c0-3,2.4-5.4,5.4-5.4h48.9
			c3,0,5.4,2.4,5.4,5.4V145.8z M104,143.8h55.5v-1.1c0-1.8-1.5-3.3-3.3-3.3h-48.9c-1.8,0-3.3,1.5-3.3,3.3V143.8z M152,134.6h-40.4
			l-0.2-1V93.4H152V134.6z M113.5,132.6H150V95.5h-36.5V132.6z M108.8,128.9L46.2,80.4H11.3V63h37.5c1.7,0,3.4,0.5,4.8,1.4
			l55.1,42.5V128.9z M13.3,78.4h33.6l59.8,46.4V108L52.5,66.1c-1-0.7-2.3-1.1-3.6-1.1H13.3V78.4z M32.4,92h-19c-1.1,0-2-0.9-2-2
			v-6.9h23.1V90C34.4,91.1,33.5,92,32.4,92z M13.3,85.1V90l19,0v-4.9H13.3z M152,90.8h-40.6V68.1c0-1.1,0.1-2,0.3-3
			c0.2-0.9,0.4-1.8,0.7-2.6c2.3-6,8.1-10,14.4-10h9.7c8.5,0,15.4,6.9,15.4,15.4V90.8z M113.5,88.8H150V68c0-7.4-6-13.4-13.4-13.4
			h-9.7c-5.5,0-10.6,3.5-12.5,8.7c-0.3,0.7-0.5,1.5-0.6,2.3c-0.2,0.8-0.2,1.6-0.2,2.5V88.8z M108.8,73.3L68.1,41.9l1.2-1.6
			c1.8-2.3,5.3-2.7,7.5-1l32.3,24.9l-0.1,0.6c-0.2,1-0.3,2.1-0.3,3.1V73.3z M70.9,41.6l35.8,27.6V68c0-0.9,0.1-1.9,0.2-2.8L75.6,41
			C74.2,39.9,72,40.2,70.9,41.6z"/>
	</g>
	<g>
		<path d="M26.6,102.3l0-0.2l-0.4-0.4c-0.2-0.3-1.4-1.6-3.3-1.6c-0.8,0-2,0.2-3.2,1.4c-0.7,0.7-13,21.7-14.1,26.4
			c-1.4,5.2-0.3,10.8,3.1,15.2c3.4,4.5,8.6,7.1,14.2,6.9h0.2c0.1,0,0.3,0,0.4,0c0,0,0,0,0,0c5.4,0,10.4-2.5,13.8-6.9
			c3.4-4.4,4.5-10,3.1-15.2C39.2,124,31.3,110.2,26.6,102.3z M23,145.4l-0.3,0l0,0c-4.1,0.1-7.8-1.8-10.4-5.1
			C9.8,137.1,9,133,10,129.2l0-0.1c0.7-3.3,9.9-19.1,12.8-23.9c7.3,12.2,12.3,21.6,12.8,23.9l0,0.1c1.1,3.8,0.2,7.9-2.3,11.2
			C30.8,143.7,27.1,145.6,23,145.4z"/>
		<path d="M22.4,151.2c-5.8,0-11.1-2.7-14.7-7.3c-3.6-4.7-4.8-10.6-3.2-16.1c1.2-5,13.7-26.2,14.4-26.9c1.4-1.4,2.9-1.7,3.9-1.7
			c2.4,0,3.8,1.6,4.1,2l0.6,0.9l0,0c5.7,9.6,12.7,21.9,13.6,25.8c1.5,5.5,0.3,11.4-3.3,16.1c-3.5,4.7-8.9,7.3-14.6,7.3l-0.4,0
			C22.7,151.2,22.6,151.2,22.4,151.2z M22.8,101.1c-0.6,0-1.5,0.2-2.5,1.1c-1,1.3-12.8,21.5-13.9,26c-1.4,5-0.3,10.2,2.9,14.4
			c3.3,4.3,8,6.6,13.4,6.5l0.6,0c5.1,0,9.8-2.4,13-6.5c3.2-4.2,4.2-9.4,2.9-14.3c-0.7-2.9-5.6-12.1-13.5-25.4l-0.3-0.5
			C25.3,102.2,24.3,101.1,22.8,101.1z M22.3,146.5c-4.2,0-8.2-2-10.8-5.5c-2.7-3.5-3.6-7.9-2.4-12.1c0.9-4.1,12.8-24,12.9-24.2
			l0.9-1.5l0.9,1.5c5.8,9.8,12.2,21.3,12.9,24.2c1.2,4.2,0.3,8.6-2.4,12.1c-2.7,3.6-6.8,5.6-11.2,5.5h-0.3
			C22.6,146.5,22.4,146.5,22.3,146.5z M23,144.4L23,144.4c3.7,0.2,7.2-1.6,9.6-4.7c2.3-3,3.1-6.8,2.1-10.3
			c-0.4-1.9-4.2-9.4-11.8-22.3c-4.3,7.2-11.2,19.5-11.8,22.1c-1,3.7-0.2,7.4,2.1,10.4c2.3,3.1,5.9,4.8,9.5,4.7H23z"/>
	</g>
	<g>
		<path d="M33.6,129.5c-0.3-1.3-1.6-2-2.9-1.7c-1.3,0.3-2,1.6-1.7,2.9l0.1,0.3c0.5,1.8,0.1,3.7-1.1,5.3c-1.2,1.6-3,2.5-4.9,2.4
			l-0.5,0l-0.2,0c-1.3,0-2.3,1.1-2.3,2.4c0,1.3,1.1,2.3,2.4,2.3l0,0l0.4,0c0.1,0,0.2,0,0.2,0c3.3,0,6.4-1.6,8.4-4.3
			c2.1-2.8,2.8-6.2,1.9-9.4L33.6,129.5z"/>
		<path d="M23.3,144.5l-0.7,0c-0.9,0-1.8-0.3-2.4-0.9c-0.7-0.6-1-1.5-1-2.3c0-1.9,1.4-3.4,3.3-3.5h0.7c1.6,0,3-0.7,4.1-2
			c1-1.3,1.4-3,1-4.5l-0.1-0.3c-0.5-1.8,0.6-3.6,2.4-4.1c1.8-0.5,3.6,0.6,4.1,2.4l0.1,0.2c1,3.5,0.2,7.3-2.1,10.3
			C30.3,142.7,26.9,144.5,23.3,144.5z M22.6,139.8c-0.9,0-1.4,0.6-1.4,1.4c0,0.4,0.2,0.7,0.4,0.9c0.3,0.2,0.6,0.4,1,0.4h0.5
			c0,0,0,0,0,0c3.2,0,6-1.4,7.9-3.9c1.9-2.5,2.6-5.6,1.8-8.5l-0.1-0.2c-0.2-0.7-0.9-1.1-1.6-1c-0.3,0.1-0.6,0.3-0.8,0.6
			c-0.2,0.3-0.2,0.7-0.1,1l0.1,0.3c0.6,2.1,0.1,4.4-1.3,6.2c-1.4,1.9-3.5,2.8-5.7,2.8L22.6,139.8z"/>
	</g>
</g>
</svg>
