<svg xmlns="http://www.w3.org/2000/svg" width="31" height="32">
    <defs>
        <linearGradient id="a" x1="70.711%" x2="0%" y1="70.711%" y2="0%">
            <stop offset="0%" stop-color="#F15A2A"/>
            <stop offset="95%" stop-color="#FAA634"/>
        </linearGradient>
    </defs>
    <path fill="#444" fill-rule="evenodd" d="M30.469 9.29H28.92v6.194c0 4.553-3.705 8.258-8.258 8.258-4.554 0-8.259-3.705-8.259-8.258V8.258a2.067 2.067 0 0 0-2.065-2.065 2.067 2.067 0 0 0-2.064 2.065v6.193h1.548c.285 0 .516.232.516.517v2.064a.516.516 0 0 1-.516.516H8.274v1.032h.516c.285 0 .516.232.516.517v2.064a.516.516 0 0 1-.516.516h-.516v1.549a.517.517 0 0 1-.517.516H2.596a.516.516 0 0 1-.516-.516v-1.549h-.516a.517.517 0 0 1-.517-.516v-2.064c0-.285.232-.517.517-.517h.516v-1.032H.531a.516.516 0 0 1-.516-.516v-2.064c0-.285.231-.517.516-.517H2.08V8.258C2.08 3.705 5.785 0 10.338 0c4.554 0 8.259 3.705 8.259 8.258v7.226c0 1.138.926 2.064 2.065 2.064a2.066 2.066 0 0 0 2.064-2.064V9.29h-1.548a.516.516 0 0 1-.516-.516V6.709c0-.284.231-.516.516-.516h1.548V5.161h-.516a.516.516 0 0 1-.516-.516V2.581c0-.285.231-.517.516-.517h.516V.516c0-.285.231-.516.516-.516h5.162c.285 0 .516.231.516.516v1.548h.516c.285 0 .516.232.516.517v2.064a.516.516 0 0 1-.516.516h-.516v1.032h1.549c.285 0 .516.232.516.516v2.065a.516.516 0 0 1-.516.516zM3.112 22.71h4.129v-1.033H3.112v1.033zM2.08 20.645h6.194v-1.032H2.08v1.032zm5.161-2.065v-1.032H3.112v1.032h4.129zm-6.194-3.096v1.032h8.259v-1.032H1.047zm19.615 3.096a3.1 3.1 0 0 1-3.097-3.096V8.258c0-3.985-3.242-7.226-7.227-7.226a7.233 7.233 0 0 0-7.226 7.226v6.193h4.129V8.258a3.1 3.1 0 0 1 3.097-3.097 3.1 3.1 0 0 1 3.097 3.097v7.226c0 3.984 3.242 7.226 7.227 7.226 3.984 0 7.226-3.242 7.226-7.226V9.29h-4.13v6.194a3.099 3.099 0 0 1-3.096 3.096zm7.226-17.548h-4.13v1.032h4.13V1.032zm1.032 2.065h-6.194v1.032h6.194V3.097zm-5.162 2.064v1.032h4.13V5.161h-4.13zm6.194 2.065h-8.258v1.032h8.258V7.226zM4.747 25.004c.192-.288.668-.288.859 0l1.544 2.317a3.6 3.6 0 0 1 .607 2.004v.094a2.59 2.59 0 0 1-.844 1.91 2.592 2.592 0 0 1-1.988.659c-1.306-.125-2.329-1.292-2.329-2.658 0-.721.21-1.414.607-2.01l1.544-2.316zm.276 5.956c.446.044.869-.098 1.195-.395.322-.293.507-.711.507-1.146v-.094c0-.512-.15-1.007-.433-1.432l-1.115-1.672-1.115 1.672c-.284.425-.434.92-.434 1.431 0 .846.613 1.562 1.395 1.636z"/>
    <path fill="url(#a)" d="M30.469 9.29H28.92v6.194c0 4.553-3.705 8.258-8.258 8.258-4.554 0-8.259-3.705-8.259-8.258V8.258a2.067 2.067 0 0 0-2.065-2.065 2.067 2.067 0 0 0-2.064 2.065v6.193h1.548c.285 0 .516.232.516.517v2.064a.516.516 0 0 1-.516.516H8.274v1.032h.516c.285 0 .516.232.516.517v2.064a.516.516 0 0 1-.516.516h-.516v1.549a.517.517 0 0 1-.517.516H2.596a.516.516 0 0 1-.516-.516v-1.549h-.516a.517.517 0 0 1-.517-.516v-2.064c0-.285.232-.517.517-.517h.516v-1.032H.531a.516.516 0 0 1-.516-.516v-2.064c0-.285.231-.517.516-.517H2.08V8.258C2.08 3.705 5.785 0 10.338 0c4.554 0 8.259 3.705 8.259 8.258v7.226c0 1.138.926 2.064 2.065 2.064a2.066 2.066 0 0 0 2.064-2.064V9.29h-1.548a.516.516 0 0 1-.516-.516V6.709c0-.284.231-.516.516-.516h1.548V5.161h-.516a.516.516 0 0 1-.516-.516V2.581c0-.285.231-.517.516-.517h.516V.516c0-.285.231-.516.516-.516h5.162c.285 0 .516.231.516.516v1.548h.516c.285 0 .516.232.516.517v2.064a.516.516 0 0 1-.516.516h-.516v1.032h1.549c.285 0 .516.232.516.516v2.065a.516.516 0 0 1-.516.516zM3.112 22.71h4.129v-1.033H3.112v1.033zM2.08 20.645h6.194v-1.032H2.08v1.032zm5.161-2.065v-1.032H3.112v1.032h4.129zm-6.194-3.096v1.032h8.259v-1.032H1.047zm19.615 3.096a3.1 3.1 0 0 1-3.097-3.096V8.258c0-3.985-3.242-7.226-7.227-7.226a7.233 7.233 0 0 0-7.226 7.226v6.193h4.129V8.258a3.1 3.1 0 0 1 3.097-3.097 3.1 3.1 0 0 1 3.097 3.097v7.226c0 3.984 3.242 7.226 7.227 7.226 3.984 0 7.226-3.242 7.226-7.226V9.29h-4.13v6.194a3.099 3.099 0 0 1-3.096 3.096zm7.226-17.548h-4.13v1.032h4.13V1.032zm1.032 2.065h-6.194v1.032h6.194V3.097zm-5.162 2.064v1.032h4.13V5.161h-4.13zm6.194 2.065h-8.258v1.032h8.258V7.226zM4.747 25.004c.192-.288.668-.288.859 0l1.544 2.317a3.6 3.6 0 0 1 .607 2.004v.094a2.59 2.59 0 0 1-.844 1.91 2.592 2.592 0 0 1-1.988.659c-1.306-.125-2.329-1.292-2.329-2.658 0-.721.21-1.414.607-2.01l1.544-2.316zm.276 5.956c.446.044.869-.098 1.195-.395.322-.293.507-.711.507-1.146v-.094c0-.512-.15-1.007-.433-1.432l-1.115-1.672-1.115 1.672c-.284.425-.434.92-.434 1.431 0 .846.613 1.562 1.395 1.636z"/>
</svg>
