<?xml version="1.0" encoding="utf-8"?>
<!-- Generator: Adobe Illustrator 23.0.3, SVG Export Plug-In . SVG Version: 6.00 Build 0)  -->
<svg version="1.1" id="Layer_1" xmlns="http://www.w3.org/2000/svg" xmlns:xlink="http://www.w3.org/1999/xlink" x="0px" y="0px"
	 viewBox="0 0 170.1 170.1" style="enable-background:new 0 0 170.1 170.1;" xml:space="preserve">
<path d="M151.1,156.4c-0.3,0-1,0-1.4-0.5c-0.5-0.5-0.5-1.3-0.5-1.6c0-0.8,0-1.5,0-2.3c0-1,0-2,0-3c-2.8,0-5.4,0-7.9,0
	c-3.1,0-6.1,0-9.2,0c-0.4,0-1.2-0.1-1.7-0.6c-0.5-0.5-0.6-1.2-0.5-1.7c0-1.1,0-2.1,0-3.2c0-1,0-2,0-3.1c0-0.7,0.2-1.5,0.6-2
	c2.6-4.3,5.3-8.6,8-12.9l6.4-10.4c0.5-0.9,1.3-1.3,2.3-1.3c0,0,0,0,0,0c2.9,0,5.8,0,8.6,0h3.8c0.2,0,0.5,0,0.7,0l1.5,0.1l0,23.7
	c0,0,0,0,0,0c0,0,0,0,0,0l4.8,0V149l-2.3,0c-0.9,0-1.7,0-2.6,0c0,1.1,0,2,0,3c0,0.8,0,1.6,0,2.4c0,0.4,0,1-0.5,1.5
	c-0.5,0.5-1.3,0.5-1.5,0.5C157,156.4,154.1,156.4,151.1,156.4C151.2,156.4,151.2,156.4,151.1,156.4z M155.3,154c1.4,0,2.8,0,4.1,0
	c0-0.7,0-1.4,0-2.1c0-1,0-2,0-3.1c0-0.5,0-1.2,0.6-1.7c0.6-0.6,1.4-0.5,1.7-0.5c0.9,0.1,1.7,0,2.6,0V140l-2.5,0
	c-1.8,0-2.4-0.5-2.4-2.4l0-21.5h-3.7c-2.9,0-5.8,0-8.7,0l-0.3,0.2l-6.4,10.4c-2.7,4.3-5.3,8.6-7.9,12.9c-0.1,0.2-0.2,0.6-0.2,0.9
	c0,1,0,2,0,3c0,1,0,2.1,0,3.1c6,0,11.4,0,17.1,0c0.4,0,1.2,0.1,1.8,0.6c0.5,0.5,0.6,1.2,0.5,1.7c0,1,0,2,0,3c0,0.7,0,1.4,0,2.1
	C152.8,154,154.1,154,155.3,154z M149.7,140C149.7,140,149.7,140,149.7,140l-8.5,0l-1.7-0.7l0.5-1.2l9.5-15.3l1.8,0.8l0.1,0.7
	l-1.2,0.1l1.2,0c0,0.2,0,0.3,0,0.5l0,13.1c0,0.4,0,1.1-0.5,1.6C150.8,139.8,150.4,140,149.7,140z M143.1,137.7l6.1,0l0-9.8
	L143.1,137.7z"/>
<path d="M96.5,156.4h-2.4l0-3.9c0-1.4,0-2.9,0-4.3c0-1,0.4-1.8,1.2-2.4l0.3-0.2c4.1-3,8.1-6,12.1-9c1.7-1.3,3.4-2.8,4.7-4.1
	c0.7-0.7,1.3-1.5,1.8-2.3c0.7-1.3,0.8-2.5,0.3-3.5c-0.5-1-1.6-1.6-3-1.8c-3.6-0.4-6.8,0.6-9.9,3c-0.3,0.2-0.6,0.5-0.9,0.7l-1.3,1.1
	l-7.2-8.6l1.4-1.3c0.4-0.4,0.9-0.8,1.3-1.2c7.3-5.5,15.3-6.7,23.7-3.5c4.8,1.8,7.9,5.4,8.7,10.4c0.7,3.9-0.2,7.7-2.8,11.1
	c-2.5,3.4-5.6,6-8.5,8.2c-0.2,0.1-0.4,0.3-0.5,0.4h12.2l0.1,1.4c0,0.2,0,0.4,0,0.6l0,2.3c0,1.6,0,3.2,0,4.8c0,0.4,0,1.1-0.5,1.6
	c-0.5,0.5-1.2,0.5-1.6,0.5c-3.3,0-6.6,0-10,0L96.5,156.4z M96.4,154.1l19.5,0c3.2,0,6.5,0,9.7,0c0-1.6,0-3.1,0-4.6l0-2.1h-14.1
	l-0.3-0.8l1.1-0.3l-1.2,0.2l-0.3-0.8l1.7-1.3c0.7-0.5,1.4-1,2.1-1.6c2.8-2.2,5.8-4.6,8.1-7.8c2.2-3,2.9-6,2.3-9.3
	c-0.7-4.2-3.2-7.1-7.2-8.6c-7.6-2.9-14.9-1.8-21.5,3.2c-0.3,0.3-0.6,0.5-0.9,0.8l4.3,5.1c0.1-0.1,0.3-0.2,0.4-0.3
	c3.5-2.7,7.4-3.9,11.6-3.4c2.2,0.2,4,1.4,4.9,3.1c0.9,1.7,0.7,3.8-0.4,5.7c-0.6,1-1.4,2-2.2,2.9c-1.4,1.3-3.1,2.9-4.9,4.3
	c-4,3.1-8.1,6.1-12.1,9.1l-0.3,0.2c-0.2,0.2-0.2,0.2-0.2,0.5c0,1.5,0,2.9,0,4.4L96.4,154.1z"/>
<path d="M29.1,149c-1.2,0-2.3-1.1-3.5-2.2C9.5,131.3,2.6,113.2,2.5,86C1.9,58.8,27.3,25.7,66.1,19.8c35.9-5.5,71.9,17.4,82.1,52.2
	c0.9,3.2,1.9,4,4.6,3.6c1.5-0.2,3-0.1,4.5-0.1c0.7,0,1.5,0,2.2,0c1,0,2.4,0.1,3.1,1.2c0.7,1.2-0.1,2.6-0.4,3.1
	c-5.4,9.3-10.8,18.6-16.1,28c-0.5,0.8-1.2,1.9-2.4,1.9l0,0c-1.2,0-2-1.1-2.5-2.1c-2.8-4.8-5.5-9.6-8.3-14.4
	c-2.5-4.2-4.9-8.5-7.4-12.7c-0.8-1.4-1.4-2.7-0.8-3.8c0.6-1.1,2-1.2,3.6-1.2l0.9,0c1.8-0.1,3.6-0.1,5.5,0c1.5,0.1,1.8-0.2,1.8-0.2
	c0,0,0.2-0.3-0.3-1.8c-3.1-8.7-7.3-15.7-12.7-21.6c-12.5-13.5-29-20.9-46.5-20.9c0,0-0.1,0-0.1,0c-17.5,0-34,7.4-46.6,20.8
	c-17.3,18.5-21,49.2-8.7,71.4c3.1,5.5,6.6,11.3,11.6,15.8c0.8,0.8,1.8,1.8,1.6,3.1c-0.1,0.9-0.8,1.7-2,2.4c-0.5,0.3-0.9,0.7-1,0.8
	c-0.3,1.4-0.7,3.1-2.1,3.5C29.5,149,29.3,149,29.1,149z M76.8,21.3c-3.4,0-6.9,0.3-10.3,0.8C28.9,27.9,4.3,59.8,4.8,86v0
	c0.1,26.4,6.8,44.1,22.4,59.1c0.6,0.5,1.5,1.4,1.9,1.5c0-0.1,0.2-0.5,0.5-1.7c0.2-1.3,1.7-2.2,2.1-2.4c0.7-0.4,0.8-0.6,0.8-0.6
	c0,0-0.1-0.3-0.9-1c-5.2-4.7-8.9-10.7-12.1-16.4c-12.9-23-9-54.9,9-74.1c13-13.9,30.2-21.6,48.3-21.6c0,0,0.1,0,0.1,0
	c18.1,0,35.2,7.7,48.2,21.7c5.6,6.1,10,13.4,13.2,22.4c0.5,1.3,0.9,2.9,0,4c-0.9,1.2-2.5,1.2-3.9,1.1c-1.7-0.1-3.5-0.1-5.2,0l-0.9,0
	c-0.8,0-1.3,0.1-1.5,0.1c0.1,0.2,0.3,0.7,0.7,1.4c2.4,4.2,4.9,8.5,7.4,12.7c2.8,4.8,5.6,9.6,8.3,14.4c0.2,0.4,0.4,0.6,0.5,0.8
	c0.1-0.1,0.2-0.3,0.4-0.6c5.4-9.3,10.7-18.6,16.1-28c0.2-0.4,0.3-0.6,0.3-0.7c-0.1,0-0.3,0-0.9,0c-0.1,0-0.3,0-0.4,0
	c-0.7,0-1.3,0-2,0c-1.4,0-2.8-0.1-4.1,0.1c-4.7,0.7-6.2-2.2-7.1-5.3C137,42.4,107.8,21.3,76.8,21.3z"/>
<path d="M76.3,109.4l-0.7-0.2c-0.6-0.2-1.3-0.5-2-0.8C62,102,50.5,95.6,39,89.3c-3.7-2.1-5-5.4-3.3-8.6c0.7-1.4,1.8-2.3,3.2-2.7
	c1.7-0.5,3.8-0.2,5.8,0.9C56.1,85,65.4,90,73.9,94.8c1.9,1.1,2.8,0.9,4.3-0.5C87,86,95.9,77.7,104.6,69.8l8.2-7.5
	c0.5-0.5,1-0.9,1.6-1.4c3-2.2,6-2,8.3,0.4c1.1,1.2,1.7,2.6,1.7,4.1c0,1.6-0.8,3.2-2.2,4.6c-4.7,4.5-9.6,9.1-13.9,13.1
	c-8.1,7.4-16.1,14.9-24.2,22.3l-0.6,0.6c-1.7,1.6-3.6,3.4-6.9,3.4H76.3z M40.6,80c-0.4,0-0.7,0-1,0.1c-0.8,0.2-1.4,0.8-1.8,1.6
	c-1.4,2.8,0.9,4.6,2.4,5.4c11.5,6.4,23,12.7,34.6,19c0.5,0.3,1.1,0.5,1.6,0.7l0.4,0.1c2.3-0.1,3.7-1.4,5.1-2.8l0.7-0.6
	c8.1-7.4,16.2-14.8,24.2-22.3c4.3-4,9.2-8.5,13.9-13.1c0.9-0.9,1.4-1.9,1.4-2.9c0-0.9-0.4-1.7-1.1-2.4c-1.6-1.6-3.2-1.7-5.3-0.2
	c-0.5,0.4-0.9,0.8-1.4,1.2l-8.2,7.5c-8.7,8-17.6,16.2-26.3,24.4c-2.3,2.2-4.3,2.4-7.1,0.9C64.2,92.1,55,87,43.6,80.9
	C42.5,80.3,41.5,80,40.6,80z"/>
</svg>
