<svg xmlns="http://www.w3.org/2000/svg" width="32" height="36">
    <defs>
        <linearGradient id="a" x1="70.711%" x2="0%" y1="70.711%" y2="0%">
            <stop offset="0%" stop-color="#F15A2A"/>
            <stop offset="95%" stop-color="#FAA634"/>
        </linearGradient>
    </defs>
    <path fill="#FFF" fill-rule="evenodd" d="M31.394 15.86c-2.613 0-6.642-2.096-6.642-4.88V9.15H12.677v2.297a3.66 3.66 0 0 1 1.154 2.069c3.654.553 6.43 3.605 6.669 7.329a1.827 1.827 0 0 1 1.209 2.027 1.813 1.813 0 0 1-1.787 1.529H1.807A1.815 1.815 0 0 1 .02 22.872a1.829 1.829 0 0 1 1.21-2.027c.238-3.724 3.015-6.776 6.668-7.329a3.667 3.667 0 0 1 1.155-2.069V8.54c.003-1.684 1.353-3.048 3.018-3.05h12.681v-.61c0-2.785 4.029-4.881 6.642-4.881.333 0 .604.274.604.611v14.64c0 .337-.271.61-.604.61zm-30.19 6.711c0 .337.271.61.603.61h18.115a.606.606 0 0 0 .603-.61c0-.337-.27-.61-.603-.61H1.807a.607.607 0 0 0-.603.61zm1.234-1.831h16.853c-.317-3.453-3.182-6.096-6.614-6.1H9.053c-3.432.004-6.297 2.647-6.615 6.1zm6.724-7.32h3.406c-.205-.619-.663-1.22-1.099-1.22H10.26c-.434 0-.894.601-1.098 1.22zm15.59-6.71H12.071c-.999 0-1.811.819-1.811 1.83v2.44h1.209V8.54c0-.337.27-.61.602-.61h12.681V6.71zm6.039-5.447C28.745 1.54 25.96 3.11 25.96 4.88v6.1c0 1.769 2.785 3.339 4.831 3.617V1.263zM2.412 25.621c.333 0 .603.273.603.61v.61c0 .336-.27.61-.603.61a.608.608 0 0 1-.605-.61v-.61c0-.337.271-.61.605-.61zm0 3.05c.333 0 .603.273.603.61v3.66c0 .337-.27.61-.603.61a.608.608 0 0 1-.605-.61v-3.66c0-.337.271-.61.605-.61zm-.429 6.277c.029-.027.06-.051.09-.074.034-.022.071-.042.11-.061a.806.806 0 0 1 .107-.029.619.619 0 0 1 .351.029.93.93 0 0 1 .199.135.623.623 0 0 1 .127.201.617.617 0 0 1-.127.67.602.602 0 0 1-.662.132.613.613 0 0 1-.322-.802.713.713 0 0 1 .127-.201zm2.843-9.327c.335 0 .604.273.604.61v3.66c0 .337-.269.61-.604.61a.607.607 0 0 1-.603-.61v-3.66c0-.337.271-.61.603-.61zm0 6.1c.335 0 .604.273.604.61v1.83c0 .337-.269.61-.604.61a.607.607 0 0 1-.603-.61v-1.83c0-.337.271-.61.603-.61zm2.417-6.1c.332 0 .603.273.603.61v.61c0 .336-.271.61-.603.61a.607.607 0 0 1-.604-.61v-.61c0-.337.27-.61.604-.61zm0 3.05c.332 0 .603.273.603.61v3.66c0 .337-.271.61-.603.61a.607.607 0 0 1-.604-.61v-3.66c0-.337.27-.61.604-.61zm-.43 6.277a.629.629 0 0 1 .859 0c.051.06.095.128.127.201a.61.61 0 0 1-.127.665.594.594 0 0 1-.66.128.611.611 0 0 1-.199-.128.608.608 0 0 1-.127-.665.64.64 0 0 1 .127-.201zm2.845-9.327c.332 0 .602.273.602.61v3.66c0 .337-.27.61-.602.61a.607.607 0 0 1-.605-.61v-3.66c0-.337.27-.61.605-.61zm0 6.1c.332 0 .602.273.602.61v1.83c0 .337-.27.61-.602.61a.607.607 0 0 1-.605-.61v-1.83c0-.337.27-.61.605-.61zm2.413-6.1c.335 0 .606.273.606.61v.61c0 .336-.271.61-.606.61a.607.607 0 0 1-.602-.61v-.61c0-.337.27-.61.602-.61zm0 3.05c.335 0 .606.273.606.61v3.66c0 .337-.271.61-.606.61a.606.606 0 0 1-.602-.61v-3.66c0-.337.27-.61.602-.61zm-.427 6.278a.879.879 0 0 1 .2-.135.596.596 0 0 1 .342-.03c.04.006.078.017.116.03a.586.586 0 0 1 .102.061.579.579 0 0 1 .097.074.688.688 0 0 1 .126.201.607.607 0 0 1-.126.665.59.59 0 0 1-.657.128.69.69 0 0 1-.2-.128.609.609 0 0 1-.127-.665.612.612 0 0 1 .127-.201zm2.843-9.328c.334 0 .604.273.604.61v3.66c0 .337-.27.61-.604.61a.606.606 0 0 1-.603-.61v-3.66c0-.337.27-.61.603-.61zm0 6.1c.334 0 .604.273.604.61v1.83c0 .337-.27.61-.604.61a.606.606 0 0 1-.603-.61v-1.83c0-.337.27-.61.603-.61zm2.416-6.1c.332 0 .604.273.604.61v.61c0 .336-.272.61-.604.61a.607.607 0 0 1-.604-.61v-.61c0-.337.27-.61.604-.61zm0 3.05c.332 0 .604.273.604.61v3.66c0 .337-.272.61-.604.61a.607.607 0 0 1-.604-.61v-3.66c0-.337.27-.61.604-.61zm-.428 6.277a.625.625 0 0 1 .856 0c.054.06.097.128.127.201a.61.61 0 0 1-.218.741.59.59 0 0 1-.566.052.685.685 0 0 1-.199-.128.605.605 0 0 1-.127-.665.607.607 0 0 1 .127-.201zm2.843-9.327c.334 0 .604.273.604.61v3.66c0 .337-.27.61-.604.61a.607.607 0 0 1-.604-.61v-3.66c0-.337.271-.61.604-.61zm0 6.1c.334 0 .604.273.604.61v1.83c0 .337-.27.61-.604.61a.607.607 0 0 1-.604-.61v-1.83c0-.337.271-.61.604-.61z"/>
    <path fill="url(#a)" d="M31.394 15.86c-2.613 0-6.642-2.096-6.642-4.88V9.15H12.677v2.297a3.66 3.66 0 0 1 1.154 2.069c3.654.553 6.43 3.605 6.669 7.329a1.827 1.827 0 0 1 1.209 2.027 1.813 1.813 0 0 1-1.787 1.529H1.807A1.815 1.815 0 0 1 .02 22.872a1.829 1.829 0 0 1 1.21-2.027c.238-3.724 3.015-6.776 6.668-7.329a3.667 3.667 0 0 1 1.155-2.069V8.54c.003-1.684 1.353-3.048 3.018-3.05h12.681v-.61c0-2.785 4.029-4.881 6.642-4.881.333 0 .604.274.604.611v14.64c0 .337-.271.61-.604.61zm-30.19 6.711c0 .337.271.61.603.61h18.115a.606.606 0 0 0 .603-.61c0-.337-.27-.61-.603-.61H1.807a.607.607 0 0 0-.603.61zm1.234-1.831h16.853c-.317-3.453-3.182-6.096-6.614-6.1H9.053c-3.432.004-6.297 2.647-6.615 6.1zm6.724-7.32h3.406c-.205-.619-.663-1.22-1.099-1.22H10.26c-.434 0-.894.601-1.098 1.22zm15.59-6.71H12.071c-.999 0-1.811.819-1.811 1.83v2.44h1.209V8.54c0-.337.27-.61.602-.61h12.681V6.71zm6.039-5.447C28.745 1.54 25.96 3.11 25.96 4.88v6.1c0 1.769 2.785 3.339 4.831 3.617V1.263zM2.412 25.621c.333 0 .603.273.603.61v.61c0 .336-.27.61-.603.61a.608.608 0 0 1-.605-.61v-.61c0-.337.271-.61.605-.61zm0 3.05c.333 0 .603.273.603.61v3.66c0 .337-.27.61-.603.61a.608.608 0 0 1-.605-.61v-3.66c0-.337.271-.61.605-.61zm-.429 6.277c.029-.027.06-.051.09-.074.034-.022.071-.042.11-.061a.806.806 0 0 1 .107-.029.619.619 0 0 1 .351.029.93.93 0 0 1 .199.135.623.623 0 0 1 .127.201.617.617 0 0 1-.127.67.602.602 0 0 1-.662.132.613.613 0 0 1-.322-.802.713.713 0 0 1 .127-.201zm2.843-9.327c.335 0 .604.273.604.61v3.66c0 .337-.269.61-.604.61a.607.607 0 0 1-.603-.61v-3.66c0-.337.271-.61.603-.61zm0 6.1c.335 0 .604.273.604.61v1.83c0 .337-.269.61-.604.61a.607.607 0 0 1-.603-.61v-1.83c0-.337.271-.61.603-.61zm2.417-6.1c.332 0 .603.273.603.61v.61c0 .336-.271.61-.603.61a.607.607 0 0 1-.604-.61v-.61c0-.337.27-.61.604-.61zm0 3.05c.332 0 .603.273.603.61v3.66c0 .337-.271.61-.603.61a.607.607 0 0 1-.604-.61v-3.66c0-.337.27-.61.604-.61zm-.43 6.277a.629.629 0 0 1 .859 0c.051.06.095.128.127.201a.61.61 0 0 1-.127.665.594.594 0 0 1-.66.128.611.611 0 0 1-.199-.128.608.608 0 0 1-.127-.665.64.64 0 0 1 .127-.201zm2.845-9.327c.332 0 .602.273.602.61v3.66c0 .337-.27.61-.602.61a.607.607 0 0 1-.605-.61v-3.66c0-.337.27-.61.605-.61zm0 6.1c.332 0 .602.273.602.61v1.83c0 .337-.27.61-.602.61a.607.607 0 0 1-.605-.61v-1.83c0-.337.27-.61.605-.61zm2.413-6.1c.335 0 .606.273.606.61v.61c0 .336-.271.61-.606.61a.607.607 0 0 1-.602-.61v-.61c0-.337.27-.61.602-.61zm0 3.05c.335 0 .606.273.606.61v3.66c0 .337-.271.61-.606.61a.606.606 0 0 1-.602-.61v-3.66c0-.337.27-.61.602-.61zm-.427 6.278a.879.879 0 0 1 .2-.135.596.596 0 0 1 .342-.03c.04.006.078.017.116.03a.586.586 0 0 1 .102.061.579.579 0 0 1 .097.074.688.688 0 0 1 .126.201.607.607 0 0 1-.126.665.59.59 0 0 1-.657.128.69.69 0 0 1-.2-.128.609.609 0 0 1-.127-.665.612.612 0 0 1 .127-.201zm2.843-9.328c.334 0 .604.273.604.61v3.66c0 .337-.27.61-.604.61a.606.606 0 0 1-.603-.61v-3.66c0-.337.27-.61.603-.61zm0 6.1c.334 0 .604.273.604.61v1.83c0 .337-.27.61-.604.61a.606.606 0 0 1-.603-.61v-1.83c0-.337.27-.61.603-.61zm2.416-6.1c.332 0 .604.273.604.61v.61c0 .336-.272.61-.604.61a.607.607 0 0 1-.604-.61v-.61c0-.337.27-.61.604-.61zm0 3.05c.332 0 .604.273.604.61v3.66c0 .337-.272.61-.604.61a.607.607 0 0 1-.604-.61v-3.66c0-.337.27-.61.604-.61zm-.428 6.277a.625.625 0 0 1 .856 0c.054.06.097.128.127.201a.61.61 0 0 1-.218.741.59.59 0 0 1-.566.052.685.685 0 0 1-.199-.128.605.605 0 0 1-.127-.665.607.607 0 0 1 .127-.201zm2.843-9.327c.334 0 .604.273.604.61v3.66c0 .337-.27.61-.604.61a.607.607 0 0 1-.604-.61v-3.66c0-.337.271-.61.604-.61zm0 6.1c.334 0 .604.273.604.61v1.83c0 .337-.27.61-.604.61a.607.607 0 0 1-.604-.61v-1.83c0-.337.271-.61.604-.61z"/>
</svg>
