<?xml version="1.0" encoding="utf-8"?>
<!-- Generator: Adobe Illustrator 23.0.3, SVG Export Plug-In . SVG Version: 6.00 Build 0)  -->
<svg version="1.1" id="Layer_1" xmlns="http://www.w3.org/2000/svg" xmlns:xlink="http://www.w3.org/1999/xlink" x="0px" y="0px"
	 viewBox="0 0 170.1 170.1" style="enable-background:new 0 0 170.1 170.1;" xml:space="preserve">
<path d="M168.1,81.3c0-6.8-5.6-12.4-12.4-12.4H31.5V10.2h27.7c4.3,0,7.7,3.5,7.7,7.7v1c-10.6,1.7-18.8,10.9-18.8,22
	c0,1.9,1.6,3.5,3.5,3.5h37.6c1.9,0,3.5-1.6,3.5-3.5c0-11.1-8.2-20.3-18.8-22v-1c0-8.1-6.6-14.7-14.7-14.7H28c-1.9,0-3.5,1.6-3.5,3.5
	v62.2H13.7c-6.8,0-12.4,5.6-12.4,12.4c0,6.5,5,11.8,11.3,12.4v36.7c0,13.5,10.7,24.6,24.1,25.3v8.2c0,1.9,1.6,3.5,3.5,3.5
	c1.9,0,3.5-1.6,3.5-3.5v-8.2h82v8.2c0,1.9,1.6,3.5,3.5,3.5c1.9,0,3.5-1.6,3.5-3.5v-8.2c13.4-0.7,24.1-11.8,24.1-25.3V93.7
	C163.1,93.1,168.1,87.8,168.1,81.3z M85.3,37.4H55.5c1.6-6.7,7.7-11.8,14.9-11.8S83.7,30.6,85.3,37.4z M149.8,109.9
	c-5,1-8,4.1-10.5,6.7c-2.7,2.8-4.7,4.9-8.9,4.9c-4.2,0-6.2-2-8.9-4.9c-3-3.1-6.7-7-13.9-7c-7.2,0-10.9,3.9-13.9,7
	c-2.7,2.8-4.7,4.9-8.9,4.9c-4.2,0-6.2-2-8.9-4.9c-3-3.1-6.7-7-13.9-7c-7.2,0-10.9,3.9-13.9,7c-2.7,2.8-4.7,4.9-8.9,4.9
	c-4.2,0-6.2-2-8.9-4.9c-2.5-2.6-5.5-5.7-10.5-6.7V93.7h130.1V109.9z M131.4,148.8H38c-10.1,0-18.4-8.2-18.4-18.4v-13.3
	c2.1,0.8,3.6,2.4,5.4,4.3c3,3.1,6.7,7,13.9,7c7.2,0,10.9-3.9,13.9-7c2.7-2.8,4.7-4.9,8.9-4.9c4.2,0,6.2,2,8.9,4.9
	c3,3.1,6.7,7,13.9,7c7.2,0,10.9-3.9,13.9-7c2.7-2.8,4.7-4.9,8.9-4.9c4.2,0,6.2,2,8.9,4.9c3,3.1,6.7,7,13.9,7c7.2,0,10.9-3.9,13.9-7
	c1.8-1.9,3.3-3.5,5.4-4.3v13.3C149.8,140.5,141.5,148.8,131.4,148.8z M155.7,86.7h-142c-3,0-5.4-2.4-5.4-5.4c0-3,2.4-5.4,5.4-5.4
	h142c3,0,5.4,2.4,5.4,5.4C161.1,84.3,158.7,86.7,155.7,86.7z"/>
</svg>
