<?xml version="1.0" encoding="utf-8"?>
<!-- Generator: Adobe Illustrator 23.0.3, SVG Export Plug-In . SVG Version: 6.00 Build 0)  -->
<svg version="1.1" id="Layer_1" xmlns="http://www.w3.org/2000/svg" xmlns:xlink="http://www.w3.org/1999/xlink" x="0px" y="0px"
	 viewBox="0 0 170.1 170.1" style="enable-background:new 0 0 170.1 170.1;" xml:space="preserve">
<g>
	<path d="M80.3,163.7H34.7c-1.6,0-2.9-1.3-2.9-2.9v-45.7c0-1.6,1.3-2.9,2.9-2.9h45.7c1.6,0,2.9,1.3,2.9,2.9v45.7
		C83.2,162.4,81.9,163.7,80.3,163.7z M37.5,158h40v-40h-40V158z"/>
	<path d="M80.3,129.5H34.7c-1.6,0-2.9-1.3-2.9-2.9c0-1.6,1.3-2.9,2.9-2.9h45.7c1.6,0,2.9,1.3,2.9,2.9
		C83.2,128.2,81.9,129.5,80.3,129.5z"/>
	<path d="M80.3,140.9H34.7c-1.6,0-2.9-1.3-2.9-2.9c0-1.6,1.3-2.9,2.9-2.9h45.7c1.6,0,2.9,1.3,2.9,2.9
		C83.2,139.6,81.9,140.9,80.3,140.9z"/>
	<path d="M80.3,152.3H34.7c-1.6,0-2.9-1.3-2.9-2.9s1.3-2.9,2.9-2.9h45.7c1.6,0,2.9,1.3,2.9,2.9S81.9,152.3,80.3,152.3z"/>
	<path d="M148.8,163.7H80.3c-1.6,0-2.9-1.3-2.9-2.9s1.3-2.9,2.9-2.9H146v-51.4H20.4V158h14.3c1.6,0,2.9,1.3,2.9,2.9
		s-1.3,2.9-2.9,2.9H17.5c-1.6,0-2.9-1.3-2.9-2.9v-57.1c0-1.6,1.3-2.9,2.9-2.9h131.3c1.6,0,2.9,1.3,2.9,2.9v57.1
		C151.7,162.4,150.4,163.7,148.8,163.7z"/>
	<path d="M140.3,86.6H26.1c-1.6,0-2.9-1.3-2.9-2.9V26.7c0-1.6,1.3-2.9,2.9-2.9h114.2c1.6,0,2.9,1.3,2.9,2.9v57.1
		C143.1,85.4,141.9,86.6,140.3,86.6z M29,80.9h108.5V29.6H29V80.9z"/>
	<path d="M131.7,163.7c-1.6,0-2.9-1.3-2.9-2.9V118H106v42.8c0,1.6-1.3,2.9-2.9,2.9c-1.6,0-2.9-1.3-2.9-2.9v-45.7
		c0-1.6,1.3-2.9,2.9-2.9h28.5c1.6,0,2.9,1.3,2.9,2.9v45.7C134.6,162.4,133.3,163.7,131.7,163.7z"/>
	<path d="M123.2,146.6c-1.6,0-2.9-1.3-2.9-2.9V138c0-1.6,1.3-2.9,2.9-2.9c1.6,0,2.9,1.3,2.9,2.9v5.7
		C126,145.3,124.7,146.6,123.2,146.6z"/>
	<path d="M160.3,106.6h-11.4c-1.6,0-2.9-1.3-2.9-2.9c0-1.6,1.3-2.9,2.9-2.9h4.5l-15.1-15.1c-1.1-1.1-1.1-2.9,0-4
		c1.1-1.1,2.9-1.1,4,0l20,20c0.8,0.8,1.1,2,0.6,3.1C162.5,105.9,161.4,106.6,160.3,106.6z"/>
	<path d="M17.5,106.6H6.1c-1.2,0-2.2-0.7-2.6-1.8c-0.4-1.1-0.2-2.3,0.6-3.1l20-20c1.1-1.1,2.9-1.1,4,0s1.1,2.9,0,4L13,100.9h4.5
		c1.6,0,2.9,1.3,2.9,2.9C20.4,105.3,19.1,106.6,17.5,106.6z"/>
	<path d="M151.7,29.6h-11.4c-1.6,0-2.9-1.3-2.9-2.9s1.3-2.9,2.9-2.9h4.5L130.5,9.6H35.9L21.6,23.8h4.5c1.6,0,2.9,1.3,2.9,2.9
		s-1.3,2.9-2.9,2.9H14.7c-1.2,0-2.2-0.7-2.6-1.8c-0.4-1.1-0.2-2.3,0.6-3.1l20-20c0.5-0.5,1.3-0.8,2-0.8h97c0.8,0,1.5,0.3,2,0.8
		l20,20c0.8,0.8,1.1,2,0.6,3.1C153.9,28.9,152.9,29.6,151.7,29.6z"/>
	<path d="M91.8,72.4H74.6c-1.6,0-2.9-1.3-2.9-2.9V41c0-1.6,1.3-2.9,2.9-2.9h17.1c1.6,0,2.9,1.3,2.9,2.9v28.5
		C94.6,71.1,93.3,72.4,91.8,72.4z M77.5,66.7h11.4V43.8H77.5V66.7z"/>
	<path d="M123.2,72.4H106c-1.6,0-2.9-1.3-2.9-2.9V41c0-1.6,1.3-2.9,2.9-2.9h17.1c1.6,0,2.9,1.3,2.9,2.9v28.5
		C126,71.1,124.7,72.4,123.2,72.4z M108.9,66.7h11.4V43.8h-11.4V66.7z"/>
	<path d="M60.4,72.4H43.2c-1.6,0-2.9-1.3-2.9-2.9V41c0-1.6,1.3-2.9,2.9-2.9h17.1c1.6,0,2.9,1.3,2.9,2.9v28.5
		C63.2,71.1,61.9,72.4,60.4,72.4z M46.1,66.7h11.4V43.8H46.1V66.7z"/>
	<path d="M60.4,58.1H43.2c-1.6,0-2.9-1.3-2.9-2.9s1.3-2.9,2.9-2.9h17.1c1.6,0,2.9,1.3,2.9,2.9S61.9,58.1,60.4,58.1z"/>
	<path d="M91.8,58.1H74.6c-1.6,0-2.9-1.3-2.9-2.9s1.3-2.9,2.9-2.9h17.1c1.6,0,2.9,1.3,2.9,2.9S93.3,58.1,91.8,58.1z"/>
	<path d="M123.2,58.1H106c-1.6,0-2.9-1.3-2.9-2.9s1.3-2.9,2.9-2.9h17.1c1.6,0,2.9,1.3,2.9,2.9S124.7,58.1,123.2,58.1z"/>
</g>
</svg>
