<?xml version="1.0" encoding="utf-8"?>
<!-- Generator: Adobe Illustrator 23.0.3, SVG Export Plug-In . SVG Version: 6.00 Build 0)  -->
<svg version="1.1" id="Layer_1" xmlns="http://www.w3.org/2000/svg" xmlns:xlink="http://www.w3.org/1999/xlink" x="0px" y="0px"
	 viewBox="0 0 170.1 170.1" style="enable-background:new 0 0 170.1 170.1;" xml:space="preserve">
<path d="M154.3,167.6h-40.7c-1.9,0-3.4-1.5-3.4-3.4v-13.6c0-5.6,4.6-10.2,10.2-10.2h27.1c5.6,0,10.2,4.6,10.2,10.2v13.6
	C157.6,166.1,156.1,167.6,154.3,167.6z M117,160.9h33.9v-10.2c0-1.9-1.5-3.4-3.4-3.4h-27.1c-1.9,0-3.4,1.5-3.4,3.4V160.9z"/>
<path d="M39,32.1H11.9c-5.6,0-10.2-4.6-10.2-10.2V8.4C1.8,6.5,3.3,5,5.2,5h40.7c1.9,0,3.4,1.5,3.4,3.4v13.6
	C49.2,27.5,44.6,32.1,39,32.1z M8.5,11.8v10.2c0,1.9,1.5,3.4,3.4,3.4H39c1.9,0,3.4-1.5,3.4-3.4V11.8H8.5z"/>
<g>
	<path d="M52.6,167.6c-24.3,0-44.1-19.8-44.1-44.1V28.7c0-1.9,1.5-3.4,3.4-3.4s3.4,1.5,3.4,3.4v94.9c0,20.6,16.7,37.3,37.3,37.3
		s37.3-16.7,37.3-37.3V49c0-9.3,7.6-16.9,16.9-16.9s16.9,7.6,16.9,16.9v81.3c0,1.9-1.5,3.4-3.4,3.4c-1.9,0-3.4-1.5-3.4-3.4V49
		c0-5.6-4.6-10.2-10.2-10.2c-5.6,0-10.2,4.6-10.2,10.2v74.6C96.7,147.9,76.9,167.6,52.6,167.6z"/>
	<path d="M147.5,147.3c-1.9,0-3.4-1.5-3.4-3.4V49c0-20.6-16.7-37.3-37.3-37.3c-20.6,0-37.3,16.7-37.3,37.3v74.6
		c0,9.3-7.6,16.9-16.9,16.9s-16.9-7.6-16.9-16.9V42.3c0-1.9,1.5-3.4,3.4-3.4c1.9,0,3.4,1.5,3.4,3.4v81.3c0,5.6,4.6,10.2,10.2,10.2
		s10.2-4.6,10.2-10.2V49C62.8,24.7,82.5,5,106.8,5s44.1,19.8,44.1,44.1v94.9C150.9,145.8,149.4,147.3,147.5,147.3z"/>
</g>
</svg>
