<?xml version="1.0" encoding="utf-8"?>
<!-- Generator: Adobe Illustrator 23.0.3, SVG Export Plug-In . SVG Version: 6.00 Build 0)  -->
<svg version="1.1" id="Layer_1" xmlns="http://www.w3.org/2000/svg" xmlns:xlink="http://www.w3.org/1999/xlink" x="0px" y="0px"
	 viewBox="0 0 170.1 170.1" style="enable-background:new 0 0 170.1 170.1;" xml:space="preserve">
<style type="text/css">
	.st0{fill:#010101;}
</style>
<g>
	<path class="st0" d="M160,152.9H27.4c-13.2,0-24-10.8-24-24c0-13.2,10.8-24,24-24H140c5.3,0,9.6-4.3,9.6-9.6c0-5.3-4.3-9.6-9.6-9.6
		H27.4c-13.2,0-24-10.7-24-24c0-13.2,10.8-24,24-24h83.7c1,0,1.8,0.8,1.8,1.8s-0.8,1.8-1.8,1.8H27.4C16.1,41.3,7,50.5,6.9,61.8
		C7,73,16.1,82.2,27.4,82.2H140c7.2,0,13.1,5.9,13.1,13.1c0,7.2-5.9,13.1-13.1,13.1H27.4c-11.3,0-20.5,9.2-20.5,20.5
		c0,11.3,9.2,20.5,20.5,20.5H160c2,0,3.7-1.7,3.7-3.7c0-2-1.7-3.7-3.7-3.7H27.4c-7.2,0-13.1-5.9-13.1-13.1c0-7.2,5.9-13.1,13.1-13.1
		H140c11.3,0,20.5-9.2,20.5-20.5c0-11.3-9.2-20.5-20.5-20.5H27.4c-7.2,0-13.1-5.9-13.1-13c0-7.2,5.9-13.1,13.1-13.1l83.3,0.3
		c1,0,1.8,0.8,1.8,1.8s-0.8,1.8-1.8,1.8l-83.3-0.3c-5.3,0-9.6,4.3-9.6,9.6c0,5.2,4.3,9.5,9.6,9.5H140c13.2,0,24,10.8,24,24
		c0,13.2-10.8,24-24,24H27.4c-5.3,0-9.6,4.3-9.6,9.6c0,5.3,4.3,9.6,9.6,9.6H160c4,0,7.2,3.2,7.2,7.2
		C167.2,149.6,163.9,152.9,160,152.9z"/>
	<path d="M160,154.3H27.4c-14,0-25.4-11.4-25.4-25.4c0-14,11.4-25.4,25.4-25.4H140c4.5,0,8.1-3.7,8.1-8.2c0-4.5-3.7-8.2-8.1-8.2
		H27.4C13.4,87.1,2,75.8,2,61.8c0-14,11.4-25.4,25.4-25.4h83.7c1.8,0,3.2,1.4,3.2,3.2c0,1.8-1.4,3.2-3.2,3.2H27.4
		c-10.5,0-19,8.5-19.1,19.1c0,10.5,8.6,19,19.1,19H140c8,0,14.5,6.5,14.5,14.5c0,8-6.5,14.5-14.5,14.5H27.4
		c-10.5,0-19.1,8.5-19.1,19.1c0,10.5,8.6,19.1,19.1,19.1H160c1.3,0,2.3-1,2.3-2.3c0-1.3-1-2.3-2.3-2.3H27.4c-8,0-14.5-6.5-14.5-14.5
		c0-8,6.5-14.5,14.5-14.5H140c10.5,0,19.1-8.6,19.1-19.1c0-10.5-8.6-19.1-19.1-19.1H27.4c-8,0-14.5-6.5-14.5-14.5
		c0-8,6.5-14.5,14.5-14.5l83.3,0.3c1.7,0,3.2,1.4,3.2,3.2c0,1.8-1.4,3.2-3.2,3.2l-83.3-0.3c-4.5,0-8.1,3.7-8.1,8.1
		c0,4.5,3.7,8.1,8.2,8.1H140c14,0,25.4,11.4,25.4,25.4c0,14-11.4,25.4-25.4,25.4H27.4c-4.5,0-8.2,3.7-8.2,8.1c0,4.5,3.7,8.2,8.2,8.2
		H160c4.8,0,8.6,3.9,8.6,8.6C168.6,150.4,164.7,154.3,160,154.3z M27.4,106.3c-12.5,0-22.6,10.1-22.6,22.6
		c0,12.5,10.1,22.6,22.6,22.6H160c3.2,0,5.8-2.6,5.8-5.8c0-3.2-2.6-5.8-5.8-5.8H27.4c-6.1,0-11-4.9-11-11c0-6.1,4.9-11,11-11H140
		c12.4,0,22.6-10.1,22.6-22.6c0-12.4-10.1-22.6-22.6-22.6H27.4c-6,0-11-4.9-11-10.9c0-6.1,4.9-11,11-11l83.3,0.3
		c0.2,0,0.3-0.2,0.3-0.3c0-0.2-0.2-0.3-0.3-0.3l-83.3-0.3c-6.4,0-11.6,5.2-11.7,11.7c0,6.4,5.2,11.6,11.7,11.6H140
		c12.1,0,21.9,9.8,21.9,21.9c0,12.1-9.8,21.9-21.9,21.9H27.4c-6.4,0-11.7,5.2-11.7,11.7c0,6.4,5.2,11.7,11.7,11.7H160
		c2.8,0,5.1,2.3,5.1,5.1c0,2.8-2.3,5.1-5.1,5.1H27.4c-12.1,0-21.9-9.8-21.9-21.9c0-12.1,9.8-21.9,21.9-21.9H140
		c6.4,0,11.7-5.2,11.7-11.7c0-6.4-5.2-11.7-11.7-11.7H27.4c-12.1,0-21.9-9.8-21.9-21.9c0-12.1,9.9-21.9,21.9-21.9h83.7
		c0.2,0,0.3-0.2,0.3-0.3c0-0.2-0.2-0.3-0.3-0.3H27.4C15,39.2,4.9,49.3,4.8,61.8c0,12.4,10.2,22.5,22.6,22.5H140c6.1,0,11,4.9,11,11
		c0,6.1-4.9,11-11,11H27.4z"/>
</g>
<g>
	<path class="st0" d="M52,56.6c-1,0-1.8-0.8-1.8-1.8V33.9c0-1,0.8-1.8,1.8-1.8s1.8,0.8,1.8,1.8v20.9C53.8,55.8,53,56.6,52,56.6z"/>
	<path d="M52,58c-1.8,0-3.2-1.4-3.2-3.2V33.9c0-1.8,1.4-3.2,3.2-3.2c1.8,0,3.2,1.4,3.2,3.2v20.9C55.2,56.5,53.8,58,52,58z M52,33.5
		c-0.2,0-0.3,0.2-0.3,0.3v20.9c0,0.4,0.7,0.4,0.7,0V33.9C52.3,33.7,52.2,33.5,52,33.5z"/>
</g>
<g>
	<path class="st0" d="M52,90.3c-1,0-1.8-0.8-1.8-1.8V67.6c0-1,0.8-1.8,1.8-1.8s1.8,0.8,1.8,1.8v20.9C53.8,89.5,53,90.3,52,90.3z"/>
	<path d="M52,91.7c-1.8,0-3.2-1.4-3.2-3.2V67.6c0-1.8,1.4-3.2,3.2-3.2c1.8,0,3.2,1.4,3.2,3.2v20.9C55.2,90.3,53.8,91.7,52,91.7z
		 M52,67.3c-0.2,0-0.3,0.2-0.3,0.3v20.9c0,0.4,0.7,0.4,0.7,0V67.6C52.3,67.4,52.2,67.3,52,67.3z"/>
</g>
<g>
	<path class="st0" d="M52,124.1c-1,0-1.8-0.8-1.8-1.8v-20.9c0-1,0.8-1.8,1.8-1.8s1.8,0.8,1.8,1.8v20.9C53.8,123.3,53,124.1,52,124.1
		z"/>
	<path d="M52,125.5c-1.8,0-3.2-1.4-3.2-3.2v-20.9c0-1.8,1.4-3.2,3.2-3.2c1.8,0,3.2,1.4,3.2,3.2v20.9C55.2,124.1,53.8,125.5,52,125.5
		z M52,101.1c-0.2,0-0.3,0.2-0.3,0.3v20.9c0,0.4,0.7,0.4,0.7,0v-20.9C52.3,101.2,52.2,101.1,52,101.1z"/>
</g>
<g>
	<path class="st0" d="M52,157.8c-1,0-1.8-0.8-1.8-1.8v-20.9c0-1,0.8-1.8,1.8-1.8s1.8,0.8,1.8,1.8v20.9C53.8,157.1,53,157.8,52,157.8
		z"/>
	<path d="M52,159.3c-1.8,0-3.2-1.4-3.2-3.2v-20.9c0-1.8,1.4-3.2,3.2-3.2c1.8,0,3.2,1.4,3.2,3.2v20.9C55.2,157.8,53.8,159.3,52,159.3
		z M52,134.8c-0.2,0-0.3,0.2-0.3,0.3v20.9c0,0.4,0.7,0.4,0.7,0v-20.9C52.3,135,52.2,134.8,52,134.8z"/>
</g>
<g>
	<path class="st0" d="M109.8,90.3c-1,0-1.8-0.8-1.8-1.8V67.6c0-1,0.8-1.8,1.8-1.8s1.8,0.8,1.8,1.8v20.9
		C111.6,89.5,110.8,90.3,109.8,90.3z"/>
	<path d="M109.8,91.7c-1.8,0-3.2-1.4-3.2-3.2V67.6c0-1.8,1.4-3.2,3.2-3.2c1.8,0,3.2,1.4,3.2,3.2v20.9
		C113,90.3,111.6,91.7,109.8,91.7z M109.8,67.3c-0.2,0-0.3,0.2-0.3,0.3v20.9c0,0.4,0.7,0.4,0.7,0V67.6
		C110.2,67.4,110,67.3,109.8,67.3z"/>
</g>
<g>
	<path class="st0" d="M109.8,124.1c-1,0-1.8-0.8-1.8-1.8v-20.9c0-1,0.8-1.8,1.8-1.8s1.8,0.8,1.8,1.8v20.9
		C111.6,123.3,110.8,124.1,109.8,124.1z"/>
	<path d="M109.8,125.5c-1.8,0-3.2-1.4-3.2-3.2v-20.9c0-1.8,1.4-3.2,3.2-3.2c1.8,0,3.2,1.4,3.2,3.2v20.9
		C113,124.1,111.6,125.5,109.8,125.5z M109.8,101.1c-0.2,0-0.3,0.2-0.3,0.3v20.9c0,0.4,0.7,0.4,0.7,0v-20.9
		C110.2,101.2,110,101.1,109.8,101.1z"/>
</g>
<g>
	<path class="st0" d="M109.8,157.8c-1,0-1.8-0.8-1.8-1.8v-20.9c0-1,0.8-1.8,1.8-1.8s1.8,0.8,1.8,1.8v20.9
		C111.6,157.1,110.8,157.8,109.8,157.8z"/>
	<path d="M109.8,159.3c-1.8,0-3.2-1.4-3.2-3.2v-20.9c0-1.8,1.4-3.2,3.2-3.2c1.8,0,3.2,1.4,3.2,3.2v20.9
		C113,157.8,111.6,159.3,109.8,159.3z M109.8,134.8c-0.2,0-0.3,0.2-0.3,0.3v20.9c0,0.4,0.7,0.4,0.7,0v-20.9
		C110.2,135,110,134.8,109.8,134.8z"/>
</g>
</svg>
