<?xml version="1.0" encoding="utf-8"?>
<!-- Generator: Adobe Illustrator 23.0.3, SVG Export Plug-In . SVG Version: 6.00 Build 0)  -->
<svg version="1.1" id="Layer_1" xmlns="http://www.w3.org/2000/svg" xmlns:xlink="http://www.w3.org/1999/xlink" x="0px" y="0px"
	 viewBox="0 0 170.1 170.1" style="enable-background:new 0 0 170.1 170.1;" xml:space="preserve">
<g>
	<path d="M123.5,152.6H97c-1.6,0-2.9-1.3-2.9-2.9v-35.3H76.4v35.3c0,1.6-1.3,2.9-2.9,2.9H47c-1.6,0-2.9-1.3-2.9-2.9v-41.2H29.3
		c-1.2,0-2.3-0.7-2.7-1.8c-0.5-1.1-0.2-2.4,0.6-3.2l55.9-55.9c1.1-1.1,3-1.1,4.2,0l55.9,55.9c0.8,0.8,1.1,2.1,0.6,3.2
		c-0.5,1.1-1.5,1.8-2.7,1.8h-14.7v41.2C126.4,151.3,125.1,152.6,123.5,152.6z M100,146.7h20.6v-41.2c0-1.6,1.3-2.9,2.9-2.9h10.6
		L85.2,53.8l-48.8,48.8H47c1.6,0,2.9,1.3,2.9,2.9v41.2h20.6v-35.3c0-1.6,1.3-2.9,2.9-2.9H97c1.6,0,2.9,1.3,2.9,2.9V146.7z"/>
	<path d="M152.9,137.9h-29.4c-1.6,0-2.9-1.3-2.9-2.9s1.3-2.9,2.9-2.9H150V99.7c0-1.6,1.3-2.9,2.9-2.9h4.7l-34.1-34.1l-12.6,12.6
		c-1.1,1.1-3,1.1-4.2,0c-1.1-1.1-1.1-3,0-4.2l14.7-14.7c1.1-1.1,3-1.1,4.2,0l41.2,41.2c0.8,0.8,1.1,2.1,0.6,3.2
		c-0.5,1.1-1.5,1.8-2.7,1.8h-8.8V135C155.9,136.6,154.6,137.9,152.9,137.9z"/>
	<path d="M47,137.9H17.5c-1.6,0-2.9-1.3-2.9-2.9v-32.4H5.8c-1.2,0-2.3-0.7-2.7-1.8c-0.5-1.1-0.2-2.4,0.6-3.2l41.2-41.2
		c1.1-1.1,3-1.1,4.2,0l14.7,14.7c1.1,1.1,1.1,3,0,4.2c-1.1,1.1-3,1.1-4.2,0L47,62.6L12.9,96.7h4.7c1.6,0,2.9,1.3,2.9,2.9V132H47
		c1.6,0,2.9,1.3,2.9,2.9S48.6,137.9,47,137.9z"/>
</g>
</svg>
