<?xml version="1.0" encoding="utf-8"?>
<!-- Generator: Adobe Illustrator 23.0.3, SVG Export Plug-In . SVG Version: 6.00 Build 0)  -->
<svg version="1.1" id="Layer_1" xmlns="http://www.w3.org/2000/svg" xmlns:xlink="http://www.w3.org/1999/xlink" x="0px" y="0px"
	 viewBox="0 0 170.1 170.1" style="enable-background:new 0 0 170.1 170.1;" xml:space="preserve">
<g>
	<path d="M135.3,139h-99V20.7C36.3,10.4,44.6,2,54.9,2h61.7c10.3,0,18.7,8.4,18.7,18.7V139z M42.8,132.5h86.1V20.7
		c0-6.7-5.5-12.2-12.2-12.2H54.9c-6.7,0-12.2,5.5-12.2,12.2V132.5z"/>
	<path d="M89,113.5H46.4V99.3H89V113.5z M52.8,107h29.7v-1.2H52.8V107z"/>
	<path d="M89,128H46.4v-14.2H89V128z M52.8,121.5h29.7v-1.2H52.8V121.5z"/>
	<path d="M108.9,128.1c-8.1,0-14.6-6.6-14.6-14.6c0-8.1,6.6-14.6,14.6-14.6s14.6,6.6,14.6,14.6C123.6,121.5,117,128.1,108.9,128.1z
		 M108.9,105.3c-4.5,0-8.2,3.7-8.2,8.2s3.7,8.2,8.2,8.2s8.2-3.7,8.2-8.2S113.4,105.3,108.9,105.3z"/>
	<path d="M72.6,164.1H55.3v-31.6h17.3V164.1z M61.8,157.6h4.4V139h-4.4V157.6z"/>
	<path d="M116.3,164.1H98.9v-31.6h17.3V164.1z M105.4,157.6h4.4V139h-4.4V157.6z"/>
	<path d="M84.7,86.6c-14.4,0-20.7-14-20.7-21.1c0-9.5,4.9-18,5.1-18.3l5.8-9.9l0.2,11.3c0,0.1,0.1,0.4,0.4,0.9
		c0.8-3.8,1.6-8.5,0.9-14.2L74.8,22L82.4,33c2.5,3.6,4,7.4,5.1,10.9c0-0.1,0-0.1,0-0.2l0.9-13.5l5.3,12.4c1,2.3,1.8,4.3,2.4,6
		l2.7-3.8l2.6,4.1c0.2,0.3,5.2,8.5,5.2,18.6C106.6,77.1,99.8,86.6,84.7,86.6z M72.3,56c-0.9,2.7-1.8,6-1.8,9.5
		c0,3.8,3.5,14.6,14.2,14.6c11.3,0,15.4-6.5,15.4-12.5c0-4.1-1-7.8-2.1-10.5l-4.6,6.4l-1.7-6.8c0,0-0.1-0.2-0.2-0.7
		c-0.4,0.8-0.8,1.5-1.2,2.3l-3.7,7l-2.5-6.7c-0.5-1.4-0.8-3.1-1.2-5.3c-0.2-1.2-0.4-2.5-0.7-3.9c-0.2,1.2-0.5,2.3-0.7,3.3
		c-0.4,1.6-0.7,3.1-0.7,3.9l-0.2,6.8L75.3,59C74.1,57.9,73.1,56.9,72.3,56z"/>
</g>
</svg>
